<?xml version="1.0" encoding="utf-8" standalone="no"?>
<!DOCTYPE svg PUBLIC "-//W3C//DTD SVG 1.1//EN"
  "http://www.w3.org/Graphics/SVG/1.1/DTD/svg11.dtd">
<svg xmlns:xlink="http://www.w3.org/1999/xlink" width="1080pt" height="720pt" viewBox="0 0 1080 720" xmlns="http://www.w3.org/2000/svg" version="1.1">
 <metadata>
  <rdf:RDF xmlns:dc="http://purl.org/dc/elements/1.1/" xmlns:cc="http://creativecommons.org/ns#" xmlns:rdf="http://www.w3.org/1999/02/22-rdf-syntax-ns#">
   <cc:Work>
    <dc:type rdf:resource="http://purl.org/dc/dcmitype/StillImage"/>
    <dc:date>2025-02-10T22:53:37.070781</dc:date>
    <dc:format>image/svg+xml</dc:format>
    <dc:creator>
     <cc:Agent>
      <dc:title>Matplotlib v3.10.0, https://matplotlib.org/</dc:title>
     </cc:Agent>
    </dc:creator>
   </cc:Work>
  </rdf:RDF>
 </metadata>
 <defs>
  <style type="text/css">*{stroke-linejoin: round; stroke-linecap: butt}</style>
 </defs>
 <g id="figure_1">
  <g id="patch_1">
   <path d="M 0 720 
L 1080 720 
L 1080 0 
L 0 0 
z
" style="fill: #ffffff"/>
  </g>
  <g id="axes_1">
   <g id="patch_2">
    <path d="M 44.57 614.86 
L 1069.2 614.86 
L 1069.2 26.88 
L 44.57 26.88 
z
" style="fill: #ffffff"/>
   </g>
   <g id="patch_3">
    <path d="M 91.144091 614.86 
L 128.77972 614.86 
L 128.77972 54.879048 
L 91.144091 54.879048 
z
" clip-path="url(#pb4bc1cefa6)" style="fill: #1f77b4"/>
   </g>
   <g id="patch_4">
    <path d="M 138.188627 614.86 
L 175.824256 614.86 
L 175.824256 208.444341 
L 138.188627 208.444341 
z
" clip-path="url(#pb4bc1cefa6)" style="fill: #1f77b4"/>
   </g>
   <g id="patch_5">
    <path d="M 185.233163 614.86 
L 222.868792 614.86 
L 222.868792 213.551911 
L 185.233163 213.551911 
z
" clip-path="url(#pb4bc1cefa6)" style="fill: #1f77b4"/>
   </g>
   <g id="patch_6">
    <path d="M 232.2777 614.86 
L 269.913329 614.86 
L 269.913329 275.392021 
L 232.2777 275.392021 
z
" clip-path="url(#pb4bc1cefa6)" style="fill: #1f77b4"/>
   </g>
   <g id="patch_7">
    <path d="M 279.322236 614.86 
L 316.957865 614.86 
L 316.957865 281.167844 
L 279.322236 281.167844 
z
" clip-path="url(#pb4bc1cefa6)" style="fill: #1f77b4"/>
   </g>
   <g id="patch_8">
    <path d="M 326.366772 614.86 
L 364.002401 614.86 
L 364.002401 283.974781 
L 326.366772 283.974781 
z
" clip-path="url(#pb4bc1cefa6)" style="fill: #1f77b4"/>
   </g>
   <g id="patch_9">
    <path d="M 373.411309 614.86 
L 411.046938 614.86 
L 411.046938 289.360274 
L 373.411309 289.360274 
z
" clip-path="url(#pb4bc1cefa6)" style="fill: #1f77b4"/>
   </g>
   <g id="patch_10">
    <path d="M 420.455845 614.86 
L 458.091474 614.86 
L 458.091474 289.834201 
L 420.455845 289.834201 
z
" clip-path="url(#pb4bc1cefa6)" style="fill: #1f77b4"/>
   </g>
   <g id="patch_11">
    <path d="M 467.500381 614.86 
L 505.13601 614.86 
L 505.13601 302.575659 
L 467.500381 302.575659 
z
" clip-path="url(#pb4bc1cefa6)" style="fill: #1f77b4"/>
   </g>
   <g id="patch_12">
    <path d="M 514.544917 614.86 
L 552.180546 614.86 
L 552.180546 303.728646 
L 514.544917 303.728646 
z
" clip-path="url(#pb4bc1cefa6)" style="fill: #1f77b4"/>
   </g>
   <g id="patch_13">
    <path d="M 561.589454 614.86 
L 599.225083 614.86 
L 599.225083 316.122528 
L 561.589454 316.122528 
z
" clip-path="url(#pb4bc1cefa6)" style="fill: #1f77b4"/>
   </g>
   <g id="patch_14">
    <path d="M 608.63399 614.86 
L 646.269619 614.86 
L 646.269619 357.668815 
L 608.63399 357.668815 
z
" clip-path="url(#pb4bc1cefa6)" style="fill: #1f77b4"/>
   </g>
   <g id="patch_15">
    <path d="M 655.678526 614.86 
L 693.314155 614.86 
L 693.314155 359.719937 
L 655.678526 359.719937 
z
" clip-path="url(#pb4bc1cefa6)" style="fill: #1f77b4"/>
   </g>
   <g id="patch_16">
    <path d="M 702.723062 614.86 
L 740.358691 614.86 
L 740.358691 361.095945 
L 702.723062 361.095945 
z
" clip-path="url(#pb4bc1cefa6)" style="fill: #1f77b4"/>
   </g>
   <g id="patch_17">
    <path d="M 749.767599 614.86 
L 787.403228 614.86 
L 787.403228 364.19832 
L 749.767599 364.19832 
z
" clip-path="url(#pb4bc1cefa6)" style="fill: #1f77b4"/>
   </g>
   <g id="patch_18">
    <path d="M 796.812135 614.86 
L 834.447764 614.86 
L 834.447764 365.910649 
L 796.812135 365.910649 
z
" clip-path="url(#pb4bc1cefa6)" style="fill: #1f77b4"/>
   </g>
   <g id="patch_19">
    <path d="M 843.856671 614.86 
L 881.4923 614.86 
L 881.4923 367.171449 
L 843.856671 367.171449 
z
" clip-path="url(#pb4bc1cefa6)" style="fill: #1f77b4"/>
   </g>
   <g id="patch_20">
    <path d="M 890.901208 614.86 
L 928.536837 614.86 
L 928.536837 369.796457 
L 890.901208 369.796457 
z
" clip-path="url(#pb4bc1cefa6)" style="fill: #1f77b4"/>
   </g>
   <g id="patch_21">
    <path d="M 937.945744 614.86 
L 975.581373 614.86 
L 975.581373 372.710175 
L 937.945744 372.710175 
z
" clip-path="url(#pb4bc1cefa6)" style="fill: #1f77b4"/>
   </g>
   <g id="patch_22">
    <path d="M 984.99028 614.86 
L 1022.625909 614.86 
L 1022.625909 375.230988 
L 984.99028 375.230988 
z
" clip-path="url(#pb4bc1cefa6)" style="fill: #1f77b4"/>
   </g>
   <g id="matplotlib.axis_1">
    <g id="xtick_1">
     <g id="line2d_1">
      <defs>
       <path id="m8894d73716" d="M 0 0 
L 0 3.5 
" style="stroke: #000000; stroke-width: 0.8"/>
      </defs>
      <g>
       <use xlink:href="#m8894d73716" x="109.961905" y="614.86" style="stroke: #000000; stroke-width: 0.8"/>
      </g>
     </g>
     <g id="text_1">
      <!-- Bastrop TX -->
      <g transform="translate(112.72128 676.467813) rotate(-90) scale(0.1 -0.1)">
       <defs>
        <path id="DejaVuSans-42" d="M 1259 2228 
L 1259 519 
L 2272 519 
Q 2781 519 3026 730 
Q 3272 941 3272 1375 
Q 3272 1813 3026 2020 
Q 2781 2228 2272 2228 
L 1259 2228 
z
M 1259 4147 
L 1259 2741 
L 2194 2741 
Q 2656 2741 2882 2914 
Q 3109 3088 3109 3444 
Q 3109 3797 2882 3972 
Q 2656 4147 2194 4147 
L 1259 4147 
z
M 628 4666 
L 2241 4666 
Q 2963 4666 3353 4366 
Q 3744 4066 3744 3513 
Q 3744 3084 3544 2831 
Q 3344 2578 2956 2516 
Q 3422 2416 3680 2098 
Q 3938 1781 3938 1306 
Q 3938 681 3513 340 
Q 3088 0 2303 0 
L 628 0 
L 628 4666 
z
" transform="scale(0.015625)"/>
        <path id="DejaVuSans-61" d="M 2194 1759 
Q 1497 1759 1228 1600 
Q 959 1441 959 1056 
Q 959 750 1161 570 
Q 1363 391 1709 391 
Q 2188 391 2477 730 
Q 2766 1069 2766 1631 
L 2766 1759 
L 2194 1759 
z
M 3341 1997 
L 3341 0 
L 2766 0 
L 2766 531 
Q 2569 213 2275 61 
Q 1981 -91 1556 -91 
Q 1019 -91 701 211 
Q 384 513 384 1019 
Q 384 1609 779 1909 
Q 1175 2209 1959 2209 
L 2766 2209 
L 2766 2266 
Q 2766 2663 2505 2880 
Q 2244 3097 1772 3097 
Q 1472 3097 1187 3025 
Q 903 2953 641 2809 
L 641 3341 
Q 956 3463 1253 3523 
Q 1550 3584 1831 3584 
Q 2591 3584 2966 3190 
Q 3341 2797 3341 1997 
z
" transform="scale(0.015625)"/>
        <path id="DejaVuSans-73" d="M 2834 3397 
L 2834 2853 
Q 2591 2978 2328 3040 
Q 2066 3103 1784 3103 
Q 1356 3103 1142 2972 
Q 928 2841 928 2578 
Q 928 2378 1081 2264 
Q 1234 2150 1697 2047 
L 1894 2003 
Q 2506 1872 2764 1633 
Q 3022 1394 3022 966 
Q 3022 478 2636 193 
Q 2250 -91 1575 -91 
Q 1294 -91 989 -36 
Q 684 19 347 128 
L 347 722 
Q 666 556 975 473 
Q 1284 391 1588 391 
Q 1994 391 2212 530 
Q 2431 669 2431 922 
Q 2431 1156 2273 1281 
Q 2116 1406 1581 1522 
L 1381 1569 
Q 847 1681 609 1914 
Q 372 2147 372 2553 
Q 372 3047 722 3315 
Q 1072 3584 1716 3584 
Q 2034 3584 2315 3537 
Q 2597 3491 2834 3397 
z
" transform="scale(0.015625)"/>
        <path id="DejaVuSans-74" d="M 1172 4494 
L 1172 3500 
L 2356 3500 
L 2356 3053 
L 1172 3053 
L 1172 1153 
Q 1172 725 1289 603 
Q 1406 481 1766 481 
L 2356 481 
L 2356 0 
L 1766 0 
Q 1100 0 847 248 
Q 594 497 594 1153 
L 594 3053 
L 172 3053 
L 172 3500 
L 594 3500 
L 594 4494 
L 1172 4494 
z
" transform="scale(0.015625)"/>
        <path id="DejaVuSans-72" d="M 2631 2963 
Q 2534 3019 2420 3045 
Q 2306 3072 2169 3072 
Q 1681 3072 1420 2755 
Q 1159 2438 1159 1844 
L 1159 0 
L 581 0 
L 581 3500 
L 1159 3500 
L 1159 2956 
Q 1341 3275 1631 3429 
Q 1922 3584 2338 3584 
Q 2397 3584 2469 3576 
Q 2541 3569 2628 3553 
L 2631 2963 
z
" transform="scale(0.015625)"/>
        <path id="DejaVuSans-6f" d="M 1959 3097 
Q 1497 3097 1228 2736 
Q 959 2375 959 1747 
Q 959 1119 1226 758 
Q 1494 397 1959 397 
Q 2419 397 2687 759 
Q 2956 1122 2956 1747 
Q 2956 2369 2687 2733 
Q 2419 3097 1959 3097 
z
M 1959 3584 
Q 2709 3584 3137 3096 
Q 3566 2609 3566 1747 
Q 3566 888 3137 398 
Q 2709 -91 1959 -91 
Q 1206 -91 779 398 
Q 353 888 353 1747 
Q 353 2609 779 3096 
Q 1206 3584 1959 3584 
z
" transform="scale(0.015625)"/>
        <path id="DejaVuSans-70" d="M 1159 525 
L 1159 -1331 
L 581 -1331 
L 581 3500 
L 1159 3500 
L 1159 2969 
Q 1341 3281 1617 3432 
Q 1894 3584 2278 3584 
Q 2916 3584 3314 3078 
Q 3713 2572 3713 1747 
Q 3713 922 3314 415 
Q 2916 -91 2278 -91 
Q 1894 -91 1617 61 
Q 1341 213 1159 525 
z
M 3116 1747 
Q 3116 2381 2855 2742 
Q 2594 3103 2138 3103 
Q 1681 3103 1420 2742 
Q 1159 2381 1159 1747 
Q 1159 1113 1420 752 
Q 1681 391 2138 391 
Q 2594 391 2855 752 
Q 3116 1113 3116 1747 
z
" transform="scale(0.015625)"/>
        <path id="DejaVuSans-20" transform="scale(0.015625)"/>
        <path id="DejaVuSans-54" d="M -19 4666 
L 3928 4666 
L 3928 4134 
L 2272 4134 
L 2272 0 
L 1638 0 
L 1638 4134 
L -19 4134 
L -19 4666 
z
" transform="scale(0.015625)"/>
        <path id="DejaVuSans-58" d="M 403 4666 
L 1081 4666 
L 2241 2931 
L 3406 4666 
L 4084 4666 
L 2584 2425 
L 4184 0 
L 3506 0 
L 2194 1984 
L 872 0 
L 191 0 
L 1856 2491 
L 403 4666 
z
" transform="scale(0.015625)"/>
       </defs>
       <use xlink:href="#DejaVuSans-42"/>
       <use xlink:href="#DejaVuSans-61" transform="translate(68.603516 0)"/>
       <use xlink:href="#DejaVuSans-73" transform="translate(129.882812 0)"/>
       <use xlink:href="#DejaVuSans-74" transform="translate(181.982422 0)"/>
       <use xlink:href="#DejaVuSans-72" transform="translate(221.191406 0)"/>
       <use xlink:href="#DejaVuSans-6f" transform="translate(260.054688 0)"/>
       <use xlink:href="#DejaVuSans-70" transform="translate(321.236328 0)"/>
       <use xlink:href="#DejaVuSans-20" transform="translate(384.712891 0)"/>
       <use xlink:href="#DejaVuSans-54" transform="translate(416.5 0)"/>
       <use xlink:href="#DejaVuSans-58" transform="translate(477.583984 0)"/>
      </g>
     </g>
    </g>
    <g id="xtick_2">
     <g id="line2d_2">
      <g>
       <use xlink:href="#m8894d73716" x="157.006442" y="614.86" style="stroke: #000000; stroke-width: 0.8"/>
      </g>
     </g>
     <g id="text_2">
      <!-- Atlantic NJ -->
      <g transform="translate(159.765817 673.495937) rotate(-90) scale(0.1 -0.1)">
       <defs>
        <path id="DejaVuSans-41" d="M 2188 4044 
L 1331 1722 
L 3047 1722 
L 2188 4044 
z
M 1831 4666 
L 2547 4666 
L 4325 0 
L 3669 0 
L 3244 1197 
L 1141 1197 
L 716 0 
L 50 0 
L 1831 4666 
z
" transform="scale(0.015625)"/>
        <path id="DejaVuSans-6c" d="M 603 4863 
L 1178 4863 
L 1178 0 
L 603 0 
L 603 4863 
z
" transform="scale(0.015625)"/>
        <path id="DejaVuSans-6e" d="M 3513 2113 
L 3513 0 
L 2938 0 
L 2938 2094 
Q 2938 2591 2744 2837 
Q 2550 3084 2163 3084 
Q 1697 3084 1428 2787 
Q 1159 2491 1159 1978 
L 1159 0 
L 581 0 
L 581 3500 
L 1159 3500 
L 1159 2956 
Q 1366 3272 1645 3428 
Q 1925 3584 2291 3584 
Q 2894 3584 3203 3211 
Q 3513 2838 3513 2113 
z
" transform="scale(0.015625)"/>
        <path id="DejaVuSans-69" d="M 603 3500 
L 1178 3500 
L 1178 0 
L 603 0 
L 603 3500 
z
M 603 4863 
L 1178 4863 
L 1178 4134 
L 603 4134 
L 603 4863 
z
" transform="scale(0.015625)"/>
        <path id="DejaVuSans-63" d="M 3122 3366 
L 3122 2828 
Q 2878 2963 2633 3030 
Q 2388 3097 2138 3097 
Q 1578 3097 1268 2742 
Q 959 2388 959 1747 
Q 959 1106 1268 751 
Q 1578 397 2138 397 
Q 2388 397 2633 464 
Q 2878 531 3122 666 
L 3122 134 
Q 2881 22 2623 -34 
Q 2366 -91 2075 -91 
Q 1284 -91 818 406 
Q 353 903 353 1747 
Q 353 2603 823 3093 
Q 1294 3584 2113 3584 
Q 2378 3584 2631 3529 
Q 2884 3475 3122 3366 
z
" transform="scale(0.015625)"/>
        <path id="DejaVuSans-4e" d="M 628 4666 
L 1478 4666 
L 3547 763 
L 3547 4666 
L 4159 4666 
L 4159 0 
L 3309 0 
L 1241 3903 
L 1241 0 
L 628 0 
L 628 4666 
z
" transform="scale(0.015625)"/>
        <path id="DejaVuSans-4a" d="M 628 4666 
L 1259 4666 
L 1259 325 
Q 1259 -519 939 -900 
Q 619 -1281 -91 -1281 
L -331 -1281 
L -331 -750 
L -134 -750 
Q 284 -750 456 -515 
Q 628 -281 628 325 
L 628 4666 
z
" transform="scale(0.015625)"/>
       </defs>
       <use xlink:href="#DejaVuSans-41"/>
       <use xlink:href="#DejaVuSans-74" transform="translate(66.658203 0)"/>
       <use xlink:href="#DejaVuSans-6c" transform="translate(105.867188 0)"/>
       <use xlink:href="#DejaVuSans-61" transform="translate(133.650391 0)"/>
       <use xlink:href="#DejaVuSans-6e" transform="translate(194.929688 0)"/>
       <use xlink:href="#DejaVuSans-74" transform="translate(258.308594 0)"/>
       <use xlink:href="#DejaVuSans-69" transform="translate(297.517578 0)"/>
       <use xlink:href="#DejaVuSans-63" transform="translate(325.300781 0)"/>
       <use xlink:href="#DejaVuSans-20" transform="translate(380.28125 0)"/>
       <use xlink:href="#DejaVuSans-4e" transform="translate(412.068359 0)"/>
       <use xlink:href="#DejaVuSans-4a" transform="translate(486.873047 0)"/>
      </g>
     </g>
    </g>
    <g id="xtick_3">
     <g id="line2d_3">
      <g>
       <use xlink:href="#m8894d73716" x="204.050978" y="614.86" style="stroke: #000000; stroke-width: 0.8"/>
      </g>
     </g>
     <g id="text_3">
      <!-- New Haven CT -->
      <g transform="translate(206.810353 695.177188) rotate(-90) scale(0.1 -0.1)">
       <defs>
        <path id="DejaVuSans-65" d="M 3597 1894 
L 3597 1613 
L 953 1613 
Q 991 1019 1311 708 
Q 1631 397 2203 397 
Q 2534 397 2845 478 
Q 3156 559 3463 722 
L 3463 178 
Q 3153 47 2828 -22 
Q 2503 -91 2169 -91 
Q 1331 -91 842 396 
Q 353 884 353 1716 
Q 353 2575 817 3079 
Q 1281 3584 2069 3584 
Q 2775 3584 3186 3129 
Q 3597 2675 3597 1894 
z
M 3022 2063 
Q 3016 2534 2758 2815 
Q 2500 3097 2075 3097 
Q 1594 3097 1305 2825 
Q 1016 2553 972 2059 
L 3022 2063 
z
" transform="scale(0.015625)"/>
        <path id="DejaVuSans-77" d="M 269 3500 
L 844 3500 
L 1563 769 
L 2278 3500 
L 2956 3500 
L 3675 769 
L 4391 3500 
L 4966 3500 
L 4050 0 
L 3372 0 
L 2619 2869 
L 1863 0 
L 1184 0 
L 269 3500 
z
" transform="scale(0.015625)"/>
        <path id="DejaVuSans-48" d="M 628 4666 
L 1259 4666 
L 1259 2753 
L 3553 2753 
L 3553 4666 
L 4184 4666 
L 4184 0 
L 3553 0 
L 3553 2222 
L 1259 2222 
L 1259 0 
L 628 0 
L 628 4666 
z
" transform="scale(0.015625)"/>
        <path id="DejaVuSans-76" d="M 191 3500 
L 800 3500 
L 1894 563 
L 2988 3500 
L 3597 3500 
L 2284 0 
L 1503 0 
L 191 3500 
z
" transform="scale(0.015625)"/>
        <path id="DejaVuSans-43" d="M 4122 4306 
L 4122 3641 
Q 3803 3938 3442 4084 
Q 3081 4231 2675 4231 
Q 1875 4231 1450 3742 
Q 1025 3253 1025 2328 
Q 1025 1406 1450 917 
Q 1875 428 2675 428 
Q 3081 428 3442 575 
Q 3803 722 4122 1019 
L 4122 359 
Q 3791 134 3420 21 
Q 3050 -91 2638 -91 
Q 1578 -91 968 557 
Q 359 1206 359 2328 
Q 359 3453 968 4101 
Q 1578 4750 2638 4750 
Q 3056 4750 3426 4639 
Q 3797 4528 4122 4306 
z
" transform="scale(0.015625)"/>
       </defs>
       <use xlink:href="#DejaVuSans-4e"/>
       <use xlink:href="#DejaVuSans-65" transform="translate(74.804688 0)"/>
       <use xlink:href="#DejaVuSans-77" transform="translate(136.328125 0)"/>
       <use xlink:href="#DejaVuSans-20" transform="translate(218.115234 0)"/>
       <use xlink:href="#DejaVuSans-48" transform="translate(249.902344 0)"/>
       <use xlink:href="#DejaVuSans-61" transform="translate(325.097656 0)"/>
       <use xlink:href="#DejaVuSans-76" transform="translate(386.376953 0)"/>
       <use xlink:href="#DejaVuSans-65" transform="translate(445.556641 0)"/>
       <use xlink:href="#DejaVuSans-6e" transform="translate(507.080078 0)"/>
       <use xlink:href="#DejaVuSans-20" transform="translate(570.458984 0)"/>
       <use xlink:href="#DejaVuSans-43" transform="translate(602.246094 0)"/>
       <use xlink:href="#DejaVuSans-54" transform="translate(672.070312 0)"/>
      </g>
     </g>
    </g>
    <g id="xtick_4">
     <g id="line2d_4">
      <g>
       <use xlink:href="#m8894d73716" x="251.095514" y="614.86" style="stroke: #000000; stroke-width: 0.8"/>
      </g>
     </g>
     <g id="text_4">
      <!-- Galveston TX -->
      <g transform="translate(253.854889 688.308437) rotate(-90) scale(0.1 -0.1)">
       <defs>
        <path id="DejaVuSans-47" d="M 3809 666 
L 3809 1919 
L 2778 1919 
L 2778 2438 
L 4434 2438 
L 4434 434 
Q 4069 175 3628 42 
Q 3188 -91 2688 -91 
Q 1594 -91 976 548 
Q 359 1188 359 2328 
Q 359 3472 976 4111 
Q 1594 4750 2688 4750 
Q 3144 4750 3555 4637 
Q 3966 4525 4313 4306 
L 4313 3634 
Q 3963 3931 3569 4081 
Q 3175 4231 2741 4231 
Q 1884 4231 1454 3753 
Q 1025 3275 1025 2328 
Q 1025 1384 1454 906 
Q 1884 428 2741 428 
Q 3075 428 3337 486 
Q 3600 544 3809 666 
z
" transform="scale(0.015625)"/>
       </defs>
       <use xlink:href="#DejaVuSans-47"/>
       <use xlink:href="#DejaVuSans-61" transform="translate(77.490234 0)"/>
       <use xlink:href="#DejaVuSans-6c" transform="translate(138.769531 0)"/>
       <use xlink:href="#DejaVuSans-76" transform="translate(166.552734 0)"/>
       <use xlink:href="#DejaVuSans-65" transform="translate(225.732422 0)"/>
       <use xlink:href="#DejaVuSans-73" transform="translate(287.255859 0)"/>
       <use xlink:href="#DejaVuSans-74" transform="translate(339.355469 0)"/>
       <use xlink:href="#DejaVuSans-6f" transform="translate(378.564453 0)"/>
       <use xlink:href="#DejaVuSans-6e" transform="translate(439.746094 0)"/>
       <use xlink:href="#DejaVuSans-20" transform="translate(503.125 0)"/>
       <use xlink:href="#DejaVuSans-54" transform="translate(534.912109 0)"/>
       <use xlink:href="#DejaVuSans-58" transform="translate(595.996094 0)"/>
      </g>
     </g>
    </g>
    <g id="xtick_5">
     <g id="line2d_5">
      <g>
       <use xlink:href="#m8894d73716" x="298.140051" y="614.86" style="stroke: #000000; stroke-width: 0.8"/>
      </g>
     </g>
     <g id="text_5">
      <!-- Collier FL -->
      <g transform="translate(300.899426 668.061563) rotate(-90) scale(0.1 -0.1)">
       <defs>
        <path id="DejaVuSans-46" d="M 628 4666 
L 3309 4666 
L 3309 4134 
L 1259 4134 
L 1259 2759 
L 3109 2759 
L 3109 2228 
L 1259 2228 
L 1259 0 
L 628 0 
L 628 4666 
z
" transform="scale(0.015625)"/>
        <path id="DejaVuSans-4c" d="M 628 4666 
L 1259 4666 
L 1259 531 
L 3531 531 
L 3531 0 
L 628 0 
L 628 4666 
z
" transform="scale(0.015625)"/>
       </defs>
       <use xlink:href="#DejaVuSans-43"/>
       <use xlink:href="#DejaVuSans-6f" transform="translate(69.824219 0)"/>
       <use xlink:href="#DejaVuSans-6c" transform="translate(131.005859 0)"/>
       <use xlink:href="#DejaVuSans-6c" transform="translate(158.789062 0)"/>
       <use xlink:href="#DejaVuSans-69" transform="translate(186.572266 0)"/>
       <use xlink:href="#DejaVuSans-65" transform="translate(214.355469 0)"/>
       <use xlink:href="#DejaVuSans-72" transform="translate(275.878906 0)"/>
       <use xlink:href="#DejaVuSans-20" transform="translate(316.992188 0)"/>
       <use xlink:href="#DejaVuSans-46" transform="translate(348.779297 0)"/>
       <use xlink:href="#DejaVuSans-4c" transform="translate(406.298828 0)"/>
      </g>
     </g>
    </g>
    <g id="xtick_6">
     <g id="line2d_6">
      <g>
       <use xlink:href="#m8894d73716" x="345.184587" y="614.86" style="stroke: #000000; stroke-width: 0.8"/>
      </g>
     </g>
     <g id="text_6">
      <!-- Andrews TX -->
      <g transform="translate(347.943962 680.949062) rotate(-90) scale(0.1 -0.1)">
       <defs>
        <path id="DejaVuSans-64" d="M 2906 2969 
L 2906 4863 
L 3481 4863 
L 3481 0 
L 2906 0 
L 2906 525 
Q 2725 213 2448 61 
Q 2172 -91 1784 -91 
Q 1150 -91 751 415 
Q 353 922 353 1747 
Q 353 2572 751 3078 
Q 1150 3584 1784 3584 
Q 2172 3584 2448 3432 
Q 2725 3281 2906 2969 
z
M 947 1747 
Q 947 1113 1208 752 
Q 1469 391 1925 391 
Q 2381 391 2643 752 
Q 2906 1113 2906 1747 
Q 2906 2381 2643 2742 
Q 2381 3103 1925 3103 
Q 1469 3103 1208 2742 
Q 947 2381 947 1747 
z
" transform="scale(0.015625)"/>
       </defs>
       <use xlink:href="#DejaVuSans-41"/>
       <use xlink:href="#DejaVuSans-6e" transform="translate(68.408203 0)"/>
       <use xlink:href="#DejaVuSans-64" transform="translate(131.787109 0)"/>
       <use xlink:href="#DejaVuSans-72" transform="translate(195.263672 0)"/>
       <use xlink:href="#DejaVuSans-65" transform="translate(234.126953 0)"/>
       <use xlink:href="#DejaVuSans-77" transform="translate(295.650391 0)"/>
       <use xlink:href="#DejaVuSans-73" transform="translate(377.4375 0)"/>
       <use xlink:href="#DejaVuSans-20" transform="translate(429.537109 0)"/>
       <use xlink:href="#DejaVuSans-54" transform="translate(461.324219 0)"/>
       <use xlink:href="#DejaVuSans-58" transform="translate(522.408203 0)"/>
      </g>
     </g>
    </g>
    <g id="xtick_7">
     <g id="line2d_7">
      <g>
       <use xlink:href="#m8894d73716" x="392.229123" y="614.86" style="stroke: #000000; stroke-width: 0.8"/>
      </g>
     </g>
     <g id="text_7">
      <!-- Polk FL -->
      <g transform="translate(394.988498 656.71625) rotate(-90) scale(0.1 -0.1)">
       <defs>
        <path id="DejaVuSans-50" d="M 1259 4147 
L 1259 2394 
L 2053 2394 
Q 2494 2394 2734 2622 
Q 2975 2850 2975 3272 
Q 2975 3691 2734 3919 
Q 2494 4147 2053 4147 
L 1259 4147 
z
M 628 4666 
L 2053 4666 
Q 2838 4666 3239 4311 
Q 3641 3956 3641 3272 
Q 3641 2581 3239 2228 
Q 2838 1875 2053 1875 
L 1259 1875 
L 1259 0 
L 628 0 
L 628 4666 
z
" transform="scale(0.015625)"/>
        <path id="DejaVuSans-6b" d="M 581 4863 
L 1159 4863 
L 1159 1991 
L 2875 3500 
L 3609 3500 
L 1753 1863 
L 3688 0 
L 2938 0 
L 1159 1709 
L 1159 0 
L 581 0 
L 581 4863 
z
" transform="scale(0.015625)"/>
       </defs>
       <use xlink:href="#DejaVuSans-50"/>
       <use xlink:href="#DejaVuSans-6f" transform="translate(56.677734 0)"/>
       <use xlink:href="#DejaVuSans-6c" transform="translate(117.859375 0)"/>
       <use xlink:href="#DejaVuSans-6b" transform="translate(145.642578 0)"/>
       <use xlink:href="#DejaVuSans-20" transform="translate(203.552734 0)"/>
       <use xlink:href="#DejaVuSans-46" transform="translate(235.339844 0)"/>
       <use xlink:href="#DejaVuSans-4c" transform="translate(292.859375 0)"/>
      </g>
     </g>
    </g>
    <g id="xtick_8">
     <g id="line2d_8">
      <g>
       <use xlink:href="#m8894d73716" x="439.273659" y="614.86" style="stroke: #000000; stroke-width: 0.8"/>
      </g>
     </g>
     <g id="text_8">
      <!-- Charlotte FL -->
      <g transform="translate(442.033034 682.811563) rotate(-90) scale(0.1 -0.1)">
       <defs>
        <path id="DejaVuSans-68" d="M 3513 2113 
L 3513 0 
L 2938 0 
L 2938 2094 
Q 2938 2591 2744 2837 
Q 2550 3084 2163 3084 
Q 1697 3084 1428 2787 
Q 1159 2491 1159 1978 
L 1159 0 
L 581 0 
L 581 4863 
L 1159 4863 
L 1159 2956 
Q 1366 3272 1645 3428 
Q 1925 3584 2291 3584 
Q 2894 3584 3203 3211 
Q 3513 2838 3513 2113 
z
" transform="scale(0.015625)"/>
       </defs>
       <use xlink:href="#DejaVuSans-43"/>
       <use xlink:href="#DejaVuSans-68" transform="translate(69.824219 0)"/>
       <use xlink:href="#DejaVuSans-61" transform="translate(133.203125 0)"/>
       <use xlink:href="#DejaVuSans-72" transform="translate(194.482422 0)"/>
       <use xlink:href="#DejaVuSans-6c" transform="translate(235.595703 0)"/>
       <use xlink:href="#DejaVuSans-6f" transform="translate(263.378906 0)"/>
       <use xlink:href="#DejaVuSans-74" transform="translate(324.560547 0)"/>
       <use xlink:href="#DejaVuSans-74" transform="translate(363.769531 0)"/>
       <use xlink:href="#DejaVuSans-65" transform="translate(402.978516 0)"/>
       <use xlink:href="#DejaVuSans-20" transform="translate(464.501953 0)"/>
       <use xlink:href="#DejaVuSans-46" transform="translate(496.289062 0)"/>
       <use xlink:href="#DejaVuSans-4c" transform="translate(553.808594 0)"/>
      </g>
     </g>
    </g>
    <g id="xtick_9">
     <g id="line2d_9">
      <g>
       <use xlink:href="#m8894d73716" x="486.318196" y="614.86" style="stroke: #000000; stroke-width: 0.8"/>
      </g>
     </g>
     <g id="text_9">
      <!-- Bexar TX -->
      <g transform="translate(489.077571 666.992813) rotate(-90) scale(0.1 -0.1)">
       <defs>
        <path id="DejaVuSans-78" d="M 3513 3500 
L 2247 1797 
L 3578 0 
L 2900 0 
L 1881 1375 
L 863 0 
L 184 0 
L 1544 1831 
L 300 3500 
L 978 3500 
L 1906 2253 
L 2834 3500 
L 3513 3500 
z
" transform="scale(0.015625)"/>
       </defs>
       <use xlink:href="#DejaVuSans-42"/>
       <use xlink:href="#DejaVuSans-65" transform="translate(68.603516 0)"/>
       <use xlink:href="#DejaVuSans-78" transform="translate(128.376953 0)"/>
       <use xlink:href="#DejaVuSans-61" transform="translate(187.556641 0)"/>
       <use xlink:href="#DejaVuSans-72" transform="translate(248.835938 0)"/>
       <use xlink:href="#DejaVuSans-20" transform="translate(289.949219 0)"/>
       <use xlink:href="#DejaVuSans-54" transform="translate(321.736328 0)"/>
       <use xlink:href="#DejaVuSans-58" transform="translate(382.820312 0)"/>
      </g>
     </g>
    </g>
    <g id="xtick_10">
     <g id="line2d_10">
      <g>
       <use xlink:href="#m8894d73716" x="533.362732" y="614.86" style="stroke: #000000; stroke-width: 0.8"/>
      </g>
     </g>
     <g id="text_10">
      <!-- Gaston NC -->
      <g transform="translate(536.122107 674.964687) rotate(-90) scale(0.1 -0.1)">
       <use xlink:href="#DejaVuSans-47"/>
       <use xlink:href="#DejaVuSans-61" transform="translate(77.490234 0)"/>
       <use xlink:href="#DejaVuSans-73" transform="translate(138.769531 0)"/>
       <use xlink:href="#DejaVuSans-74" transform="translate(190.869141 0)"/>
       <use xlink:href="#DejaVuSans-6f" transform="translate(230.078125 0)"/>
       <use xlink:href="#DejaVuSans-6e" transform="translate(291.259766 0)"/>
       <use xlink:href="#DejaVuSans-20" transform="translate(354.638672 0)"/>
       <use xlink:href="#DejaVuSans-4e" transform="translate(386.425781 0)"/>
       <use xlink:href="#DejaVuSans-43" transform="translate(461.230469 0)"/>
      </g>
     </g>
    </g>
    <g id="xtick_11">
     <g id="line2d_11">
      <g>
       <use xlink:href="#m8894d73716" x="580.407268" y="614.86" style="stroke: #000000; stroke-width: 0.8"/>
      </g>
     </g>
     <g id="text_11">
      <!-- Clark IN -->
      <g transform="translate(583.166643 661.26) rotate(-90) scale(0.1 -0.1)">
       <defs>
        <path id="DejaVuSans-49" d="M 628 4666 
L 1259 4666 
L 1259 0 
L 628 0 
L 628 4666 
z
" transform="scale(0.015625)"/>
       </defs>
       <use xlink:href="#DejaVuSans-43"/>
       <use xlink:href="#DejaVuSans-6c" transform="translate(69.824219 0)"/>
       <use xlink:href="#DejaVuSans-61" transform="translate(97.607422 0)"/>
       <use xlink:href="#DejaVuSans-72" transform="translate(158.886719 0)"/>
       <use xlink:href="#DejaVuSans-6b" transform="translate(200 0)"/>
       <use xlink:href="#DejaVuSans-20" transform="translate(257.910156 0)"/>
       <use xlink:href="#DejaVuSans-49" transform="translate(289.697266 0)"/>
       <use xlink:href="#DejaVuSans-4e" transform="translate(319.189453 0)"/>
      </g>
     </g>
    </g>
    <g id="xtick_12">
     <g id="line2d_12">
      <g>
       <use xlink:href="#m8894d73716" x="627.451804" y="614.86" style="stroke: #000000; stroke-width: 0.8"/>
      </g>
     </g>
     <g id="text_12">
      <!-- Austin TX -->
      <g transform="translate(630.211179 669.419375) rotate(-90) scale(0.1 -0.1)">
       <defs>
        <path id="DejaVuSans-75" d="M 544 1381 
L 544 3500 
L 1119 3500 
L 1119 1403 
Q 1119 906 1312 657 
Q 1506 409 1894 409 
Q 2359 409 2629 706 
Q 2900 1003 2900 1516 
L 2900 3500 
L 3475 3500 
L 3475 0 
L 2900 0 
L 2900 538 
Q 2691 219 2414 64 
Q 2138 -91 1772 -91 
Q 1169 -91 856 284 
Q 544 659 544 1381 
z
M 1991 3584 
L 1991 3584 
z
" transform="scale(0.015625)"/>
       </defs>
       <use xlink:href="#DejaVuSans-41"/>
       <use xlink:href="#DejaVuSans-75" transform="translate(68.408203 0)"/>
       <use xlink:href="#DejaVuSans-73" transform="translate(131.787109 0)"/>
       <use xlink:href="#DejaVuSans-74" transform="translate(183.886719 0)"/>
       <use xlink:href="#DejaVuSans-69" transform="translate(223.095703 0)"/>
       <use xlink:href="#DejaVuSans-6e" transform="translate(250.878906 0)"/>
       <use xlink:href="#DejaVuSans-20" transform="translate(314.257812 0)"/>
       <use xlink:href="#DejaVuSans-54" transform="translate(346.044922 0)"/>
       <use xlink:href="#DejaVuSans-58" transform="translate(407.128906 0)"/>
      </g>
     </g>
    </g>
    <g id="xtick_13">
     <g id="line2d_13">
      <g>
       <use xlink:href="#m8894d73716" x="674.496341" y="614.86" style="stroke: #000000; stroke-width: 0.8"/>
      </g>
     </g>
     <g id="text_13">
      <!-- Brevard FL -->
      <g transform="translate(677.255716 675.592813) rotate(-90) scale(0.1 -0.1)">
       <use xlink:href="#DejaVuSans-42"/>
       <use xlink:href="#DejaVuSans-72" transform="translate(68.603516 0)"/>
       <use xlink:href="#DejaVuSans-65" transform="translate(107.466797 0)"/>
       <use xlink:href="#DejaVuSans-76" transform="translate(168.990234 0)"/>
       <use xlink:href="#DejaVuSans-61" transform="translate(228.169922 0)"/>
       <use xlink:href="#DejaVuSans-72" transform="translate(289.449219 0)"/>
       <use xlink:href="#DejaVuSans-64" transform="translate(328.8125 0)"/>
       <use xlink:href="#DejaVuSans-20" transform="translate(392.289062 0)"/>
       <use xlink:href="#DejaVuSans-46" transform="translate(424.076172 0)"/>
       <use xlink:href="#DejaVuSans-4c" transform="translate(481.595703 0)"/>
      </g>
     </g>
    </g>
    <g id="xtick_14">
     <g id="line2d_14">
      <g>
       <use xlink:href="#m8894d73716" x="721.540877" y="614.86" style="stroke: #000000; stroke-width: 0.8"/>
      </g>
     </g>
     <g id="text_14">
      <!-- Manatee FL -->
      <g transform="translate(724.300252 679.81) rotate(-90) scale(0.1 -0.1)">
       <defs>
        <path id="DejaVuSans-4d" d="M 628 4666 
L 1569 4666 
L 2759 1491 
L 3956 4666 
L 4897 4666 
L 4897 0 
L 4281 0 
L 4281 4097 
L 3078 897 
L 2444 897 
L 1241 4097 
L 1241 0 
L 628 0 
L 628 4666 
z
" transform="scale(0.015625)"/>
       </defs>
       <use xlink:href="#DejaVuSans-4d"/>
       <use xlink:href="#DejaVuSans-61" transform="translate(86.279297 0)"/>
       <use xlink:href="#DejaVuSans-6e" transform="translate(147.558594 0)"/>
       <use xlink:href="#DejaVuSans-61" transform="translate(210.9375 0)"/>
       <use xlink:href="#DejaVuSans-74" transform="translate(272.216797 0)"/>
       <use xlink:href="#DejaVuSans-65" transform="translate(311.425781 0)"/>
       <use xlink:href="#DejaVuSans-65" transform="translate(372.949219 0)"/>
       <use xlink:href="#DejaVuSans-20" transform="translate(434.472656 0)"/>
       <use xlink:href="#DejaVuSans-46" transform="translate(466.259766 0)"/>
       <use xlink:href="#DejaVuSans-4c" transform="translate(523.779297 0)"/>
      </g>
     </g>
    </g>
    <g id="xtick_15">
     <g id="line2d_15">
      <g>
       <use xlink:href="#m8894d73716" x="768.585413" y="614.86" style="stroke: #000000; stroke-width: 0.8"/>
      </g>
     </g>
     <g id="text_15">
      <!-- Clay MO -->
      <g transform="translate(771.344788 663.345937) rotate(-90) scale(0.1 -0.1)">
       <defs>
        <path id="DejaVuSans-79" d="M 2059 -325 
Q 1816 -950 1584 -1140 
Q 1353 -1331 966 -1331 
L 506 -1331 
L 506 -850 
L 844 -850 
Q 1081 -850 1212 -737 
Q 1344 -625 1503 -206 
L 1606 56 
L 191 3500 
L 800 3500 
L 1894 763 
L 2988 3500 
L 3597 3500 
L 2059 -325 
z
" transform="scale(0.015625)"/>
        <path id="DejaVuSans-4f" d="M 2522 4238 
Q 1834 4238 1429 3725 
Q 1025 3213 1025 2328 
Q 1025 1447 1429 934 
Q 1834 422 2522 422 
Q 3209 422 3611 934 
Q 4013 1447 4013 2328 
Q 4013 3213 3611 3725 
Q 3209 4238 2522 4238 
z
M 2522 4750 
Q 3503 4750 4090 4092 
Q 4678 3434 4678 2328 
Q 4678 1225 4090 567 
Q 3503 -91 2522 -91 
Q 1538 -91 948 565 
Q 359 1222 359 2328 
Q 359 3434 948 4092 
Q 1538 4750 2522 4750 
z
" transform="scale(0.015625)"/>
       </defs>
       <use xlink:href="#DejaVuSans-43"/>
       <use xlink:href="#DejaVuSans-6c" transform="translate(69.824219 0)"/>
       <use xlink:href="#DejaVuSans-61" transform="translate(97.607422 0)"/>
       <use xlink:href="#DejaVuSans-79" transform="translate(158.886719 0)"/>
       <use xlink:href="#DejaVuSans-20" transform="translate(218.066406 0)"/>
       <use xlink:href="#DejaVuSans-4d" transform="translate(249.853516 0)"/>
       <use xlink:href="#DejaVuSans-4f" transform="translate(336.132812 0)"/>
      </g>
     </g>
    </g>
    <g id="xtick_16">
     <g id="line2d_16">
      <g>
       <use xlink:href="#m8894d73716" x="815.629949" y="614.86" style="stroke: #000000; stroke-width: 0.8"/>
      </g>
     </g>
     <g id="text_16">
      <!-- Blanco TX -->
      <g transform="translate(818.389324 671.717813) rotate(-90) scale(0.1 -0.1)">
       <use xlink:href="#DejaVuSans-42"/>
       <use xlink:href="#DejaVuSans-6c" transform="translate(68.603516 0)"/>
       <use xlink:href="#DejaVuSans-61" transform="translate(96.386719 0)"/>
       <use xlink:href="#DejaVuSans-6e" transform="translate(157.666016 0)"/>
       <use xlink:href="#DejaVuSans-63" transform="translate(221.044922 0)"/>
       <use xlink:href="#DejaVuSans-6f" transform="translate(276.025391 0)"/>
       <use xlink:href="#DejaVuSans-20" transform="translate(337.207031 0)"/>
       <use xlink:href="#DejaVuSans-54" transform="translate(368.994141 0)"/>
       <use xlink:href="#DejaVuSans-58" transform="translate(430.078125 0)"/>
      </g>
     </g>
    </g>
    <g id="xtick_17">
     <g id="line2d_17">
      <g>
       <use xlink:href="#m8894d73716" x="862.674486" y="614.86" style="stroke: #000000; stroke-width: 0.8"/>
      </g>
     </g>
     <g id="text_17">
      <!-- Volusia FL -->
      <g transform="translate(865.433861 671.777187) rotate(-90) scale(0.1 -0.1)">
       <defs>
        <path id="DejaVuSans-56" d="M 1831 0 
L 50 4666 
L 709 4666 
L 2188 738 
L 3669 4666 
L 4325 4666 
L 2547 0 
L 1831 0 
z
" transform="scale(0.015625)"/>
       </defs>
       <use xlink:href="#DejaVuSans-56"/>
       <use xlink:href="#DejaVuSans-6f" transform="translate(60.658203 0)"/>
       <use xlink:href="#DejaVuSans-6c" transform="translate(121.839844 0)"/>
       <use xlink:href="#DejaVuSans-75" transform="translate(149.623047 0)"/>
       <use xlink:href="#DejaVuSans-73" transform="translate(213.001953 0)"/>
       <use xlink:href="#DejaVuSans-69" transform="translate(265.101562 0)"/>
       <use xlink:href="#DejaVuSans-61" transform="translate(292.884766 0)"/>
       <use xlink:href="#DejaVuSans-20" transform="translate(354.164062 0)"/>
       <use xlink:href="#DejaVuSans-46" transform="translate(385.951172 0)"/>
       <use xlink:href="#DejaVuSans-4c" transform="translate(443.470703 0)"/>
      </g>
     </g>
    </g>
    <g id="xtick_18">
     <g id="line2d_18">
      <g>
       <use xlink:href="#m8894d73716" x="909.719022" y="614.86" style="stroke: #000000; stroke-width: 0.8"/>
      </g>
     </g>
     <g id="text_18">
      <!-- Erath TX -->
      <g transform="translate(912.478397 664.811563) rotate(-90) scale(0.1 -0.1)">
       <defs>
        <path id="DejaVuSans-45" d="M 628 4666 
L 3578 4666 
L 3578 4134 
L 1259 4134 
L 1259 2753 
L 3481 2753 
L 3481 2222 
L 1259 2222 
L 1259 531 
L 3634 531 
L 3634 0 
L 628 0 
L 628 4666 
z
" transform="scale(0.015625)"/>
       </defs>
       <use xlink:href="#DejaVuSans-45"/>
       <use xlink:href="#DejaVuSans-72" transform="translate(63.183594 0)"/>
       <use xlink:href="#DejaVuSans-61" transform="translate(104.296875 0)"/>
       <use xlink:href="#DejaVuSans-74" transform="translate(165.576172 0)"/>
       <use xlink:href="#DejaVuSans-68" transform="translate(204.785156 0)"/>
       <use xlink:href="#DejaVuSans-20" transform="translate(268.164062 0)"/>
       <use xlink:href="#DejaVuSans-54" transform="translate(299.951172 0)"/>
       <use xlink:href="#DejaVuSans-58" transform="translate(361.035156 0)"/>
      </g>
     </g>
    </g>
    <g id="xtick_19">
     <g id="line2d_19">
      <g>
       <use xlink:href="#m8894d73716" x="956.763558" y="614.86" style="stroke: #000000; stroke-width: 0.8"/>
      </g>
     </g>
     <g id="text_19">
      <!-- Queens NY -->
      <g transform="translate(959.522933 676.689687) rotate(-90) scale(0.1 -0.1)">
       <defs>
        <path id="DejaVuSans-51" d="M 2522 4238 
Q 1834 4238 1429 3725 
Q 1025 3213 1025 2328 
Q 1025 1447 1429 934 
Q 1834 422 2522 422 
Q 3209 422 3611 934 
Q 4013 1447 4013 2328 
Q 4013 3213 3611 3725 
Q 3209 4238 2522 4238 
z
M 3406 84 
L 4238 -825 
L 3475 -825 
L 2784 -78 
Q 2681 -84 2626 -87 
Q 2572 -91 2522 -91 
Q 1538 -91 948 567 
Q 359 1225 359 2328 
Q 359 3434 948 4092 
Q 1538 4750 2522 4750 
Q 3503 4750 4090 4092 
Q 4678 3434 4678 2328 
Q 4678 1516 4351 937 
Q 4025 359 3406 84 
z
" transform="scale(0.015625)"/>
        <path id="DejaVuSans-59" d="M -13 4666 
L 666 4666 
L 1959 2747 
L 3244 4666 
L 3922 4666 
L 2272 2222 
L 2272 0 
L 1638 0 
L 1638 2222 
L -13 4666 
z
" transform="scale(0.015625)"/>
       </defs>
       <use xlink:href="#DejaVuSans-51"/>
       <use xlink:href="#DejaVuSans-75" transform="translate(78.710938 0)"/>
       <use xlink:href="#DejaVuSans-65" transform="translate(142.089844 0)"/>
       <use xlink:href="#DejaVuSans-65" transform="translate(203.613281 0)"/>
       <use xlink:href="#DejaVuSans-6e" transform="translate(265.136719 0)"/>
       <use xlink:href="#DejaVuSans-73" transform="translate(328.515625 0)"/>
       <use xlink:href="#DejaVuSans-20" transform="translate(380.615234 0)"/>
       <use xlink:href="#DejaVuSans-4e" transform="translate(412.402344 0)"/>
       <use xlink:href="#DejaVuSans-59" transform="translate(487.207031 0)"/>
      </g>
     </g>
    </g>
    <g id="xtick_20">
     <g id="line2d_20">
      <g>
       <use xlink:href="#m8894d73716" x="1003.808095" y="614.86" style="stroke: #000000; stroke-width: 0.8"/>
      </g>
     </g>
     <g id="text_20">
      <!-- Caroline VA -->
      <g transform="translate(1006.56747 679.244375) rotate(-90) scale(0.1 -0.1)">
       <use xlink:href="#DejaVuSans-43"/>
       <use xlink:href="#DejaVuSans-61" transform="translate(69.824219 0)"/>
       <use xlink:href="#DejaVuSans-72" transform="translate(131.103516 0)"/>
       <use xlink:href="#DejaVuSans-6f" transform="translate(169.966797 0)"/>
       <use xlink:href="#DejaVuSans-6c" transform="translate(231.148438 0)"/>
       <use xlink:href="#DejaVuSans-69" transform="translate(258.931641 0)"/>
       <use xlink:href="#DejaVuSans-6e" transform="translate(286.714844 0)"/>
       <use xlink:href="#DejaVuSans-65" transform="translate(350.09375 0)"/>
       <use xlink:href="#DejaVuSans-20" transform="translate(411.617188 0)"/>
       <use xlink:href="#DejaVuSans-56" transform="translate(443.404297 0)"/>
       <use xlink:href="#DejaVuSans-41" transform="translate(505.4375 0)"/>
      </g>
     </g>
    </g>
    <g id="text_21">
     <!-- County -->
     <g transform="translate(539.077188 706.775625) scale(0.1 -0.1)">
      <use xlink:href="#DejaVuSans-43"/>
      <use xlink:href="#DejaVuSans-6f" transform="translate(69.824219 0)"/>
      <use xlink:href="#DejaVuSans-75" transform="translate(131.005859 0)"/>
      <use xlink:href="#DejaVuSans-6e" transform="translate(194.384766 0)"/>
      <use xlink:href="#DejaVuSans-74" transform="translate(257.763672 0)"/>
      <use xlink:href="#DejaVuSans-79" transform="translate(296.972656 0)"/>
     </g>
    </g>
   </g>
   <g id="matplotlib.axis_2">
    <g id="ytick_1">
     <g id="line2d_21">
      <defs>
       <path id="mfac85ba6c6" d="M 0 0 
L -3.5 0 
" style="stroke: #000000; stroke-width: 0.8"/>
      </defs>
      <g>
       <use xlink:href="#mfac85ba6c6" x="44.57" y="614.86" style="stroke: #000000; stroke-width: 0.8"/>
      </g>
     </g>
     <g id="text_22">
      <!-- 0 -->
      <g transform="translate(31.2075 618.659219) scale(0.1 -0.1)">
       <defs>
        <path id="DejaVuSans-30" d="M 2034 4250 
Q 1547 4250 1301 3770 
Q 1056 3291 1056 2328 
Q 1056 1369 1301 889 
Q 1547 409 2034 409 
Q 2525 409 2770 889 
Q 3016 1369 3016 2328 
Q 3016 3291 2770 3770 
Q 2525 4250 2034 4250 
z
M 2034 4750 
Q 2819 4750 3233 4129 
Q 3647 3509 3647 2328 
Q 3647 1150 3233 529 
Q 2819 -91 2034 -91 
Q 1250 -91 836 529 
Q 422 1150 422 2328 
Q 422 3509 836 4129 
Q 1250 4750 2034 4750 
z
" transform="scale(0.015625)"/>
       </defs>
       <use xlink:href="#DejaVuSans-30"/>
      </g>
     </g>
    </g>
    <g id="ytick_2">
     <g id="line2d_22">
      <g>
       <use xlink:href="#mfac85ba6c6" x="44.57" y="514.475288" style="stroke: #000000; stroke-width: 0.8"/>
      </g>
     </g>
     <g id="text_23">
      <!-- 5 -->
      <g transform="translate(31.2075 518.274507) scale(0.1 -0.1)">
       <defs>
        <path id="DejaVuSans-35" d="M 691 4666 
L 3169 4666 
L 3169 4134 
L 1269 4134 
L 1269 2991 
Q 1406 3038 1543 3061 
Q 1681 3084 1819 3084 
Q 2600 3084 3056 2656 
Q 3513 2228 3513 1497 
Q 3513 744 3044 326 
Q 2575 -91 1722 -91 
Q 1428 -91 1123 -41 
Q 819 9 494 109 
L 494 744 
Q 775 591 1075 516 
Q 1375 441 1709 441 
Q 2250 441 2565 725 
Q 2881 1009 2881 1497 
Q 2881 1984 2565 2268 
Q 2250 2553 1709 2553 
Q 1456 2553 1204 2497 
Q 953 2441 691 2322 
L 691 4666 
z
" transform="scale(0.015625)"/>
       </defs>
       <use xlink:href="#DejaVuSans-35"/>
      </g>
     </g>
    </g>
    <g id="ytick_3">
     <g id="line2d_23">
      <g>
       <use xlink:href="#mfac85ba6c6" x="44.57" y="414.090576" style="stroke: #000000; stroke-width: 0.8"/>
      </g>
     </g>
     <g id="text_24">
      <!-- 10 -->
      <g transform="translate(24.845 417.889795) scale(0.1 -0.1)">
       <defs>
        <path id="DejaVuSans-31" d="M 794 531 
L 1825 531 
L 1825 4091 
L 703 3866 
L 703 4441 
L 1819 4666 
L 2450 4666 
L 2450 531 
L 3481 531 
L 3481 0 
L 794 0 
L 794 531 
z
" transform="scale(0.015625)"/>
       </defs>
       <use xlink:href="#DejaVuSans-31"/>
       <use xlink:href="#DejaVuSans-30" transform="translate(63.623047 0)"/>
      </g>
     </g>
    </g>
    <g id="ytick_4">
     <g id="line2d_24">
      <g>
       <use xlink:href="#mfac85ba6c6" x="44.57" y="313.705864" style="stroke: #000000; stroke-width: 0.8"/>
      </g>
     </g>
     <g id="text_25">
      <!-- 15 -->
      <g transform="translate(24.845 317.505082) scale(0.1 -0.1)">
       <use xlink:href="#DejaVuSans-31"/>
       <use xlink:href="#DejaVuSans-35" transform="translate(63.623047 0)"/>
      </g>
     </g>
    </g>
    <g id="ytick_5">
     <g id="line2d_25">
      <g>
       <use xlink:href="#mfac85ba6c6" x="44.57" y="213.321152" style="stroke: #000000; stroke-width: 0.8"/>
      </g>
     </g>
     <g id="text_26">
      <!-- 20 -->
      <g transform="translate(24.845 217.12037) scale(0.1 -0.1)">
       <defs>
        <path id="DejaVuSans-32" d="M 1228 531 
L 3431 531 
L 3431 0 
L 469 0 
L 469 531 
Q 828 903 1448 1529 
Q 2069 2156 2228 2338 
Q 2531 2678 2651 2914 
Q 2772 3150 2772 3378 
Q 2772 3750 2511 3984 
Q 2250 4219 1831 4219 
Q 1534 4219 1204 4116 
Q 875 4013 500 3803 
L 500 4441 
Q 881 4594 1212 4672 
Q 1544 4750 1819 4750 
Q 2544 4750 2975 4387 
Q 3406 4025 3406 3419 
Q 3406 3131 3298 2873 
Q 3191 2616 2906 2266 
Q 2828 2175 2409 1742 
Q 1991 1309 1228 531 
z
" transform="scale(0.015625)"/>
       </defs>
       <use xlink:href="#DejaVuSans-32"/>
       <use xlink:href="#DejaVuSans-30" transform="translate(63.623047 0)"/>
      </g>
     </g>
    </g>
    <g id="ytick_6">
     <g id="line2d_26">
      <g>
       <use xlink:href="#mfac85ba6c6" x="44.57" y="112.93644" style="stroke: #000000; stroke-width: 0.8"/>
      </g>
     </g>
     <g id="text_27">
      <!-- 25 -->
      <g transform="translate(24.845 116.735658) scale(0.1 -0.1)">
       <use xlink:href="#DejaVuSans-32"/>
       <use xlink:href="#DejaVuSans-35" transform="translate(63.623047 0)"/>
      </g>
     </g>
    </g>
    <g id="text_28">
     <!-- Percentage Change in Household Count -->
     <g transform="translate(18.765312 420.359844) rotate(-90) scale(0.1 -0.1)">
      <defs>
       <path id="DejaVuSans-67" d="M 2906 1791 
Q 2906 2416 2648 2759 
Q 2391 3103 1925 3103 
Q 1463 3103 1205 2759 
Q 947 2416 947 1791 
Q 947 1169 1205 825 
Q 1463 481 1925 481 
Q 2391 481 2648 825 
Q 2906 1169 2906 1791 
z
M 3481 434 
Q 3481 -459 3084 -895 
Q 2688 -1331 1869 -1331 
Q 1566 -1331 1297 -1286 
Q 1028 -1241 775 -1147 
L 775 -588 
Q 1028 -725 1275 -790 
Q 1522 -856 1778 -856 
Q 2344 -856 2625 -561 
Q 2906 -266 2906 331 
L 2906 616 
Q 2728 306 2450 153 
Q 2172 0 1784 0 
Q 1141 0 747 490 
Q 353 981 353 1791 
Q 353 2603 747 3093 
Q 1141 3584 1784 3584 
Q 2172 3584 2450 3431 
Q 2728 3278 2906 2969 
L 2906 3500 
L 3481 3500 
L 3481 434 
z
" transform="scale(0.015625)"/>
      </defs>
      <use xlink:href="#DejaVuSans-50"/>
      <use xlink:href="#DejaVuSans-65" transform="translate(56.677734 0)"/>
      <use xlink:href="#DejaVuSans-72" transform="translate(118.201172 0)"/>
      <use xlink:href="#DejaVuSans-63" transform="translate(157.064453 0)"/>
      <use xlink:href="#DejaVuSans-65" transform="translate(212.044922 0)"/>
      <use xlink:href="#DejaVuSans-6e" transform="translate(273.568359 0)"/>
      <use xlink:href="#DejaVuSans-74" transform="translate(336.947266 0)"/>
      <use xlink:href="#DejaVuSans-61" transform="translate(376.15625 0)"/>
      <use xlink:href="#DejaVuSans-67" transform="translate(437.435547 0)"/>
      <use xlink:href="#DejaVuSans-65" transform="translate(500.912109 0)"/>
      <use xlink:href="#DejaVuSans-20" transform="translate(562.435547 0)"/>
      <use xlink:href="#DejaVuSans-43" transform="translate(594.222656 0)"/>
      <use xlink:href="#DejaVuSans-68" transform="translate(664.046875 0)"/>
      <use xlink:href="#DejaVuSans-61" transform="translate(727.425781 0)"/>
      <use xlink:href="#DejaVuSans-6e" transform="translate(788.705078 0)"/>
      <use xlink:href="#DejaVuSans-67" transform="translate(852.083984 0)"/>
      <use xlink:href="#DejaVuSans-65" transform="translate(915.560547 0)"/>
      <use xlink:href="#DejaVuSans-20" transform="translate(977.083984 0)"/>
      <use xlink:href="#DejaVuSans-69" transform="translate(1008.871094 0)"/>
      <use xlink:href="#DejaVuSans-6e" transform="translate(1036.654297 0)"/>
      <use xlink:href="#DejaVuSans-20" transform="translate(1100.033203 0)"/>
      <use xlink:href="#DejaVuSans-48" transform="translate(1131.820312 0)"/>
      <use xlink:href="#DejaVuSans-6f" transform="translate(1207.015625 0)"/>
      <use xlink:href="#DejaVuSans-75" transform="translate(1268.197266 0)"/>
      <use xlink:href="#DejaVuSans-73" transform="translate(1331.576172 0)"/>
      <use xlink:href="#DejaVuSans-65" transform="translate(1383.675781 0)"/>
      <use xlink:href="#DejaVuSans-68" transform="translate(1445.199219 0)"/>
      <use xlink:href="#DejaVuSans-6f" transform="translate(1508.578125 0)"/>
      <use xlink:href="#DejaVuSans-6c" transform="translate(1569.759766 0)"/>
      <use xlink:href="#DejaVuSans-64" transform="translate(1597.542969 0)"/>
      <use xlink:href="#DejaVuSans-20" transform="translate(1661.019531 0)"/>
      <use xlink:href="#DejaVuSans-43" transform="translate(1692.806641 0)"/>
      <use xlink:href="#DejaVuSans-6f" transform="translate(1762.630859 0)"/>
      <use xlink:href="#DejaVuSans-75" transform="translate(1823.8125 0)"/>
      <use xlink:href="#DejaVuSans-6e" transform="translate(1887.191406 0)"/>
      <use xlink:href="#DejaVuSans-74" transform="translate(1950.570312 0)"/>
     </g>
    </g>
   </g>
   <g id="patch_23">
    <path d="M 44.57 614.86 
L 44.57 26.88 
" style="fill: none; stroke: #000000; stroke-width: 0.8; stroke-linejoin: miter; stroke-linecap: square"/>
   </g>
   <g id="patch_24">
    <path d="M 1069.2 614.86 
L 1069.2 26.88 
" style="fill: none; stroke: #000000; stroke-width: 0.8; stroke-linejoin: miter; stroke-linecap: square"/>
   </g>
   <g id="patch_25">
    <path d="M 44.57 614.86 
L 1069.2 614.86 
" style="fill: none; stroke: #000000; stroke-width: 0.8; stroke-linejoin: miter; stroke-linecap: square"/>
   </g>
   <g id="patch_26">
    <path d="M 44.57 26.88 
L 1069.2 26.88 
" style="fill: none; stroke: #000000; stroke-width: 0.8; stroke-linejoin: miter; stroke-linecap: square"/>
   </g>
   <g id="text_29">
    <!-- Top 20 Counties with the Highest Percentage Change in Household Count from 2019 to 2021 -->
    <g transform="translate(278.307813 20.88) scale(0.12 -0.12)">
     <defs>
      <path id="DejaVuSans-66" d="M 2375 4863 
L 2375 4384 
L 1825 4384 
Q 1516 4384 1395 4259 
Q 1275 4134 1275 3809 
L 1275 3500 
L 2222 3500 
L 2222 3053 
L 1275 3053 
L 1275 0 
L 697 0 
L 697 3053 
L 147 3053 
L 147 3500 
L 697 3500 
L 697 3744 
Q 697 4328 969 4595 
Q 1241 4863 1831 4863 
L 2375 4863 
z
" transform="scale(0.015625)"/>
      <path id="DejaVuSans-6d" d="M 3328 2828 
Q 3544 3216 3844 3400 
Q 4144 3584 4550 3584 
Q 5097 3584 5394 3201 
Q 5691 2819 5691 2113 
L 5691 0 
L 5113 0 
L 5113 2094 
Q 5113 2597 4934 2840 
Q 4756 3084 4391 3084 
Q 3944 3084 3684 2787 
Q 3425 2491 3425 1978 
L 3425 0 
L 2847 0 
L 2847 2094 
Q 2847 2600 2669 2842 
Q 2491 3084 2119 3084 
Q 1678 3084 1418 2786 
Q 1159 2488 1159 1978 
L 1159 0 
L 581 0 
L 581 3500 
L 1159 3500 
L 1159 2956 
Q 1356 3278 1631 3431 
Q 1906 3584 2284 3584 
Q 2666 3584 2933 3390 
Q 3200 3197 3328 2828 
z
" transform="scale(0.015625)"/>
      <path id="DejaVuSans-39" d="M 703 97 
L 703 672 
Q 941 559 1184 500 
Q 1428 441 1663 441 
Q 2288 441 2617 861 
Q 2947 1281 2994 2138 
Q 2813 1869 2534 1725 
Q 2256 1581 1919 1581 
Q 1219 1581 811 2004 
Q 403 2428 403 3163 
Q 403 3881 828 4315 
Q 1253 4750 1959 4750 
Q 2769 4750 3195 4129 
Q 3622 3509 3622 2328 
Q 3622 1225 3098 567 
Q 2575 -91 1691 -91 
Q 1453 -91 1209 -44 
Q 966 3 703 97 
z
M 1959 2075 
Q 2384 2075 2632 2365 
Q 2881 2656 2881 3163 
Q 2881 3666 2632 3958 
Q 2384 4250 1959 4250 
Q 1534 4250 1286 3958 
Q 1038 3666 1038 3163 
Q 1038 2656 1286 2365 
Q 1534 2075 1959 2075 
z
" transform="scale(0.015625)"/>
     </defs>
     <use xlink:href="#DejaVuSans-54"/>
     <use xlink:href="#DejaVuSans-6f" transform="translate(44.083984 0)"/>
     <use xlink:href="#DejaVuSans-70" transform="translate(105.265625 0)"/>
     <use xlink:href="#DejaVuSans-20" transform="translate(168.742188 0)"/>
     <use xlink:href="#DejaVuSans-32" transform="translate(200.529297 0)"/>
     <use xlink:href="#DejaVuSans-30" transform="translate(264.152344 0)"/>
     <use xlink:href="#DejaVuSans-20" transform="translate(327.775391 0)"/>
     <use xlink:href="#DejaVuSans-43" transform="translate(359.5625 0)"/>
     <use xlink:href="#DejaVuSans-6f" transform="translate(429.386719 0)"/>
     <use xlink:href="#DejaVuSans-75" transform="translate(490.568359 0)"/>
     <use xlink:href="#DejaVuSans-6e" transform="translate(553.947266 0)"/>
     <use xlink:href="#DejaVuSans-74" transform="translate(617.326172 0)"/>
     <use xlink:href="#DejaVuSans-69" transform="translate(656.535156 0)"/>
     <use xlink:href="#DejaVuSans-65" transform="translate(684.318359 0)"/>
     <use xlink:href="#DejaVuSans-73" transform="translate(745.841797 0)"/>
     <use xlink:href="#DejaVuSans-20" transform="translate(797.941406 0)"/>
     <use xlink:href="#DejaVuSans-77" transform="translate(829.728516 0)"/>
     <use xlink:href="#DejaVuSans-69" transform="translate(911.515625 0)"/>
     <use xlink:href="#DejaVuSans-74" transform="translate(939.298828 0)"/>
     <use xlink:href="#DejaVuSans-68" transform="translate(978.507812 0)"/>
     <use xlink:href="#DejaVuSans-20" transform="translate(1041.886719 0)"/>
     <use xlink:href="#DejaVuSans-74" transform="translate(1073.673828 0)"/>
     <use xlink:href="#DejaVuSans-68" transform="translate(1112.882812 0)"/>
     <use xlink:href="#DejaVuSans-65" transform="translate(1176.261719 0)"/>
     <use xlink:href="#DejaVuSans-20" transform="translate(1237.785156 0)"/>
     <use xlink:href="#DejaVuSans-48" transform="translate(1269.572266 0)"/>
     <use xlink:href="#DejaVuSans-69" transform="translate(1344.767578 0)"/>
     <use xlink:href="#DejaVuSans-67" transform="translate(1372.550781 0)"/>
     <use xlink:href="#DejaVuSans-68" transform="translate(1436.027344 0)"/>
     <use xlink:href="#DejaVuSans-65" transform="translate(1499.40625 0)"/>
     <use xlink:href="#DejaVuSans-73" transform="translate(1560.929688 0)"/>
     <use xlink:href="#DejaVuSans-74" transform="translate(1613.029297 0)"/>
     <use xlink:href="#DejaVuSans-20" transform="translate(1652.238281 0)"/>
     <use xlink:href="#DejaVuSans-50" transform="translate(1684.025391 0)"/>
     <use xlink:href="#DejaVuSans-65" transform="translate(1740.703125 0)"/>
     <use xlink:href="#DejaVuSans-72" transform="translate(1802.226562 0)"/>
     <use xlink:href="#DejaVuSans-63" transform="translate(1841.089844 0)"/>
     <use xlink:href="#DejaVuSans-65" transform="translate(1896.070312 0)"/>
     <use xlink:href="#DejaVuSans-6e" transform="translate(1957.59375 0)"/>
     <use xlink:href="#DejaVuSans-74" transform="translate(2020.972656 0)"/>
     <use xlink:href="#DejaVuSans-61" transform="translate(2060.181641 0)"/>
     <use xlink:href="#DejaVuSans-67" transform="translate(2121.460938 0)"/>
     <use xlink:href="#DejaVuSans-65" transform="translate(2184.9375 0)"/>
     <use xlink:href="#DejaVuSans-20" transform="translate(2246.460938 0)"/>
     <use xlink:href="#DejaVuSans-43" transform="translate(2278.248047 0)"/>
     <use xlink:href="#DejaVuSans-68" transform="translate(2348.072266 0)"/>
     <use xlink:href="#DejaVuSans-61" transform="translate(2411.451172 0)"/>
     <use xlink:href="#DejaVuSans-6e" transform="translate(2472.730469 0)"/>
     <use xlink:href="#DejaVuSans-67" transform="translate(2536.109375 0)"/>
     <use xlink:href="#DejaVuSans-65" transform="translate(2599.585938 0)"/>
     <use xlink:href="#DejaVuSans-20" transform="translate(2661.109375 0)"/>
     <use xlink:href="#DejaVuSans-69" transform="translate(2692.896484 0)"/>
     <use xlink:href="#DejaVuSans-6e" transform="translate(2720.679688 0)"/>
     <use xlink:href="#DejaVuSans-20" transform="translate(2784.058594 0)"/>
     <use xlink:href="#DejaVuSans-48" transform="translate(2815.845703 0)"/>
     <use xlink:href="#DejaVuSans-6f" transform="translate(2891.041016 0)"/>
     <use xlink:href="#DejaVuSans-75" transform="translate(2952.222656 0)"/>
     <use xlink:href="#DejaVuSans-73" transform="translate(3015.601562 0)"/>
     <use xlink:href="#DejaVuSans-65" transform="translate(3067.701172 0)"/>
     <use xlink:href="#DejaVuSans-68" transform="translate(3129.224609 0)"/>
     <use xlink:href="#DejaVuSans-6f" transform="translate(3192.603516 0)"/>
     <use xlink:href="#DejaVuSans-6c" transform="translate(3253.785156 0)"/>
     <use xlink:href="#DejaVuSans-64" transform="translate(3281.568359 0)"/>
     <use xlink:href="#DejaVuSans-20" transform="translate(3345.044922 0)"/>
     <use xlink:href="#DejaVuSans-43" transform="translate(3376.832031 0)"/>
     <use xlink:href="#DejaVuSans-6f" transform="translate(3446.65625 0)"/>
     <use xlink:href="#DejaVuSans-75" transform="translate(3507.837891 0)"/>
     <use xlink:href="#DejaVuSans-6e" transform="translate(3571.216797 0)"/>
     <use xlink:href="#DejaVuSans-74" transform="translate(3634.595703 0)"/>
     <use xlink:href="#DejaVuSans-20" transform="translate(3673.804688 0)"/>
     <use xlink:href="#DejaVuSans-66" transform="translate(3705.591797 0)"/>
     <use xlink:href="#DejaVuSans-72" transform="translate(3740.796875 0)"/>
     <use xlink:href="#DejaVuSans-6f" transform="translate(3779.660156 0)"/>
     <use xlink:href="#DejaVuSans-6d" transform="translate(3840.841797 0)"/>
     <use xlink:href="#DejaVuSans-20" transform="translate(3938.253906 0)"/>
     <use xlink:href="#DejaVuSans-32" transform="translate(3970.041016 0)"/>
     <use xlink:href="#DejaVuSans-30" transform="translate(4033.664062 0)"/>
     <use xlink:href="#DejaVuSans-31" transform="translate(4097.287109 0)"/>
     <use xlink:href="#DejaVuSans-39" transform="translate(4160.910156 0)"/>
     <use xlink:href="#DejaVuSans-20" transform="translate(4224.533203 0)"/>
     <use xlink:href="#DejaVuSans-74" transform="translate(4256.320312 0)"/>
     <use xlink:href="#DejaVuSans-6f" transform="translate(4295.529297 0)"/>
     <use xlink:href="#DejaVuSans-20" transform="translate(4356.710938 0)"/>
     <use xlink:href="#DejaVuSans-32" transform="translate(4388.498047 0)"/>
     <use xlink:href="#DejaVuSans-30" transform="translate(4452.121094 0)"/>
     <use xlink:href="#DejaVuSans-32" transform="translate(4515.744141 0)"/>
     <use xlink:href="#DejaVuSans-31" transform="translate(4579.367188 0)"/>
    </g>
   </g>
  </g>
 </g>
 <defs>
  <clipPath id="pb4bc1cefa6">
   <rect x="44.57" y="26.88" width="1024.63" height="587.98"/>
  </clipPath>
 </defs>
</svg>
