<?xml version="1.0" encoding="utf-8" standalone="no"?>
<!DOCTYPE svg PUBLIC "-//W3C//DTD SVG 1.1//EN"
  "http://www.w3.org/Graphics/SVG/1.1/DTD/svg11.dtd">
<svg xmlns:xlink="http://www.w3.org/1999/xlink" width="1080pt" height="720pt" viewBox="0 0 1080 720" xmlns="http://www.w3.org/2000/svg" version="1.1">
 <metadata>
  <rdf:RDF xmlns:dc="http://purl.org/dc/elements/1.1/" xmlns:cc="http://creativecommons.org/ns#" xmlns:rdf="http://www.w3.org/1999/02/22-rdf-syntax-ns#">
   <cc:Work>
    <dc:type rdf:resource="http://purl.org/dc/dcmitype/StillImage"/>
    <dc:date>2025-02-10T22:53:41.165441</dc:date>
    <dc:format>image/svg+xml</dc:format>
    <dc:creator>
     <cc:Agent>
      <dc:title>Matplotlib v3.10.0, https://matplotlib.org/</dc:title>
     </cc:Agent>
    </dc:creator>
   </cc:Work>
  </rdf:RDF>
 </metadata>
 <defs>
  <style type="text/css">*{stroke-linejoin: round; stroke-linecap: butt}</style>
 </defs>
 <g id="figure_1">
  <g id="patch_1">
   <path d="M 0 720 
L 1080 720 
L 1080 0 
L 0 0 
z
" style="fill: #ffffff"/>
  </g>
  <g id="axes_1">
   <g id="patch_2">
    <path d="M 44.57 605.77 
L 1069.2 605.77 
L 1069.2 26.88 
L 44.57 26.88 
z
" style="fill: #ffffff"/>
   </g>
   <g id="patch_3">
    <path d="M 91.144091 605.77 
L 128.77972 605.77 
L 128.77972 54.44619 
L 91.144091 54.44619 
z
" clip-path="url(#p1c972c0bbc)" style="fill: #1f77b4"/>
   </g>
   <g id="patch_4">
    <path d="M 138.188627 605.77 
L 175.824256 605.77 
L 175.824256 205.241617 
L 138.188627 205.241617 
z
" clip-path="url(#p1c972c0bbc)" style="fill: #1f77b4"/>
   </g>
   <g id="patch_5">
    <path d="M 185.233163 605.77 
L 222.868792 605.77 
L 222.868792 387.782012 
L 185.233163 387.782012 
z
" clip-path="url(#p1c972c0bbc)" style="fill: #1f77b4"/>
   </g>
   <g id="patch_6">
    <path d="M 232.2777 605.77 
L 269.913329 605.77 
L 269.913329 410.158081 
L 232.2777 410.158081 
z
" clip-path="url(#p1c972c0bbc)" style="fill: #1f77b4"/>
   </g>
   <g id="patch_7">
    <path d="M 279.322236 605.77 
L 316.957865 605.77 
L 316.957865 475.484475 
L 279.322236 475.484475 
z
" clip-path="url(#p1c972c0bbc)" style="fill: #1f77b4"/>
   </g>
   <g id="patch_8">
    <path d="M 326.366772 605.77 
L 364.002401 605.77 
L 364.002401 482.684632 
L 326.366772 482.684632 
z
" clip-path="url(#p1c972c0bbc)" style="fill: #1f77b4"/>
   </g>
   <g id="patch_9">
    <path d="M 373.411309 605.77 
L 411.046938 605.77 
L 411.046938 486.186394 
L 373.411309 486.186394 
z
" clip-path="url(#p1c972c0bbc)" style="fill: #1f77b4"/>
   </g>
   <g id="patch_10">
    <path d="M 420.455845 605.77 
L 458.091474 605.77 
L 458.091474 488.864049 
L 420.455845 488.864049 
z
" clip-path="url(#p1c972c0bbc)" style="fill: #1f77b4"/>
   </g>
   <g id="patch_11">
    <path d="M 467.500381 605.77 
L 505.13601 605.77 
L 505.13601 497.698001 
L 467.500381 497.698001 
z
" clip-path="url(#p1c972c0bbc)" style="fill: #1f77b4"/>
   </g>
   <g id="patch_12">
    <path d="M 514.544917 605.77 
L 552.180546 605.77 
L 552.180546 511.394839 
L 514.544917 511.394839 
z
" clip-path="url(#p1c972c0bbc)" style="fill: #1f77b4"/>
   </g>
   <g id="patch_13">
    <path d="M 561.589454 605.77 
L 599.225083 605.77 
L 599.225083 515.183575 
L 561.589454 515.183575 
z
" clip-path="url(#p1c972c0bbc)" style="fill: #1f77b4"/>
   </g>
   <g id="patch_14">
    <path d="M 608.63399 605.77 
L 646.269619 605.77 
L 646.269619 515.899864 
L 608.63399 515.899864 
z
" clip-path="url(#p1c972c0bbc)" style="fill: #1f77b4"/>
   </g>
   <g id="patch_15">
    <path d="M 655.678526 605.77 
L 693.314155 605.77 
L 693.314155 522.833262 
L 655.678526 522.833262 
z
" clip-path="url(#p1c972c0bbc)" style="fill: #1f77b4"/>
   </g>
   <g id="patch_16">
    <path d="M 702.723062 605.77 
L 740.358691 605.77 
L 740.358691 524.344872 
L 702.723062 524.344872 
z
" clip-path="url(#p1c972c0bbc)" style="fill: #1f77b4"/>
   </g>
   <g id="patch_17">
    <path d="M 749.767599 605.77 
L 787.403228 605.77 
L 787.403228 533.007091 
L 749.767599 533.007091 
z
" clip-path="url(#p1c972c0bbc)" style="fill: #1f77b4"/>
   </g>
   <g id="patch_18">
    <path d="M 796.812135 605.77 
L 834.447764 605.77 
L 834.447764 533.590099 
L 796.812135 533.590099 
z
" clip-path="url(#p1c972c0bbc)" style="fill: #1f77b4"/>
   </g>
   <g id="patch_19">
    <path d="M 843.856671 605.77 
L 881.4923 605.77 
L 881.4923 536.234595 
L 843.856671 536.234595 
z
" clip-path="url(#p1c972c0bbc)" style="fill: #1f77b4"/>
   </g>
   <g id="patch_20">
    <path d="M 890.901208 605.77 
L 928.536837 605.77 
L 928.536837 543.936885 
L 890.901208 543.936885 
z
" clip-path="url(#p1c972c0bbc)" style="fill: #1f77b4"/>
   </g>
   <g id="patch_21">
    <path d="M 937.945744 605.77 
L 975.581373 605.77 
L 975.581373 547.264258 
L 937.945744 547.264258 
z
" clip-path="url(#p1c972c0bbc)" style="fill: #1f77b4"/>
   </g>
   <g id="patch_22">
    <path d="M 984.99028 605.77 
L 1022.625909 605.77 
L 1022.625909 547.300865 
L 984.99028 547.300865 
z
" clip-path="url(#p1c972c0bbc)" style="fill: #1f77b4"/>
   </g>
   <g id="matplotlib.axis_1">
    <g id="xtick_1">
     <g id="line2d_1">
      <defs>
       <path id="m2e2a95552e" d="M 0 0 
L 0 3.5 
" style="stroke: #000000; stroke-width: 0.8"/>
      </defs>
      <g>
       <use xlink:href="#m2e2a95552e" x="109.961905" y="605.77" style="stroke: #000000; stroke-width: 0.8"/>
      </g>
     </g>
     <g id="text_1">
      <!-- Arkansas AR -->
      <g transform="translate(112.72128 675.316875) rotate(-90) scale(0.1 -0.1)">
       <defs>
        <path id="DejaVuSans-41" d="M 2188 4044 
L 1331 1722 
L 3047 1722 
L 2188 4044 
z
M 1831 4666 
L 2547 4666 
L 4325 0 
L 3669 0 
L 3244 1197 
L 1141 1197 
L 716 0 
L 50 0 
L 1831 4666 
z
" transform="scale(0.015625)"/>
        <path id="DejaVuSans-72" d="M 2631 2963 
Q 2534 3019 2420 3045 
Q 2306 3072 2169 3072 
Q 1681 3072 1420 2755 
Q 1159 2438 1159 1844 
L 1159 0 
L 581 0 
L 581 3500 
L 1159 3500 
L 1159 2956 
Q 1341 3275 1631 3429 
Q 1922 3584 2338 3584 
Q 2397 3584 2469 3576 
Q 2541 3569 2628 3553 
L 2631 2963 
z
" transform="scale(0.015625)"/>
        <path id="DejaVuSans-6b" d="M 581 4863 
L 1159 4863 
L 1159 1991 
L 2875 3500 
L 3609 3500 
L 1753 1863 
L 3688 0 
L 2938 0 
L 1159 1709 
L 1159 0 
L 581 0 
L 581 4863 
z
" transform="scale(0.015625)"/>
        <path id="DejaVuSans-61" d="M 2194 1759 
Q 1497 1759 1228 1600 
Q 959 1441 959 1056 
Q 959 750 1161 570 
Q 1363 391 1709 391 
Q 2188 391 2477 730 
Q 2766 1069 2766 1631 
L 2766 1759 
L 2194 1759 
z
M 3341 1997 
L 3341 0 
L 2766 0 
L 2766 531 
Q 2569 213 2275 61 
Q 1981 -91 1556 -91 
Q 1019 -91 701 211 
Q 384 513 384 1019 
Q 384 1609 779 1909 
Q 1175 2209 1959 2209 
L 2766 2209 
L 2766 2266 
Q 2766 2663 2505 2880 
Q 2244 3097 1772 3097 
Q 1472 3097 1187 3025 
Q 903 2953 641 2809 
L 641 3341 
Q 956 3463 1253 3523 
Q 1550 3584 1831 3584 
Q 2591 3584 2966 3190 
Q 3341 2797 3341 1997 
z
" transform="scale(0.015625)"/>
        <path id="DejaVuSans-6e" d="M 3513 2113 
L 3513 0 
L 2938 0 
L 2938 2094 
Q 2938 2591 2744 2837 
Q 2550 3084 2163 3084 
Q 1697 3084 1428 2787 
Q 1159 2491 1159 1978 
L 1159 0 
L 581 0 
L 581 3500 
L 1159 3500 
L 1159 2956 
Q 1366 3272 1645 3428 
Q 1925 3584 2291 3584 
Q 2894 3584 3203 3211 
Q 3513 2838 3513 2113 
z
" transform="scale(0.015625)"/>
        <path id="DejaVuSans-73" d="M 2834 3397 
L 2834 2853 
Q 2591 2978 2328 3040 
Q 2066 3103 1784 3103 
Q 1356 3103 1142 2972 
Q 928 2841 928 2578 
Q 928 2378 1081 2264 
Q 1234 2150 1697 2047 
L 1894 2003 
Q 2506 1872 2764 1633 
Q 3022 1394 3022 966 
Q 3022 478 2636 193 
Q 2250 -91 1575 -91 
Q 1294 -91 989 -36 
Q 684 19 347 128 
L 347 722 
Q 666 556 975 473 
Q 1284 391 1588 391 
Q 1994 391 2212 530 
Q 2431 669 2431 922 
Q 2431 1156 2273 1281 
Q 2116 1406 1581 1522 
L 1381 1569 
Q 847 1681 609 1914 
Q 372 2147 372 2553 
Q 372 3047 722 3315 
Q 1072 3584 1716 3584 
Q 2034 3584 2315 3537 
Q 2597 3491 2834 3397 
z
" transform="scale(0.015625)"/>
        <path id="DejaVuSans-20" transform="scale(0.015625)"/>
        <path id="DejaVuSans-52" d="M 2841 2188 
Q 3044 2119 3236 1894 
Q 3428 1669 3622 1275 
L 4263 0 
L 3584 0 
L 2988 1197 
Q 2756 1666 2539 1819 
Q 2322 1972 1947 1972 
L 1259 1972 
L 1259 0 
L 628 0 
L 628 4666 
L 2053 4666 
Q 2853 4666 3247 4331 
Q 3641 3997 3641 3322 
Q 3641 2881 3436 2590 
Q 3231 2300 2841 2188 
z
M 1259 4147 
L 1259 2491 
L 2053 2491 
Q 2509 2491 2742 2702 
Q 2975 2913 2975 3322 
Q 2975 3731 2742 3939 
Q 2509 4147 2053 4147 
L 1259 4147 
z
" transform="scale(0.015625)"/>
       </defs>
       <use xlink:href="#DejaVuSans-41"/>
       <use xlink:href="#DejaVuSans-72" transform="translate(68.408203 0)"/>
       <use xlink:href="#DejaVuSans-6b" transform="translate(109.521484 0)"/>
       <use xlink:href="#DejaVuSans-61" transform="translate(165.681641 0)"/>
       <use xlink:href="#DejaVuSans-6e" transform="translate(226.960938 0)"/>
       <use xlink:href="#DejaVuSans-73" transform="translate(290.339844 0)"/>
       <use xlink:href="#DejaVuSans-61" transform="translate(342.439453 0)"/>
       <use xlink:href="#DejaVuSans-73" transform="translate(403.71875 0)"/>
       <use xlink:href="#DejaVuSans-20" transform="translate(455.818359 0)"/>
       <use xlink:href="#DejaVuSans-41" transform="translate(487.605469 0)"/>
       <use xlink:href="#DejaVuSans-52" transform="translate(556.013672 0)"/>
      </g>
     </g>
    </g>
    <g id="xtick_2">
     <g id="line2d_2">
      <g>
       <use xlink:href="#m2e2a95552e" x="157.006442" y="605.77" style="stroke: #000000; stroke-width: 0.8"/>
      </g>
     </g>
     <g id="text_2">
      <!-- Mobile AL -->
      <g transform="translate(159.765817 661.165312) rotate(-90) scale(0.1 -0.1)">
       <defs>
        <path id="DejaVuSans-4d" d="M 628 4666 
L 1569 4666 
L 2759 1491 
L 3956 4666 
L 4897 4666 
L 4897 0 
L 4281 0 
L 4281 4097 
L 3078 897 
L 2444 897 
L 1241 4097 
L 1241 0 
L 628 0 
L 628 4666 
z
" transform="scale(0.015625)"/>
        <path id="DejaVuSans-6f" d="M 1959 3097 
Q 1497 3097 1228 2736 
Q 959 2375 959 1747 
Q 959 1119 1226 758 
Q 1494 397 1959 397 
Q 2419 397 2687 759 
Q 2956 1122 2956 1747 
Q 2956 2369 2687 2733 
Q 2419 3097 1959 3097 
z
M 1959 3584 
Q 2709 3584 3137 3096 
Q 3566 2609 3566 1747 
Q 3566 888 3137 398 
Q 2709 -91 1959 -91 
Q 1206 -91 779 398 
Q 353 888 353 1747 
Q 353 2609 779 3096 
Q 1206 3584 1959 3584 
z
" transform="scale(0.015625)"/>
        <path id="DejaVuSans-62" d="M 3116 1747 
Q 3116 2381 2855 2742 
Q 2594 3103 2138 3103 
Q 1681 3103 1420 2742 
Q 1159 2381 1159 1747 
Q 1159 1113 1420 752 
Q 1681 391 2138 391 
Q 2594 391 2855 752 
Q 3116 1113 3116 1747 
z
M 1159 2969 
Q 1341 3281 1617 3432 
Q 1894 3584 2278 3584 
Q 2916 3584 3314 3078 
Q 3713 2572 3713 1747 
Q 3713 922 3314 415 
Q 2916 -91 2278 -91 
Q 1894 -91 1617 61 
Q 1341 213 1159 525 
L 1159 0 
L 581 0 
L 581 4863 
L 1159 4863 
L 1159 2969 
z
" transform="scale(0.015625)"/>
        <path id="DejaVuSans-69" d="M 603 3500 
L 1178 3500 
L 1178 0 
L 603 0 
L 603 3500 
z
M 603 4863 
L 1178 4863 
L 1178 4134 
L 603 4134 
L 603 4863 
z
" transform="scale(0.015625)"/>
        <path id="DejaVuSans-6c" d="M 603 4863 
L 1178 4863 
L 1178 0 
L 603 0 
L 603 4863 
z
" transform="scale(0.015625)"/>
        <path id="DejaVuSans-65" d="M 3597 1894 
L 3597 1613 
L 953 1613 
Q 991 1019 1311 708 
Q 1631 397 2203 397 
Q 2534 397 2845 478 
Q 3156 559 3463 722 
L 3463 178 
Q 3153 47 2828 -22 
Q 2503 -91 2169 -91 
Q 1331 -91 842 396 
Q 353 884 353 1716 
Q 353 2575 817 3079 
Q 1281 3584 2069 3584 
Q 2775 3584 3186 3129 
Q 3597 2675 3597 1894 
z
M 3022 2063 
Q 3016 2534 2758 2815 
Q 2500 3097 2075 3097 
Q 1594 3097 1305 2825 
Q 1016 2553 972 2059 
L 3022 2063 
z
" transform="scale(0.015625)"/>
        <path id="DejaVuSans-4c" d="M 628 4666 
L 1259 4666 
L 1259 531 
L 3531 531 
L 3531 0 
L 628 0 
L 628 4666 
z
" transform="scale(0.015625)"/>
       </defs>
       <use xlink:href="#DejaVuSans-4d"/>
       <use xlink:href="#DejaVuSans-6f" transform="translate(86.279297 0)"/>
       <use xlink:href="#DejaVuSans-62" transform="translate(147.460938 0)"/>
       <use xlink:href="#DejaVuSans-69" transform="translate(210.9375 0)"/>
       <use xlink:href="#DejaVuSans-6c" transform="translate(238.720703 0)"/>
       <use xlink:href="#DejaVuSans-65" transform="translate(266.503906 0)"/>
       <use xlink:href="#DejaVuSans-20" transform="translate(328.027344 0)"/>
       <use xlink:href="#DejaVuSans-41" transform="translate(359.814453 0)"/>
       <use xlink:href="#DejaVuSans-4c" transform="translate(428.222656 0)"/>
      </g>
     </g>
    </g>
    <g id="xtick_3">
     <g id="line2d_3">
      <g>
       <use xlink:href="#m2e2a95552e" x="204.050978" y="605.77" style="stroke: #000000; stroke-width: 0.8"/>
      </g>
     </g>
     <g id="text_3">
      <!-- Chase KS -->
      <g transform="translate(206.810353 659.665312) rotate(-90) scale(0.1 -0.1)">
       <defs>
        <path id="DejaVuSans-43" d="M 4122 4306 
L 4122 3641 
Q 3803 3938 3442 4084 
Q 3081 4231 2675 4231 
Q 1875 4231 1450 3742 
Q 1025 3253 1025 2328 
Q 1025 1406 1450 917 
Q 1875 428 2675 428 
Q 3081 428 3442 575 
Q 3803 722 4122 1019 
L 4122 359 
Q 3791 134 3420 21 
Q 3050 -91 2638 -91 
Q 1578 -91 968 557 
Q 359 1206 359 2328 
Q 359 3453 968 4101 
Q 1578 4750 2638 4750 
Q 3056 4750 3426 4639 
Q 3797 4528 4122 4306 
z
" transform="scale(0.015625)"/>
        <path id="DejaVuSans-68" d="M 3513 2113 
L 3513 0 
L 2938 0 
L 2938 2094 
Q 2938 2591 2744 2837 
Q 2550 3084 2163 3084 
Q 1697 3084 1428 2787 
Q 1159 2491 1159 1978 
L 1159 0 
L 581 0 
L 581 4863 
L 1159 4863 
L 1159 2956 
Q 1366 3272 1645 3428 
Q 1925 3584 2291 3584 
Q 2894 3584 3203 3211 
Q 3513 2838 3513 2113 
z
" transform="scale(0.015625)"/>
        <path id="DejaVuSans-4b" d="M 628 4666 
L 1259 4666 
L 1259 2694 
L 3353 4666 
L 4166 4666 
L 1850 2491 
L 4331 0 
L 3500 0 
L 1259 2247 
L 1259 0 
L 628 0 
L 628 4666 
z
" transform="scale(0.015625)"/>
        <path id="DejaVuSans-53" d="M 3425 4513 
L 3425 3897 
Q 3066 4069 2747 4153 
Q 2428 4238 2131 4238 
Q 1616 4238 1336 4038 
Q 1056 3838 1056 3469 
Q 1056 3159 1242 3001 
Q 1428 2844 1947 2747 
L 2328 2669 
Q 3034 2534 3370 2195 
Q 3706 1856 3706 1288 
Q 3706 609 3251 259 
Q 2797 -91 1919 -91 
Q 1588 -91 1214 -16 
Q 841 59 441 206 
L 441 856 
Q 825 641 1194 531 
Q 1563 422 1919 422 
Q 2459 422 2753 634 
Q 3047 847 3047 1241 
Q 3047 1584 2836 1778 
Q 2625 1972 2144 2069 
L 1759 2144 
Q 1053 2284 737 2584 
Q 422 2884 422 3419 
Q 422 4038 858 4394 
Q 1294 4750 2059 4750 
Q 2388 4750 2728 4690 
Q 3069 4631 3425 4513 
z
" transform="scale(0.015625)"/>
       </defs>
       <use xlink:href="#DejaVuSans-43"/>
       <use xlink:href="#DejaVuSans-68" transform="translate(69.824219 0)"/>
       <use xlink:href="#DejaVuSans-61" transform="translate(133.203125 0)"/>
       <use xlink:href="#DejaVuSans-73" transform="translate(194.482422 0)"/>
       <use xlink:href="#DejaVuSans-65" transform="translate(246.582031 0)"/>
       <use xlink:href="#DejaVuSans-20" transform="translate(308.105469 0)"/>
       <use xlink:href="#DejaVuSans-4b" transform="translate(339.892578 0)"/>
       <use xlink:href="#DejaVuSans-53" transform="translate(405.46875 0)"/>
      </g>
     </g>
    </g>
    <g id="xtick_4">
     <g id="line2d_4">
      <g>
       <use xlink:href="#m2e2a95552e" x="251.095514" y="605.77" style="stroke: #000000; stroke-width: 0.8"/>
      </g>
     </g>
     <g id="text_4">
      <!-- Shawnee KS -->
      <g transform="translate(253.854889 674.490312) rotate(-90) scale(0.1 -0.1)">
       <defs>
        <path id="DejaVuSans-77" d="M 269 3500 
L 844 3500 
L 1563 769 
L 2278 3500 
L 2956 3500 
L 3675 769 
L 4391 3500 
L 4966 3500 
L 4050 0 
L 3372 0 
L 2619 2869 
L 1863 0 
L 1184 0 
L 269 3500 
z
" transform="scale(0.015625)"/>
       </defs>
       <use xlink:href="#DejaVuSans-53"/>
       <use xlink:href="#DejaVuSans-68" transform="translate(63.476562 0)"/>
       <use xlink:href="#DejaVuSans-61" transform="translate(126.855469 0)"/>
       <use xlink:href="#DejaVuSans-77" transform="translate(188.134766 0)"/>
       <use xlink:href="#DejaVuSans-6e" transform="translate(269.921875 0)"/>
       <use xlink:href="#DejaVuSans-65" transform="translate(333.300781 0)"/>
       <use xlink:href="#DejaVuSans-65" transform="translate(394.824219 0)"/>
       <use xlink:href="#DejaVuSans-20" transform="translate(456.347656 0)"/>
       <use xlink:href="#DejaVuSans-4b" transform="translate(488.134766 0)"/>
       <use xlink:href="#DejaVuSans-53" transform="translate(553.710938 0)"/>
      </g>
     </g>
    </g>
    <g id="xtick_5">
     <g id="line2d_5">
      <g>
       <use xlink:href="#m2e2a95552e" x="298.140051" y="605.77" style="stroke: #000000; stroke-width: 0.8"/>
      </g>
     </g>
     <g id="text_5">
      <!-- Clay MO -->
      <g transform="translate(300.899426 654.255937) rotate(-90) scale(0.1 -0.1)">
       <defs>
        <path id="DejaVuSans-79" d="M 2059 -325 
Q 1816 -950 1584 -1140 
Q 1353 -1331 966 -1331 
L 506 -1331 
L 506 -850 
L 844 -850 
Q 1081 -850 1212 -737 
Q 1344 -625 1503 -206 
L 1606 56 
L 191 3500 
L 800 3500 
L 1894 763 
L 2988 3500 
L 3597 3500 
L 2059 -325 
z
" transform="scale(0.015625)"/>
        <path id="DejaVuSans-4f" d="M 2522 4238 
Q 1834 4238 1429 3725 
Q 1025 3213 1025 2328 
Q 1025 1447 1429 934 
Q 1834 422 2522 422 
Q 3209 422 3611 934 
Q 4013 1447 4013 2328 
Q 4013 3213 3611 3725 
Q 3209 4238 2522 4238 
z
M 2522 4750 
Q 3503 4750 4090 4092 
Q 4678 3434 4678 2328 
Q 4678 1225 4090 567 
Q 3503 -91 2522 -91 
Q 1538 -91 948 565 
Q 359 1222 359 2328 
Q 359 3434 948 4092 
Q 1538 4750 2522 4750 
z
" transform="scale(0.015625)"/>
       </defs>
       <use xlink:href="#DejaVuSans-43"/>
       <use xlink:href="#DejaVuSans-6c" transform="translate(69.824219 0)"/>
       <use xlink:href="#DejaVuSans-61" transform="translate(97.607422 0)"/>
       <use xlink:href="#DejaVuSans-79" transform="translate(158.886719 0)"/>
       <use xlink:href="#DejaVuSans-20" transform="translate(218.066406 0)"/>
       <use xlink:href="#DejaVuSans-4d" transform="translate(249.853516 0)"/>
       <use xlink:href="#DejaVuSans-4f" transform="translate(336.132812 0)"/>
      </g>
     </g>
    </g>
    <g id="xtick_6">
     <g id="line2d_6">
      <g>
       <use xlink:href="#m2e2a95552e" x="345.184587" y="605.77" style="stroke: #000000; stroke-width: 0.8"/>
      </g>
     </g>
     <g id="text_6">
      <!-- Contra Costa CA -->
      <g transform="translate(347.943962 694.9075) rotate(-90) scale(0.1 -0.1)">
       <defs>
        <path id="DejaVuSans-74" d="M 1172 4494 
L 1172 3500 
L 2356 3500 
L 2356 3053 
L 1172 3053 
L 1172 1153 
Q 1172 725 1289 603 
Q 1406 481 1766 481 
L 2356 481 
L 2356 0 
L 1766 0 
Q 1100 0 847 248 
Q 594 497 594 1153 
L 594 3053 
L 172 3053 
L 172 3500 
L 594 3500 
L 594 4494 
L 1172 4494 
z
" transform="scale(0.015625)"/>
       </defs>
       <use xlink:href="#DejaVuSans-43"/>
       <use xlink:href="#DejaVuSans-6f" transform="translate(69.824219 0)"/>
       <use xlink:href="#DejaVuSans-6e" transform="translate(131.005859 0)"/>
       <use xlink:href="#DejaVuSans-74" transform="translate(194.384766 0)"/>
       <use xlink:href="#DejaVuSans-72" transform="translate(233.59375 0)"/>
       <use xlink:href="#DejaVuSans-61" transform="translate(274.707031 0)"/>
       <use xlink:href="#DejaVuSans-20" transform="translate(335.986328 0)"/>
       <use xlink:href="#DejaVuSans-43" transform="translate(367.773438 0)"/>
       <use xlink:href="#DejaVuSans-6f" transform="translate(437.597656 0)"/>
       <use xlink:href="#DejaVuSans-73" transform="translate(498.779297 0)"/>
       <use xlink:href="#DejaVuSans-74" transform="translate(550.878906 0)"/>
       <use xlink:href="#DejaVuSans-61" transform="translate(590.087891 0)"/>
       <use xlink:href="#DejaVuSans-20" transform="translate(651.367188 0)"/>
       <use xlink:href="#DejaVuSans-43" transform="translate(683.154297 0)"/>
       <use xlink:href="#DejaVuSans-41" transform="translate(752.978516 0)"/>
      </g>
     </g>
    </g>
    <g id="xtick_7">
     <g id="line2d_7">
      <g>
       <use xlink:href="#m2e2a95552e" x="392.229123" y="605.77" style="stroke: #000000; stroke-width: 0.8"/>
      </g>
     </g>
     <g id="text_7">
      <!-- Cabarrus NC -->
      <g transform="translate(394.988498 675.593437) rotate(-90) scale(0.1 -0.1)">
       <defs>
        <path id="DejaVuSans-75" d="M 544 1381 
L 544 3500 
L 1119 3500 
L 1119 1403 
Q 1119 906 1312 657 
Q 1506 409 1894 409 
Q 2359 409 2629 706 
Q 2900 1003 2900 1516 
L 2900 3500 
L 3475 3500 
L 3475 0 
L 2900 0 
L 2900 538 
Q 2691 219 2414 64 
Q 2138 -91 1772 -91 
Q 1169 -91 856 284 
Q 544 659 544 1381 
z
M 1991 3584 
L 1991 3584 
z
" transform="scale(0.015625)"/>
        <path id="DejaVuSans-4e" d="M 628 4666 
L 1478 4666 
L 3547 763 
L 3547 4666 
L 4159 4666 
L 4159 0 
L 3309 0 
L 1241 3903 
L 1241 0 
L 628 0 
L 628 4666 
z
" transform="scale(0.015625)"/>
       </defs>
       <use xlink:href="#DejaVuSans-43"/>
       <use xlink:href="#DejaVuSans-61" transform="translate(69.824219 0)"/>
       <use xlink:href="#DejaVuSans-62" transform="translate(131.103516 0)"/>
       <use xlink:href="#DejaVuSans-61" transform="translate(194.580078 0)"/>
       <use xlink:href="#DejaVuSans-72" transform="translate(255.859375 0)"/>
       <use xlink:href="#DejaVuSans-72" transform="translate(295.222656 0)"/>
       <use xlink:href="#DejaVuSans-75" transform="translate(336.335938 0)"/>
       <use xlink:href="#DejaVuSans-73" transform="translate(399.714844 0)"/>
       <use xlink:href="#DejaVuSans-20" transform="translate(451.814453 0)"/>
       <use xlink:href="#DejaVuSans-4e" transform="translate(483.601562 0)"/>
       <use xlink:href="#DejaVuSans-43" transform="translate(558.40625 0)"/>
      </g>
     </g>
    </g>
    <g id="xtick_8">
     <g id="line2d_8">
      <g>
       <use xlink:href="#m2e2a95552e" x="439.273659" y="605.77" style="stroke: #000000; stroke-width: 0.8"/>
      </g>
     </g>
     <g id="text_8">
      <!-- Greene PA -->
      <g transform="translate(442.033034 664.612187) rotate(-90) scale(0.1 -0.1)">
       <defs>
        <path id="DejaVuSans-47" d="M 3809 666 
L 3809 1919 
L 2778 1919 
L 2778 2438 
L 4434 2438 
L 4434 434 
Q 4069 175 3628 42 
Q 3188 -91 2688 -91 
Q 1594 -91 976 548 
Q 359 1188 359 2328 
Q 359 3472 976 4111 
Q 1594 4750 2688 4750 
Q 3144 4750 3555 4637 
Q 3966 4525 4313 4306 
L 4313 3634 
Q 3963 3931 3569 4081 
Q 3175 4231 2741 4231 
Q 1884 4231 1454 3753 
Q 1025 3275 1025 2328 
Q 1025 1384 1454 906 
Q 1884 428 2741 428 
Q 3075 428 3337 486 
Q 3600 544 3809 666 
z
" transform="scale(0.015625)"/>
        <path id="DejaVuSans-50" d="M 1259 4147 
L 1259 2394 
L 2053 2394 
Q 2494 2394 2734 2622 
Q 2975 2850 2975 3272 
Q 2975 3691 2734 3919 
Q 2494 4147 2053 4147 
L 1259 4147 
z
M 628 4666 
L 2053 4666 
Q 2838 4666 3239 4311 
Q 3641 3956 3641 3272 
Q 3641 2581 3239 2228 
Q 2838 1875 2053 1875 
L 1259 1875 
L 1259 0 
L 628 0 
L 628 4666 
z
" transform="scale(0.015625)"/>
       </defs>
       <use xlink:href="#DejaVuSans-47"/>
       <use xlink:href="#DejaVuSans-72" transform="translate(77.490234 0)"/>
       <use xlink:href="#DejaVuSans-65" transform="translate(116.353516 0)"/>
       <use xlink:href="#DejaVuSans-65" transform="translate(177.876953 0)"/>
       <use xlink:href="#DejaVuSans-6e" transform="translate(239.400391 0)"/>
       <use xlink:href="#DejaVuSans-65" transform="translate(302.779297 0)"/>
       <use xlink:href="#DejaVuSans-20" transform="translate(364.302734 0)"/>
       <use xlink:href="#DejaVuSans-50" transform="translate(396.089844 0)"/>
       <use xlink:href="#DejaVuSans-41" transform="translate(450.017578 0)"/>
      </g>
     </g>
    </g>
    <g id="xtick_9">
     <g id="line2d_9">
      <g>
       <use xlink:href="#m2e2a95552e" x="486.318196" y="605.77" style="stroke: #000000; stroke-width: 0.8"/>
      </g>
     </g>
     <g id="text_9">
      <!-- Lucas OH -->
      <g transform="translate(489.077571 659.910625) rotate(-90) scale(0.1 -0.1)">
       <defs>
        <path id="DejaVuSans-63" d="M 3122 3366 
L 3122 2828 
Q 2878 2963 2633 3030 
Q 2388 3097 2138 3097 
Q 1578 3097 1268 2742 
Q 959 2388 959 1747 
Q 959 1106 1268 751 
Q 1578 397 2138 397 
Q 2388 397 2633 464 
Q 2878 531 3122 666 
L 3122 134 
Q 2881 22 2623 -34 
Q 2366 -91 2075 -91 
Q 1284 -91 818 406 
Q 353 903 353 1747 
Q 353 2603 823 3093 
Q 1294 3584 2113 3584 
Q 2378 3584 2631 3529 
Q 2884 3475 3122 3366 
z
" transform="scale(0.015625)"/>
        <path id="DejaVuSans-48" d="M 628 4666 
L 1259 4666 
L 1259 2753 
L 3553 2753 
L 3553 4666 
L 4184 4666 
L 4184 0 
L 3553 0 
L 3553 2222 
L 1259 2222 
L 1259 0 
L 628 0 
L 628 4666 
z
" transform="scale(0.015625)"/>
       </defs>
       <use xlink:href="#DejaVuSans-4c"/>
       <use xlink:href="#DejaVuSans-75" transform="translate(53.962891 0)"/>
       <use xlink:href="#DejaVuSans-63" transform="translate(117.341797 0)"/>
       <use xlink:href="#DejaVuSans-61" transform="translate(172.322266 0)"/>
       <use xlink:href="#DejaVuSans-73" transform="translate(233.601562 0)"/>
       <use xlink:href="#DejaVuSans-20" transform="translate(285.701172 0)"/>
       <use xlink:href="#DejaVuSans-4f" transform="translate(317.488281 0)"/>
       <use xlink:href="#DejaVuSans-48" transform="translate(396.199219 0)"/>
      </g>
     </g>
    </g>
    <g id="xtick_10">
     <g id="line2d_10">
      <g>
       <use xlink:href="#m2e2a95552e" x="533.362732" y="605.77" style="stroke: #000000; stroke-width: 0.8"/>
      </g>
     </g>
     <g id="text_10">
      <!-- El Paso TX -->
      <g transform="translate(536.122107 664.216875) rotate(-90) scale(0.1 -0.1)">
       <defs>
        <path id="DejaVuSans-45" d="M 628 4666 
L 3578 4666 
L 3578 4134 
L 1259 4134 
L 1259 2753 
L 3481 2753 
L 3481 2222 
L 1259 2222 
L 1259 531 
L 3634 531 
L 3634 0 
L 628 0 
L 628 4666 
z
" transform="scale(0.015625)"/>
        <path id="DejaVuSans-54" d="M -19 4666 
L 3928 4666 
L 3928 4134 
L 2272 4134 
L 2272 0 
L 1638 0 
L 1638 4134 
L -19 4134 
L -19 4666 
z
" transform="scale(0.015625)"/>
        <path id="DejaVuSans-58" d="M 403 4666 
L 1081 4666 
L 2241 2931 
L 3406 4666 
L 4084 4666 
L 2584 2425 
L 4184 0 
L 3506 0 
L 2194 1984 
L 872 0 
L 191 0 
L 1856 2491 
L 403 4666 
z
" transform="scale(0.015625)"/>
       </defs>
       <use xlink:href="#DejaVuSans-45"/>
       <use xlink:href="#DejaVuSans-6c" transform="translate(63.183594 0)"/>
       <use xlink:href="#DejaVuSans-20" transform="translate(90.966797 0)"/>
       <use xlink:href="#DejaVuSans-50" transform="translate(122.753906 0)"/>
       <use xlink:href="#DejaVuSans-61" transform="translate(178.556641 0)"/>
       <use xlink:href="#DejaVuSans-73" transform="translate(239.835938 0)"/>
       <use xlink:href="#DejaVuSans-6f" transform="translate(291.935547 0)"/>
       <use xlink:href="#DejaVuSans-20" transform="translate(353.117188 0)"/>
       <use xlink:href="#DejaVuSans-54" transform="translate(384.904297 0)"/>
       <use xlink:href="#DejaVuSans-58" transform="translate(445.988281 0)"/>
      </g>
     </g>
    </g>
    <g id="xtick_11">
     <g id="line2d_11">
      <g>
       <use xlink:href="#m2e2a95552e" x="580.407268" y="605.77" style="stroke: #000000; stroke-width: 0.8"/>
      </g>
     </g>
     <g id="text_11">
      <!-- New York NY -->
      <g transform="translate(583.166643 675.330937) rotate(-90) scale(0.1 -0.1)">
       <defs>
        <path id="DejaVuSans-59" d="M -13 4666 
L 666 4666 
L 1959 2747 
L 3244 4666 
L 3922 4666 
L 2272 2222 
L 2272 0 
L 1638 0 
L 1638 2222 
L -13 4666 
z
" transform="scale(0.015625)"/>
       </defs>
       <use xlink:href="#DejaVuSans-4e"/>
       <use xlink:href="#DejaVuSans-65" transform="translate(74.804688 0)"/>
       <use xlink:href="#DejaVuSans-77" transform="translate(136.328125 0)"/>
       <use xlink:href="#DejaVuSans-20" transform="translate(218.115234 0)"/>
       <use xlink:href="#DejaVuSans-59" transform="translate(249.902344 0)"/>
       <use xlink:href="#DejaVuSans-6f" transform="translate(297.736328 0)"/>
       <use xlink:href="#DejaVuSans-72" transform="translate(358.917969 0)"/>
       <use xlink:href="#DejaVuSans-6b" transform="translate(400.03125 0)"/>
       <use xlink:href="#DejaVuSans-20" transform="translate(457.941406 0)"/>
       <use xlink:href="#DejaVuSans-4e" transform="translate(489.728516 0)"/>
       <use xlink:href="#DejaVuSans-59" transform="translate(564.533203 0)"/>
      </g>
     </g>
    </g>
    <g id="xtick_12">
     <g id="line2d_12">
      <g>
       <use xlink:href="#m2e2a95552e" x="627.451804" y="605.77" style="stroke: #000000; stroke-width: 0.8"/>
      </g>
     </g>
     <g id="text_12">
      <!-- Allen Parish LA -->
      <g transform="translate(630.211179 686.795) rotate(-90) scale(0.1 -0.1)">
       <use xlink:href="#DejaVuSans-41"/>
       <use xlink:href="#DejaVuSans-6c" transform="translate(68.408203 0)"/>
       <use xlink:href="#DejaVuSans-6c" transform="translate(96.191406 0)"/>
       <use xlink:href="#DejaVuSans-65" transform="translate(123.974609 0)"/>
       <use xlink:href="#DejaVuSans-6e" transform="translate(185.498047 0)"/>
       <use xlink:href="#DejaVuSans-20" transform="translate(248.876953 0)"/>
       <use xlink:href="#DejaVuSans-50" transform="translate(280.664062 0)"/>
       <use xlink:href="#DejaVuSans-61" transform="translate(336.466797 0)"/>
       <use xlink:href="#DejaVuSans-72" transform="translate(397.746094 0)"/>
       <use xlink:href="#DejaVuSans-69" transform="translate(438.859375 0)"/>
       <use xlink:href="#DejaVuSans-73" transform="translate(466.642578 0)"/>
       <use xlink:href="#DejaVuSans-68" transform="translate(518.742188 0)"/>
       <use xlink:href="#DejaVuSans-20" transform="translate(582.121094 0)"/>
       <use xlink:href="#DejaVuSans-4c" transform="translate(613.908203 0)"/>
       <use xlink:href="#DejaVuSans-41" transform="translate(671.871094 0)"/>
      </g>
     </g>
    </g>
    <g id="xtick_13">
     <g id="line2d_13">
      <g>
       <use xlink:href="#m2e2a95552e" x="674.496341" y="605.77" style="stroke: #000000; stroke-width: 0.8"/>
      </g>
     </g>
     <g id="text_13">
      <!-- Hudson NJ -->
      <g transform="translate(677.255716 664.25125) rotate(-90) scale(0.1 -0.1)">
       <defs>
        <path id="DejaVuSans-64" d="M 2906 2969 
L 2906 4863 
L 3481 4863 
L 3481 0 
L 2906 0 
L 2906 525 
Q 2725 213 2448 61 
Q 2172 -91 1784 -91 
Q 1150 -91 751 415 
Q 353 922 353 1747 
Q 353 2572 751 3078 
Q 1150 3584 1784 3584 
Q 2172 3584 2448 3432 
Q 2725 3281 2906 2969 
z
M 947 1747 
Q 947 1113 1208 752 
Q 1469 391 1925 391 
Q 2381 391 2643 752 
Q 2906 1113 2906 1747 
Q 2906 2381 2643 2742 
Q 2381 3103 1925 3103 
Q 1469 3103 1208 2742 
Q 947 2381 947 1747 
z
" transform="scale(0.015625)"/>
        <path id="DejaVuSans-4a" d="M 628 4666 
L 1259 4666 
L 1259 325 
Q 1259 -519 939 -900 
Q 619 -1281 -91 -1281 
L -331 -1281 
L -331 -750 
L -134 -750 
Q 284 -750 456 -515 
Q 628 -281 628 325 
L 628 4666 
z
" transform="scale(0.015625)"/>
       </defs>
       <use xlink:href="#DejaVuSans-48"/>
       <use xlink:href="#DejaVuSans-75" transform="translate(75.195312 0)"/>
       <use xlink:href="#DejaVuSans-64" transform="translate(138.574219 0)"/>
       <use xlink:href="#DejaVuSans-73" transform="translate(202.050781 0)"/>
       <use xlink:href="#DejaVuSans-6f" transform="translate(254.150391 0)"/>
       <use xlink:href="#DejaVuSans-6e" transform="translate(315.332031 0)"/>
       <use xlink:href="#DejaVuSans-20" transform="translate(378.710938 0)"/>
       <use xlink:href="#DejaVuSans-4e" transform="translate(410.498047 0)"/>
       <use xlink:href="#DejaVuSans-4a" transform="translate(485.302734 0)"/>
      </g>
     </g>
    </g>
    <g id="xtick_14">
     <g id="line2d_14">
      <g>
       <use xlink:href="#m2e2a95552e" x="721.540877" y="605.77" style="stroke: #000000; stroke-width: 0.8"/>
      </g>
     </g>
     <g id="text_14">
      <!-- Hartford CT -->
      <g transform="translate(724.300252 670.641875) rotate(-90) scale(0.1 -0.1)">
       <defs>
        <path id="DejaVuSans-66" d="M 2375 4863 
L 2375 4384 
L 1825 4384 
Q 1516 4384 1395 4259 
Q 1275 4134 1275 3809 
L 1275 3500 
L 2222 3500 
L 2222 3053 
L 1275 3053 
L 1275 0 
L 697 0 
L 697 3053 
L 147 3053 
L 147 3500 
L 697 3500 
L 697 3744 
Q 697 4328 969 4595 
Q 1241 4863 1831 4863 
L 2375 4863 
z
" transform="scale(0.015625)"/>
       </defs>
       <use xlink:href="#DejaVuSans-48"/>
       <use xlink:href="#DejaVuSans-61" transform="translate(75.195312 0)"/>
       <use xlink:href="#DejaVuSans-72" transform="translate(136.474609 0)"/>
       <use xlink:href="#DejaVuSans-74" transform="translate(177.587891 0)"/>
       <use xlink:href="#DejaVuSans-66" transform="translate(216.796875 0)"/>
       <use xlink:href="#DejaVuSans-6f" transform="translate(252.001953 0)"/>
       <use xlink:href="#DejaVuSans-72" transform="translate(313.183594 0)"/>
       <use xlink:href="#DejaVuSans-64" transform="translate(352.546875 0)"/>
       <use xlink:href="#DejaVuSans-20" transform="translate(416.023438 0)"/>
       <use xlink:href="#DejaVuSans-43" transform="translate(447.810547 0)"/>
       <use xlink:href="#DejaVuSans-54" transform="translate(517.634766 0)"/>
      </g>
     </g>
    </g>
    <g id="xtick_15">
     <g id="line2d_15">
      <g>
       <use xlink:href="#m2e2a95552e" x="768.585413" y="605.77" style="stroke: #000000; stroke-width: 0.8"/>
      </g>
     </g>
     <g id="text_15">
      <!-- Alger MI -->
      <g transform="translate(771.344788 653.7575) rotate(-90) scale(0.1 -0.1)">
       <defs>
        <path id="DejaVuSans-67" d="M 2906 1791 
Q 2906 2416 2648 2759 
Q 2391 3103 1925 3103 
Q 1463 3103 1205 2759 
Q 947 2416 947 1791 
Q 947 1169 1205 825 
Q 1463 481 1925 481 
Q 2391 481 2648 825 
Q 2906 1169 2906 1791 
z
M 3481 434 
Q 3481 -459 3084 -895 
Q 2688 -1331 1869 -1331 
Q 1566 -1331 1297 -1286 
Q 1028 -1241 775 -1147 
L 775 -588 
Q 1028 -725 1275 -790 
Q 1522 -856 1778 -856 
Q 2344 -856 2625 -561 
Q 2906 -266 2906 331 
L 2906 616 
Q 2728 306 2450 153 
Q 2172 0 1784 0 
Q 1141 0 747 490 
Q 353 981 353 1791 
Q 353 2603 747 3093 
Q 1141 3584 1784 3584 
Q 2172 3584 2450 3431 
Q 2728 3278 2906 2969 
L 2906 3500 
L 3481 3500 
L 3481 434 
z
" transform="scale(0.015625)"/>
        <path id="DejaVuSans-49" d="M 628 4666 
L 1259 4666 
L 1259 0 
L 628 0 
L 628 4666 
z
" transform="scale(0.015625)"/>
       </defs>
       <use xlink:href="#DejaVuSans-41"/>
       <use xlink:href="#DejaVuSans-6c" transform="translate(68.408203 0)"/>
       <use xlink:href="#DejaVuSans-67" transform="translate(96.191406 0)"/>
       <use xlink:href="#DejaVuSans-65" transform="translate(159.667969 0)"/>
       <use xlink:href="#DejaVuSans-72" transform="translate(221.191406 0)"/>
       <use xlink:href="#DejaVuSans-20" transform="translate(262.304688 0)"/>
       <use xlink:href="#DejaVuSans-4d" transform="translate(294.091797 0)"/>
       <use xlink:href="#DejaVuSans-49" transform="translate(380.371094 0)"/>
      </g>
     </g>
    </g>
    <g id="xtick_16">
     <g id="line2d_16">
      <g>
       <use xlink:href="#m2e2a95552e" x="815.629949" y="605.77" style="stroke: #000000; stroke-width: 0.8"/>
      </g>
     </g>
     <g id="text_16">
      <!-- Tuscaloosa AL -->
      <g transform="translate(818.389324 682.4825) rotate(-90) scale(0.1 -0.1)">
       <use xlink:href="#DejaVuSans-54"/>
       <use xlink:href="#DejaVuSans-75" transform="translate(45.958984 0)"/>
       <use xlink:href="#DejaVuSans-73" transform="translate(109.337891 0)"/>
       <use xlink:href="#DejaVuSans-63" transform="translate(161.4375 0)"/>
       <use xlink:href="#DejaVuSans-61" transform="translate(216.417969 0)"/>
       <use xlink:href="#DejaVuSans-6c" transform="translate(277.697266 0)"/>
       <use xlink:href="#DejaVuSans-6f" transform="translate(305.480469 0)"/>
       <use xlink:href="#DejaVuSans-6f" transform="translate(366.662109 0)"/>
       <use xlink:href="#DejaVuSans-73" transform="translate(427.84375 0)"/>
       <use xlink:href="#DejaVuSans-61" transform="translate(479.943359 0)"/>
       <use xlink:href="#DejaVuSans-20" transform="translate(541.222656 0)"/>
       <use xlink:href="#DejaVuSans-41" transform="translate(573.009766 0)"/>
       <use xlink:href="#DejaVuSans-4c" transform="translate(641.417969 0)"/>
      </g>
     </g>
    </g>
    <g id="xtick_17">
     <g id="line2d_17">
      <g>
       <use xlink:href="#m2e2a95552e" x="862.674486" y="605.77" style="stroke: #000000; stroke-width: 0.8"/>
      </g>
     </g>
     <g id="text_17">
      <!-- Delaware PA -->
      <g transform="translate(865.433861 675.285625) rotate(-90) scale(0.1 -0.1)">
       <defs>
        <path id="DejaVuSans-44" d="M 1259 4147 
L 1259 519 
L 2022 519 
Q 2988 519 3436 956 
Q 3884 1394 3884 2338 
Q 3884 3275 3436 3711 
Q 2988 4147 2022 4147 
L 1259 4147 
z
M 628 4666 
L 1925 4666 
Q 3281 4666 3915 4102 
Q 4550 3538 4550 2338 
Q 4550 1131 3912 565 
Q 3275 0 1925 0 
L 628 0 
L 628 4666 
z
" transform="scale(0.015625)"/>
       </defs>
       <use xlink:href="#DejaVuSans-44"/>
       <use xlink:href="#DejaVuSans-65" transform="translate(77.001953 0)"/>
       <use xlink:href="#DejaVuSans-6c" transform="translate(138.525391 0)"/>
       <use xlink:href="#DejaVuSans-61" transform="translate(166.308594 0)"/>
       <use xlink:href="#DejaVuSans-77" transform="translate(227.587891 0)"/>
       <use xlink:href="#DejaVuSans-61" transform="translate(309.375 0)"/>
       <use xlink:href="#DejaVuSans-72" transform="translate(370.654297 0)"/>
       <use xlink:href="#DejaVuSans-65" transform="translate(409.517578 0)"/>
       <use xlink:href="#DejaVuSans-20" transform="translate(471.041016 0)"/>
       <use xlink:href="#DejaVuSans-50" transform="translate(502.828125 0)"/>
       <use xlink:href="#DejaVuSans-41" transform="translate(556.755859 0)"/>
      </g>
     </g>
    </g>
    <g id="xtick_18">
     <g id="line2d_18">
      <g>
       <use xlink:href="#m2e2a95552e" x="909.719022" y="605.77" style="stroke: #000000; stroke-width: 0.8"/>
      </g>
     </g>
     <g id="text_18">
      <!-- Chambers TX -->
      <g transform="translate(912.478397 679.916875) rotate(-90) scale(0.1 -0.1)">
       <defs>
        <path id="DejaVuSans-6d" d="M 3328 2828 
Q 3544 3216 3844 3400 
Q 4144 3584 4550 3584 
Q 5097 3584 5394 3201 
Q 5691 2819 5691 2113 
L 5691 0 
L 5113 0 
L 5113 2094 
Q 5113 2597 4934 2840 
Q 4756 3084 4391 3084 
Q 3944 3084 3684 2787 
Q 3425 2491 3425 1978 
L 3425 0 
L 2847 0 
L 2847 2094 
Q 2847 2600 2669 2842 
Q 2491 3084 2119 3084 
Q 1678 3084 1418 2786 
Q 1159 2488 1159 1978 
L 1159 0 
L 581 0 
L 581 3500 
L 1159 3500 
L 1159 2956 
Q 1356 3278 1631 3431 
Q 1906 3584 2284 3584 
Q 2666 3584 2933 3390 
Q 3200 3197 3328 2828 
z
" transform="scale(0.015625)"/>
       </defs>
       <use xlink:href="#DejaVuSans-43"/>
       <use xlink:href="#DejaVuSans-68" transform="translate(69.824219 0)"/>
       <use xlink:href="#DejaVuSans-61" transform="translate(133.203125 0)"/>
       <use xlink:href="#DejaVuSans-6d" transform="translate(194.482422 0)"/>
       <use xlink:href="#DejaVuSans-62" transform="translate(291.894531 0)"/>
       <use xlink:href="#DejaVuSans-65" transform="translate(355.371094 0)"/>
       <use xlink:href="#DejaVuSans-72" transform="translate(416.894531 0)"/>
       <use xlink:href="#DejaVuSans-73" transform="translate(458.007812 0)"/>
       <use xlink:href="#DejaVuSans-20" transform="translate(510.107422 0)"/>
       <use xlink:href="#DejaVuSans-54" transform="translate(541.894531 0)"/>
       <use xlink:href="#DejaVuSans-58" transform="translate(602.978516 0)"/>
      </g>
     </g>
    </g>
    <g id="xtick_19">
     <g id="line2d_19">
      <g>
       <use xlink:href="#m2e2a95552e" x="956.763558" y="605.77" style="stroke: #000000; stroke-width: 0.8"/>
      </g>
     </g>
     <g id="text_19">
      <!-- Cavalier ND -->
      <g transform="translate(959.522933 672.1075) rotate(-90) scale(0.1 -0.1)">
       <defs>
        <path id="DejaVuSans-76" d="M 191 3500 
L 800 3500 
L 1894 563 
L 2988 3500 
L 3597 3500 
L 2284 0 
L 1503 0 
L 191 3500 
z
" transform="scale(0.015625)"/>
       </defs>
       <use xlink:href="#DejaVuSans-43"/>
       <use xlink:href="#DejaVuSans-61" transform="translate(69.824219 0)"/>
       <use xlink:href="#DejaVuSans-76" transform="translate(131.103516 0)"/>
       <use xlink:href="#DejaVuSans-61" transform="translate(190.283203 0)"/>
       <use xlink:href="#DejaVuSans-6c" transform="translate(251.5625 0)"/>
       <use xlink:href="#DejaVuSans-69" transform="translate(279.345703 0)"/>
       <use xlink:href="#DejaVuSans-65" transform="translate(307.128906 0)"/>
       <use xlink:href="#DejaVuSans-72" transform="translate(368.652344 0)"/>
       <use xlink:href="#DejaVuSans-20" transform="translate(409.765625 0)"/>
       <use xlink:href="#DejaVuSans-4e" transform="translate(441.552734 0)"/>
       <use xlink:href="#DejaVuSans-44" transform="translate(516.357422 0)"/>
      </g>
     </g>
    </g>
    <g id="xtick_20">
     <g id="line2d_20">
      <g>
       <use xlink:href="#m2e2a95552e" x="1003.808095" y="605.77" style="stroke: #000000; stroke-width: 0.8"/>
      </g>
     </g>
     <g id="text_20">
      <!-- Borden TX -->
      <g transform="translate(1006.56747 664.660625) rotate(-90) scale(0.1 -0.1)">
       <defs>
        <path id="DejaVuSans-42" d="M 1259 2228 
L 1259 519 
L 2272 519 
Q 2781 519 3026 730 
Q 3272 941 3272 1375 
Q 3272 1813 3026 2020 
Q 2781 2228 2272 2228 
L 1259 2228 
z
M 1259 4147 
L 1259 2741 
L 2194 2741 
Q 2656 2741 2882 2914 
Q 3109 3088 3109 3444 
Q 3109 3797 2882 3972 
Q 2656 4147 2194 4147 
L 1259 4147 
z
M 628 4666 
L 2241 4666 
Q 2963 4666 3353 4366 
Q 3744 4066 3744 3513 
Q 3744 3084 3544 2831 
Q 3344 2578 2956 2516 
Q 3422 2416 3680 2098 
Q 3938 1781 3938 1306 
Q 3938 681 3513 340 
Q 3088 0 2303 0 
L 628 0 
L 628 4666 
z
" transform="scale(0.015625)"/>
       </defs>
       <use xlink:href="#DejaVuSans-42"/>
       <use xlink:href="#DejaVuSans-6f" transform="translate(68.603516 0)"/>
       <use xlink:href="#DejaVuSans-72" transform="translate(129.785156 0)"/>
       <use xlink:href="#DejaVuSans-64" transform="translate(169.148438 0)"/>
       <use xlink:href="#DejaVuSans-65" transform="translate(232.625 0)"/>
       <use xlink:href="#DejaVuSans-6e" transform="translate(294.148438 0)"/>
       <use xlink:href="#DejaVuSans-20" transform="translate(357.527344 0)"/>
       <use xlink:href="#DejaVuSans-54" transform="translate(389.314453 0)"/>
       <use xlink:href="#DejaVuSans-58" transform="translate(450.398438 0)"/>
      </g>
     </g>
    </g>
    <g id="text_21">
     <!-- County -->
     <g transform="translate(539.077188 706.505937) scale(0.1 -0.1)">
      <use xlink:href="#DejaVuSans-43"/>
      <use xlink:href="#DejaVuSans-6f" transform="translate(69.824219 0)"/>
      <use xlink:href="#DejaVuSans-75" transform="translate(131.005859 0)"/>
      <use xlink:href="#DejaVuSans-6e" transform="translate(194.384766 0)"/>
      <use xlink:href="#DejaVuSans-74" transform="translate(257.763672 0)"/>
      <use xlink:href="#DejaVuSans-79" transform="translate(296.972656 0)"/>
     </g>
    </g>
   </g>
   <g id="matplotlib.axis_2">
    <g id="ytick_1">
     <g id="line2d_21">
      <defs>
       <path id="mc98c3b24fd" d="M 0 0 
L -3.5 0 
" style="stroke: #000000; stroke-width: 0.8"/>
      </defs>
      <g>
       <use xlink:href="#mc98c3b24fd" x="44.57" y="605.77" style="stroke: #000000; stroke-width: 0.8"/>
      </g>
     </g>
     <g id="text_22">
      <!-- 0 -->
      <g transform="translate(31.2075 609.569219) scale(0.1 -0.1)">
       <defs>
        <path id="DejaVuSans-30" d="M 2034 4250 
Q 1547 4250 1301 3770 
Q 1056 3291 1056 2328 
Q 1056 1369 1301 889 
Q 1547 409 2034 409 
Q 2525 409 2770 889 
Q 3016 1369 3016 2328 
Q 3016 3291 2770 3770 
Q 2525 4250 2034 4250 
z
M 2034 4750 
Q 2819 4750 3233 4129 
Q 3647 3509 3647 2328 
Q 3647 1150 3233 529 
Q 2819 -91 2034 -91 
Q 1250 -91 836 529 
Q 422 1150 422 2328 
Q 422 3509 836 4129 
Q 1250 4750 2034 4750 
z
" transform="scale(0.015625)"/>
       </defs>
       <use xlink:href="#DejaVuSans-30"/>
      </g>
     </g>
    </g>
    <g id="ytick_2">
     <g id="line2d_22">
      <g>
       <use xlink:href="#mc98c3b24fd" x="44.57" y="537.704758" style="stroke: #000000; stroke-width: 0.8"/>
      </g>
     </g>
     <g id="text_23">
      <!-- 10 -->
      <g transform="translate(24.845 541.503976) scale(0.1 -0.1)">
       <defs>
        <path id="DejaVuSans-31" d="M 794 531 
L 1825 531 
L 1825 4091 
L 703 3866 
L 703 4441 
L 1819 4666 
L 2450 4666 
L 2450 531 
L 3481 531 
L 3481 0 
L 794 0 
L 794 531 
z
" transform="scale(0.015625)"/>
       </defs>
       <use xlink:href="#DejaVuSans-31"/>
       <use xlink:href="#DejaVuSans-30" transform="translate(63.623047 0)"/>
      </g>
     </g>
    </g>
    <g id="ytick_3">
     <g id="line2d_23">
      <g>
       <use xlink:href="#mc98c3b24fd" x="44.57" y="469.639515" style="stroke: #000000; stroke-width: 0.8"/>
      </g>
     </g>
     <g id="text_24">
      <!-- 20 -->
      <g transform="translate(24.845 473.438734) scale(0.1 -0.1)">
       <defs>
        <path id="DejaVuSans-32" d="M 1228 531 
L 3431 531 
L 3431 0 
L 469 0 
L 469 531 
Q 828 903 1448 1529 
Q 2069 2156 2228 2338 
Q 2531 2678 2651 2914 
Q 2772 3150 2772 3378 
Q 2772 3750 2511 3984 
Q 2250 4219 1831 4219 
Q 1534 4219 1204 4116 
Q 875 4013 500 3803 
L 500 4441 
Q 881 4594 1212 4672 
Q 1544 4750 1819 4750 
Q 2544 4750 2975 4387 
Q 3406 4025 3406 3419 
Q 3406 3131 3298 2873 
Q 3191 2616 2906 2266 
Q 2828 2175 2409 1742 
Q 1991 1309 1228 531 
z
" transform="scale(0.015625)"/>
       </defs>
       <use xlink:href="#DejaVuSans-32"/>
       <use xlink:href="#DejaVuSans-30" transform="translate(63.623047 0)"/>
      </g>
     </g>
    </g>
    <g id="ytick_4">
     <g id="line2d_24">
      <g>
       <use xlink:href="#mc98c3b24fd" x="44.57" y="401.574273" style="stroke: #000000; stroke-width: 0.8"/>
      </g>
     </g>
     <g id="text_25">
      <!-- 30 -->
      <g transform="translate(24.845 405.373492) scale(0.1 -0.1)">
       <defs>
        <path id="DejaVuSans-33" d="M 2597 2516 
Q 3050 2419 3304 2112 
Q 3559 1806 3559 1356 
Q 3559 666 3084 287 
Q 2609 -91 1734 -91 
Q 1441 -91 1130 -33 
Q 819 25 488 141 
L 488 750 
Q 750 597 1062 519 
Q 1375 441 1716 441 
Q 2309 441 2620 675 
Q 2931 909 2931 1356 
Q 2931 1769 2642 2001 
Q 2353 2234 1838 2234 
L 1294 2234 
L 1294 2753 
L 1863 2753 
Q 2328 2753 2575 2939 
Q 2822 3125 2822 3475 
Q 2822 3834 2567 4026 
Q 2313 4219 1838 4219 
Q 1578 4219 1281 4162 
Q 984 4106 628 3988 
L 628 4550 
Q 988 4650 1302 4700 
Q 1616 4750 1894 4750 
Q 2613 4750 3031 4423 
Q 3450 4097 3450 3541 
Q 3450 3153 3228 2886 
Q 3006 2619 2597 2516 
z
" transform="scale(0.015625)"/>
       </defs>
       <use xlink:href="#DejaVuSans-33"/>
       <use xlink:href="#DejaVuSans-30" transform="translate(63.623047 0)"/>
      </g>
     </g>
    </g>
    <g id="ytick_5">
     <g id="line2d_25">
      <g>
       <use xlink:href="#mc98c3b24fd" x="44.57" y="333.509031" style="stroke: #000000; stroke-width: 0.8"/>
      </g>
     </g>
     <g id="text_26">
      <!-- 40 -->
      <g transform="translate(24.845 337.308249) scale(0.1 -0.1)">
       <defs>
        <path id="DejaVuSans-34" d="M 2419 4116 
L 825 1625 
L 2419 1625 
L 2419 4116 
z
M 2253 4666 
L 3047 4666 
L 3047 1625 
L 3713 1625 
L 3713 1100 
L 3047 1100 
L 3047 0 
L 2419 0 
L 2419 1100 
L 313 1100 
L 313 1709 
L 2253 4666 
z
" transform="scale(0.015625)"/>
       </defs>
       <use xlink:href="#DejaVuSans-34"/>
       <use xlink:href="#DejaVuSans-30" transform="translate(63.623047 0)"/>
      </g>
     </g>
    </g>
    <g id="ytick_6">
     <g id="line2d_26">
      <g>
       <use xlink:href="#mc98c3b24fd" x="44.57" y="265.443788" style="stroke: #000000; stroke-width: 0.8"/>
      </g>
     </g>
     <g id="text_27">
      <!-- 50 -->
      <g transform="translate(24.845 269.243007) scale(0.1 -0.1)">
       <defs>
        <path id="DejaVuSans-35" d="M 691 4666 
L 3169 4666 
L 3169 4134 
L 1269 4134 
L 1269 2991 
Q 1406 3038 1543 3061 
Q 1681 3084 1819 3084 
Q 2600 3084 3056 2656 
Q 3513 2228 3513 1497 
Q 3513 744 3044 326 
Q 2575 -91 1722 -91 
Q 1428 -91 1123 -41 
Q 819 9 494 109 
L 494 744 
Q 775 591 1075 516 
Q 1375 441 1709 441 
Q 2250 441 2565 725 
Q 2881 1009 2881 1497 
Q 2881 1984 2565 2268 
Q 2250 2553 1709 2553 
Q 1456 2553 1204 2497 
Q 953 2441 691 2322 
L 691 4666 
z
" transform="scale(0.015625)"/>
       </defs>
       <use xlink:href="#DejaVuSans-35"/>
       <use xlink:href="#DejaVuSans-30" transform="translate(63.623047 0)"/>
      </g>
     </g>
    </g>
    <g id="ytick_7">
     <g id="line2d_27">
      <g>
       <use xlink:href="#mc98c3b24fd" x="44.57" y="197.378546" style="stroke: #000000; stroke-width: 0.8"/>
      </g>
     </g>
     <g id="text_28">
      <!-- 60 -->
      <g transform="translate(24.845 201.177765) scale(0.1 -0.1)">
       <defs>
        <path id="DejaVuSans-36" d="M 2113 2584 
Q 1688 2584 1439 2293 
Q 1191 2003 1191 1497 
Q 1191 994 1439 701 
Q 1688 409 2113 409 
Q 2538 409 2786 701 
Q 3034 994 3034 1497 
Q 3034 2003 2786 2293 
Q 2538 2584 2113 2584 
z
M 3366 4563 
L 3366 3988 
Q 3128 4100 2886 4159 
Q 2644 4219 2406 4219 
Q 1781 4219 1451 3797 
Q 1122 3375 1075 2522 
Q 1259 2794 1537 2939 
Q 1816 3084 2150 3084 
Q 2853 3084 3261 2657 
Q 3669 2231 3669 1497 
Q 3669 778 3244 343 
Q 2819 -91 2113 -91 
Q 1303 -91 875 529 
Q 447 1150 447 2328 
Q 447 3434 972 4092 
Q 1497 4750 2381 4750 
Q 2619 4750 2861 4703 
Q 3103 4656 3366 4563 
z
" transform="scale(0.015625)"/>
       </defs>
       <use xlink:href="#DejaVuSans-36"/>
       <use xlink:href="#DejaVuSans-30" transform="translate(63.623047 0)"/>
      </g>
     </g>
    </g>
    <g id="ytick_8">
     <g id="line2d_28">
      <g>
       <use xlink:href="#mc98c3b24fd" x="44.57" y="129.313304" style="stroke: #000000; stroke-width: 0.8"/>
      </g>
     </g>
     <g id="text_29">
      <!-- 70 -->
      <g transform="translate(24.845 133.112522) scale(0.1 -0.1)">
       <defs>
        <path id="DejaVuSans-37" d="M 525 4666 
L 3525 4666 
L 3525 4397 
L 1831 0 
L 1172 0 
L 2766 4134 
L 525 4134 
L 525 4666 
z
" transform="scale(0.015625)"/>
       </defs>
       <use xlink:href="#DejaVuSans-37"/>
       <use xlink:href="#DejaVuSans-30" transform="translate(63.623047 0)"/>
      </g>
     </g>
    </g>
    <g id="ytick_9">
     <g id="line2d_29">
      <g>
       <use xlink:href="#mc98c3b24fd" x="44.57" y="61.248061" style="stroke: #000000; stroke-width: 0.8"/>
      </g>
     </g>
     <g id="text_30">
      <!-- 80 -->
      <g transform="translate(24.845 65.04728) scale(0.1 -0.1)">
       <defs>
        <path id="DejaVuSans-38" d="M 2034 2216 
Q 1584 2216 1326 1975 
Q 1069 1734 1069 1313 
Q 1069 891 1326 650 
Q 1584 409 2034 409 
Q 2484 409 2743 651 
Q 3003 894 3003 1313 
Q 3003 1734 2745 1975 
Q 2488 2216 2034 2216 
z
M 1403 2484 
Q 997 2584 770 2862 
Q 544 3141 544 3541 
Q 544 4100 942 4425 
Q 1341 4750 2034 4750 
Q 2731 4750 3128 4425 
Q 3525 4100 3525 3541 
Q 3525 3141 3298 2862 
Q 3072 2584 2669 2484 
Q 3125 2378 3379 2068 
Q 3634 1759 3634 1313 
Q 3634 634 3220 271 
Q 2806 -91 2034 -91 
Q 1263 -91 848 271 
Q 434 634 434 1313 
Q 434 1759 690 2068 
Q 947 2378 1403 2484 
z
M 1172 3481 
Q 1172 3119 1398 2916 
Q 1625 2713 2034 2713 
Q 2441 2713 2670 2916 
Q 2900 3119 2900 3481 
Q 2900 3844 2670 4047 
Q 2441 4250 2034 4250 
Q 1625 4250 1398 4047 
Q 1172 3844 1172 3481 
z
" transform="scale(0.015625)"/>
       </defs>
       <use xlink:href="#DejaVuSans-38"/>
       <use xlink:href="#DejaVuSans-30" transform="translate(63.623047 0)"/>
      </g>
     </g>
    </g>
    <g id="text_31">
     <!-- Percentage Change in Household Count -->
     <g transform="translate(18.765312 415.814844) rotate(-90) scale(0.1 -0.1)">
      <use xlink:href="#DejaVuSans-50"/>
      <use xlink:href="#DejaVuSans-65" transform="translate(56.677734 0)"/>
      <use xlink:href="#DejaVuSans-72" transform="translate(118.201172 0)"/>
      <use xlink:href="#DejaVuSans-63" transform="translate(157.064453 0)"/>
      <use xlink:href="#DejaVuSans-65" transform="translate(212.044922 0)"/>
      <use xlink:href="#DejaVuSans-6e" transform="translate(273.568359 0)"/>
      <use xlink:href="#DejaVuSans-74" transform="translate(336.947266 0)"/>
      <use xlink:href="#DejaVuSans-61" transform="translate(376.15625 0)"/>
      <use xlink:href="#DejaVuSans-67" transform="translate(437.435547 0)"/>
      <use xlink:href="#DejaVuSans-65" transform="translate(500.912109 0)"/>
      <use xlink:href="#DejaVuSans-20" transform="translate(562.435547 0)"/>
      <use xlink:href="#DejaVuSans-43" transform="translate(594.222656 0)"/>
      <use xlink:href="#DejaVuSans-68" transform="translate(664.046875 0)"/>
      <use xlink:href="#DejaVuSans-61" transform="translate(727.425781 0)"/>
      <use xlink:href="#DejaVuSans-6e" transform="translate(788.705078 0)"/>
      <use xlink:href="#DejaVuSans-67" transform="translate(852.083984 0)"/>
      <use xlink:href="#DejaVuSans-65" transform="translate(915.560547 0)"/>
      <use xlink:href="#DejaVuSans-20" transform="translate(977.083984 0)"/>
      <use xlink:href="#DejaVuSans-69" transform="translate(1008.871094 0)"/>
      <use xlink:href="#DejaVuSans-6e" transform="translate(1036.654297 0)"/>
      <use xlink:href="#DejaVuSans-20" transform="translate(1100.033203 0)"/>
      <use xlink:href="#DejaVuSans-48" transform="translate(1131.820312 0)"/>
      <use xlink:href="#DejaVuSans-6f" transform="translate(1207.015625 0)"/>
      <use xlink:href="#DejaVuSans-75" transform="translate(1268.197266 0)"/>
      <use xlink:href="#DejaVuSans-73" transform="translate(1331.576172 0)"/>
      <use xlink:href="#DejaVuSans-65" transform="translate(1383.675781 0)"/>
      <use xlink:href="#DejaVuSans-68" transform="translate(1445.199219 0)"/>
      <use xlink:href="#DejaVuSans-6f" transform="translate(1508.578125 0)"/>
      <use xlink:href="#DejaVuSans-6c" transform="translate(1569.759766 0)"/>
      <use xlink:href="#DejaVuSans-64" transform="translate(1597.542969 0)"/>
      <use xlink:href="#DejaVuSans-20" transform="translate(1661.019531 0)"/>
      <use xlink:href="#DejaVuSans-43" transform="translate(1692.806641 0)"/>
      <use xlink:href="#DejaVuSans-6f" transform="translate(1762.630859 0)"/>
      <use xlink:href="#DejaVuSans-75" transform="translate(1823.8125 0)"/>
      <use xlink:href="#DejaVuSans-6e" transform="translate(1887.191406 0)"/>
      <use xlink:href="#DejaVuSans-74" transform="translate(1950.570312 0)"/>
     </g>
    </g>
   </g>
   <g id="patch_23">
    <path d="M 44.57 605.77 
L 44.57 26.88 
" style="fill: none; stroke: #000000; stroke-width: 0.8; stroke-linejoin: miter; stroke-linecap: square"/>
   </g>
   <g id="patch_24">
    <path d="M 1069.2 605.77 
L 1069.2 26.88 
" style="fill: none; stroke: #000000; stroke-width: 0.8; stroke-linejoin: miter; stroke-linecap: square"/>
   </g>
   <g id="patch_25">
    <path d="M 44.57 605.77 
L 1069.2 605.77 
" style="fill: none; stroke: #000000; stroke-width: 0.8; stroke-linejoin: miter; stroke-linecap: square"/>
   </g>
   <g id="patch_26">
    <path d="M 44.57 26.88 
L 1069.2 26.88 
" style="fill: none; stroke: #000000; stroke-width: 0.8; stroke-linejoin: miter; stroke-linecap: square"/>
   </g>
   <g id="text_32">
    <!-- Top 20 Counties with the Highest Percentage Change in Household Count from 2021 to 2022 -->
    <g transform="translate(278.307813 20.88) scale(0.12 -0.12)">
     <defs>
      <path id="DejaVuSans-70" d="M 1159 525 
L 1159 -1331 
L 581 -1331 
L 581 3500 
L 1159 3500 
L 1159 2969 
Q 1341 3281 1617 3432 
Q 1894 3584 2278 3584 
Q 2916 3584 3314 3078 
Q 3713 2572 3713 1747 
Q 3713 922 3314 415 
Q 2916 -91 2278 -91 
Q 1894 -91 1617 61 
Q 1341 213 1159 525 
z
M 3116 1747 
Q 3116 2381 2855 2742 
Q 2594 3103 2138 3103 
Q 1681 3103 1420 2742 
Q 1159 2381 1159 1747 
Q 1159 1113 1420 752 
Q 1681 391 2138 391 
Q 2594 391 2855 752 
Q 3116 1113 3116 1747 
z
" transform="scale(0.015625)"/>
     </defs>
     <use xlink:href="#DejaVuSans-54"/>
     <use xlink:href="#DejaVuSans-6f" transform="translate(44.083984 0)"/>
     <use xlink:href="#DejaVuSans-70" transform="translate(105.265625 0)"/>
     <use xlink:href="#DejaVuSans-20" transform="translate(168.742188 0)"/>
     <use xlink:href="#DejaVuSans-32" transform="translate(200.529297 0)"/>
     <use xlink:href="#DejaVuSans-30" transform="translate(264.152344 0)"/>
     <use xlink:href="#DejaVuSans-20" transform="translate(327.775391 0)"/>
     <use xlink:href="#DejaVuSans-43" transform="translate(359.5625 0)"/>
     <use xlink:href="#DejaVuSans-6f" transform="translate(429.386719 0)"/>
     <use xlink:href="#DejaVuSans-75" transform="translate(490.568359 0)"/>
     <use xlink:href="#DejaVuSans-6e" transform="translate(553.947266 0)"/>
     <use xlink:href="#DejaVuSans-74" transform="translate(617.326172 0)"/>
     <use xlink:href="#DejaVuSans-69" transform="translate(656.535156 0)"/>
     <use xlink:href="#DejaVuSans-65" transform="translate(684.318359 0)"/>
     <use xlink:href="#DejaVuSans-73" transform="translate(745.841797 0)"/>
     <use xlink:href="#DejaVuSans-20" transform="translate(797.941406 0)"/>
     <use xlink:href="#DejaVuSans-77" transform="translate(829.728516 0)"/>
     <use xlink:href="#DejaVuSans-69" transform="translate(911.515625 0)"/>
     <use xlink:href="#DejaVuSans-74" transform="translate(939.298828 0)"/>
     <use xlink:href="#DejaVuSans-68" transform="translate(978.507812 0)"/>
     <use xlink:href="#DejaVuSans-20" transform="translate(1041.886719 0)"/>
     <use xlink:href="#DejaVuSans-74" transform="translate(1073.673828 0)"/>
     <use xlink:href="#DejaVuSans-68" transform="translate(1112.882812 0)"/>
     <use xlink:href="#DejaVuSans-65" transform="translate(1176.261719 0)"/>
     <use xlink:href="#DejaVuSans-20" transform="translate(1237.785156 0)"/>
     <use xlink:href="#DejaVuSans-48" transform="translate(1269.572266 0)"/>
     <use xlink:href="#DejaVuSans-69" transform="translate(1344.767578 0)"/>
     <use xlink:href="#DejaVuSans-67" transform="translate(1372.550781 0)"/>
     <use xlink:href="#DejaVuSans-68" transform="translate(1436.027344 0)"/>
     <use xlink:href="#DejaVuSans-65" transform="translate(1499.40625 0)"/>
     <use xlink:href="#DejaVuSans-73" transform="translate(1560.929688 0)"/>
     <use xlink:href="#DejaVuSans-74" transform="translate(1613.029297 0)"/>
     <use xlink:href="#DejaVuSans-20" transform="translate(1652.238281 0)"/>
     <use xlink:href="#DejaVuSans-50" transform="translate(1684.025391 0)"/>
     <use xlink:href="#DejaVuSans-65" transform="translate(1740.703125 0)"/>
     <use xlink:href="#DejaVuSans-72" transform="translate(1802.226562 0)"/>
     <use xlink:href="#DejaVuSans-63" transform="translate(1841.089844 0)"/>
     <use xlink:href="#DejaVuSans-65" transform="translate(1896.070312 0)"/>
     <use xlink:href="#DejaVuSans-6e" transform="translate(1957.59375 0)"/>
     <use xlink:href="#DejaVuSans-74" transform="translate(2020.972656 0)"/>
     <use xlink:href="#DejaVuSans-61" transform="translate(2060.181641 0)"/>
     <use xlink:href="#DejaVuSans-67" transform="translate(2121.460938 0)"/>
     <use xlink:href="#DejaVuSans-65" transform="translate(2184.9375 0)"/>
     <use xlink:href="#DejaVuSans-20" transform="translate(2246.460938 0)"/>
     <use xlink:href="#DejaVuSans-43" transform="translate(2278.248047 0)"/>
     <use xlink:href="#DejaVuSans-68" transform="translate(2348.072266 0)"/>
     <use xlink:href="#DejaVuSans-61" transform="translate(2411.451172 0)"/>
     <use xlink:href="#DejaVuSans-6e" transform="translate(2472.730469 0)"/>
     <use xlink:href="#DejaVuSans-67" transform="translate(2536.109375 0)"/>
     <use xlink:href="#DejaVuSans-65" transform="translate(2599.585938 0)"/>
     <use xlink:href="#DejaVuSans-20" transform="translate(2661.109375 0)"/>
     <use xlink:href="#DejaVuSans-69" transform="translate(2692.896484 0)"/>
     <use xlink:href="#DejaVuSans-6e" transform="translate(2720.679688 0)"/>
     <use xlink:href="#DejaVuSans-20" transform="translate(2784.058594 0)"/>
     <use xlink:href="#DejaVuSans-48" transform="translate(2815.845703 0)"/>
     <use xlink:href="#DejaVuSans-6f" transform="translate(2891.041016 0)"/>
     <use xlink:href="#DejaVuSans-75" transform="translate(2952.222656 0)"/>
     <use xlink:href="#DejaVuSans-73" transform="translate(3015.601562 0)"/>
     <use xlink:href="#DejaVuSans-65" transform="translate(3067.701172 0)"/>
     <use xlink:href="#DejaVuSans-68" transform="translate(3129.224609 0)"/>
     <use xlink:href="#DejaVuSans-6f" transform="translate(3192.603516 0)"/>
     <use xlink:href="#DejaVuSans-6c" transform="translate(3253.785156 0)"/>
     <use xlink:href="#DejaVuSans-64" transform="translate(3281.568359 0)"/>
     <use xlink:href="#DejaVuSans-20" transform="translate(3345.044922 0)"/>
     <use xlink:href="#DejaVuSans-43" transform="translate(3376.832031 0)"/>
     <use xlink:href="#DejaVuSans-6f" transform="translate(3446.65625 0)"/>
     <use xlink:href="#DejaVuSans-75" transform="translate(3507.837891 0)"/>
     <use xlink:href="#DejaVuSans-6e" transform="translate(3571.216797 0)"/>
     <use xlink:href="#DejaVuSans-74" transform="translate(3634.595703 0)"/>
     <use xlink:href="#DejaVuSans-20" transform="translate(3673.804688 0)"/>
     <use xlink:href="#DejaVuSans-66" transform="translate(3705.591797 0)"/>
     <use xlink:href="#DejaVuSans-72" transform="translate(3740.796875 0)"/>
     <use xlink:href="#DejaVuSans-6f" transform="translate(3779.660156 0)"/>
     <use xlink:href="#DejaVuSans-6d" transform="translate(3840.841797 0)"/>
     <use xlink:href="#DejaVuSans-20" transform="translate(3938.253906 0)"/>
     <use xlink:href="#DejaVuSans-32" transform="translate(3970.041016 0)"/>
     <use xlink:href="#DejaVuSans-30" transform="translate(4033.664062 0)"/>
     <use xlink:href="#DejaVuSans-32" transform="translate(4097.287109 0)"/>
     <use xlink:href="#DejaVuSans-31" transform="translate(4160.910156 0)"/>
     <use xlink:href="#DejaVuSans-20" transform="translate(4224.533203 0)"/>
     <use xlink:href="#DejaVuSans-74" transform="translate(4256.320312 0)"/>
     <use xlink:href="#DejaVuSans-6f" transform="translate(4295.529297 0)"/>
     <use xlink:href="#DejaVuSans-20" transform="translate(4356.710938 0)"/>
     <use xlink:href="#DejaVuSans-32" transform="translate(4388.498047 0)"/>
     <use xlink:href="#DejaVuSans-30" transform="translate(4452.121094 0)"/>
     <use xlink:href="#DejaVuSans-32" transform="translate(4515.744141 0)"/>
     <use xlink:href="#DejaVuSans-32" transform="translate(4579.367188 0)"/>
    </g>
   </g>
  </g>
 </g>
 <defs>
  <clipPath id="p1c972c0bbc">
   <rect x="44.57" y="26.88" width="1024.63" height="578.89"/>
  </clipPath>
 </defs>
</svg>
