<?xml version="1.0" encoding="utf-8" standalone="no"?>
<!DOCTYPE svg PUBLIC "-//W3C//DTD SVG 1.1//EN"
  "http://www.w3.org/Graphics/SVG/1.1/DTD/svg11.dtd">
<svg xmlns:xlink="http://www.w3.org/1999/xlink" width="1080pt" height="720pt" viewBox="0 0 1080 720" xmlns="http://www.w3.org/2000/svg" version="1.1">
 <metadata>
  <rdf:RDF xmlns:dc="http://purl.org/dc/elements/1.1/" xmlns:cc="http://creativecommons.org/ns#" xmlns:rdf="http://www.w3.org/1999/02/22-rdf-syntax-ns#">
   <cc:Work>
    <dc:type rdf:resource="http://purl.org/dc/dcmitype/StillImage"/>
    <dc:date>2025-02-10T22:38:44.714751</dc:date>
    <dc:format>image/svg+xml</dc:format>
    <dc:creator>
     <cc:Agent>
      <dc:title>Matplotlib v3.10.0, https://matplotlib.org/</dc:title>
     </cc:Agent>
    </dc:creator>
   </cc:Work>
  </rdf:RDF>
 </metadata>
 <defs>
  <style type="text/css">*{stroke-linejoin: round; stroke-linecap: butt}</style>
 </defs>
 <g id="figure_1">
  <g id="patch_1">
   <path d="M 0 720 
L 1080 720 
L 1080 0 
L 0 0 
z
" style="fill: #ffffff"/>
  </g>
  <g id="axes_1">
   <g id="patch_2">
    <path d="M 50.87 609.1 
L 1069.2 609.1 
L 1069.2 41.856 
L 50.87 41.856 
z
" style="fill: #ffffff"/>
   </g>
   <g id="patch_3">
    <path d="M 97.157727 609.1 
L 134.561951 609.1 
L 134.561951 68.867619 
L 97.157727 68.867619 
z
" clip-path="url(#pe315d74589)" style="fill: #1f77b4"/>
   </g>
   <g id="patch_4">
    <path d="M 143.913007 609.1 
L 181.317231 609.1 
L 181.317231 117.390852 
L 143.913007 117.390852 
z
" clip-path="url(#pe315d74589)" style="fill: #1f77b4"/>
   </g>
   <g id="patch_5">
    <path d="M 190.668287 609.1 
L 228.072511 609.1 
L 228.072511 168.631732 
L 190.668287 168.631732 
z
" clip-path="url(#pe315d74589)" style="fill: #1f77b4"/>
   </g>
   <g id="patch_6">
    <path d="M 237.423567 609.1 
L 274.827792 609.1 
L 274.827792 198.330254 
L 237.423567 198.330254 
z
" clip-path="url(#pe315d74589)" style="fill: #1f77b4"/>
   </g>
   <g id="patch_7">
    <path d="M 284.178848 609.1 
L 321.583072 609.1 
L 321.583072 249.807826 
L 284.178848 249.807826 
z
" clip-path="url(#pe315d74589)" style="fill: #1f77b4"/>
   </g>
   <g id="patch_8">
    <path d="M 330.934128 609.1 
L 368.338352 609.1 
L 368.338352 268.02364 
L 330.934128 268.02364 
z
" clip-path="url(#pe315d74589)" style="fill: #1f77b4"/>
   </g>
   <g id="patch_9">
    <path d="M 377.689408 609.1 
L 415.093632 609.1 
L 415.093632 273.369548 
L 377.689408 273.369548 
z
" clip-path="url(#pe315d74589)" style="fill: #1f77b4"/>
   </g>
   <g id="patch_10">
    <path d="M 424.444688 609.1 
L 461.848912 609.1 
L 461.848912 285.270594 
L 424.444688 285.270594 
z
" clip-path="url(#pe315d74589)" style="fill: #1f77b4"/>
   </g>
   <g id="patch_11">
    <path d="M 471.199968 609.1 
L 508.604192 609.1 
L 508.604192 295.519346 
L 471.199968 295.519346 
z
" clip-path="url(#pe315d74589)" style="fill: #1f77b4"/>
   </g>
   <g id="patch_12">
    <path d="M 517.955248 609.1 
L 555.359472 609.1 
L 555.359472 311.410919 
L 517.955248 311.410919 
z
" clip-path="url(#pe315d74589)" style="fill: #1f77b4"/>
   </g>
   <g id="patch_13">
    <path d="M 564.710528 609.1 
L 602.114752 609.1 
L 602.114752 362.106606 
L 564.710528 362.106606 
z
" clip-path="url(#pe315d74589)" style="fill: #1f77b4"/>
   </g>
   <g id="patch_14">
    <path d="M 611.465808 609.1 
L 648.870032 609.1 
L 648.870032 365.989078 
L 611.465808 365.989078 
z
" clip-path="url(#pe315d74589)" style="fill: #1f77b4"/>
   </g>
   <g id="patch_15">
    <path d="M 658.221088 609.1 
L 695.625312 609.1 
L 695.625312 367.143374 
L 658.221088 367.143374 
z
" clip-path="url(#pe315d74589)" style="fill: #1f77b4"/>
   </g>
   <g id="patch_16">
    <path d="M 704.976368 609.1 
L 742.380592 609.1 
L 742.380592 383.069199 
L 704.976368 383.069199 
z
" clip-path="url(#pe315d74589)" style="fill: #1f77b4"/>
   </g>
   <g id="patch_17">
    <path d="M 751.731648 609.1 
L 789.135872 609.1 
L 789.135872 383.336182 
L 751.731648 383.336182 
z
" clip-path="url(#pe315d74589)" style="fill: #1f77b4"/>
   </g>
   <g id="patch_18">
    <path d="M 798.486928 609.1 
L 835.891152 609.1 
L 835.891152 392.018635 
L 798.486928 392.018635 
z
" clip-path="url(#pe315d74589)" style="fill: #1f77b4"/>
   </g>
   <g id="patch_19">
    <path d="M 845.242208 609.1 
L 882.646433 609.1 
L 882.646433 393.271472 
L 845.242208 393.271472 
z
" clip-path="url(#pe315d74589)" style="fill: #1f77b4"/>
   </g>
   <g id="patch_20">
    <path d="M 891.997489 609.1 
L 929.401713 609.1 
L 929.401713 393.986631 
L 891.997489 393.986631 
z
" clip-path="url(#pe315d74589)" style="fill: #1f77b4"/>
   </g>
   <g id="patch_21">
    <path d="M 938.752769 609.1 
L 976.156993 609.1 
L 976.156993 396.890295 
L 938.752769 396.890295 
z
" clip-path="url(#pe315d74589)" style="fill: #1f77b4"/>
   </g>
   <g id="patch_22">
    <path d="M 985.508049 609.1 
L 1022.912273 609.1 
L 1022.912273 400.925134 
L 985.508049 400.925134 
z
" clip-path="url(#pe315d74589)" style="fill: #1f77b4"/>
   </g>
   <g id="matplotlib.axis_1">
    <g id="xtick_1">
     <g id="line2d_1">
      <defs>
       <path id="m02a073039f" d="M 0 0 
L 0 3.5 
" style="stroke: #000000; stroke-width: 0.8"/>
      </defs>
      <g>
       <use xlink:href="#m02a073039f" x="115.859839" y="609.1" style="stroke: #000000; stroke-width: 0.8"/>
      </g>
     </g>
     <g id="text_1">
      <!-- Litchfield CT -->
      <g transform="translate(118.619214 678.053125) rotate(-90) scale(0.1 -0.1)">
       <defs>
        <path id="DejaVuSans-4c" d="M 628 4666 
L 1259 4666 
L 1259 531 
L 3531 531 
L 3531 0 
L 628 0 
L 628 4666 
z
" transform="scale(0.015625)"/>
        <path id="DejaVuSans-69" d="M 603 3500 
L 1178 3500 
L 1178 0 
L 603 0 
L 603 3500 
z
M 603 4863 
L 1178 4863 
L 1178 4134 
L 603 4134 
L 603 4863 
z
" transform="scale(0.015625)"/>
        <path id="DejaVuSans-74" d="M 1172 4494 
L 1172 3500 
L 2356 3500 
L 2356 3053 
L 1172 3053 
L 1172 1153 
Q 1172 725 1289 603 
Q 1406 481 1766 481 
L 2356 481 
L 2356 0 
L 1766 0 
Q 1100 0 847 248 
Q 594 497 594 1153 
L 594 3053 
L 172 3053 
L 172 3500 
L 594 3500 
L 594 4494 
L 1172 4494 
z
" transform="scale(0.015625)"/>
        <path id="DejaVuSans-63" d="M 3122 3366 
L 3122 2828 
Q 2878 2963 2633 3030 
Q 2388 3097 2138 3097 
Q 1578 3097 1268 2742 
Q 959 2388 959 1747 
Q 959 1106 1268 751 
Q 1578 397 2138 397 
Q 2388 397 2633 464 
Q 2878 531 3122 666 
L 3122 134 
Q 2881 22 2623 -34 
Q 2366 -91 2075 -91 
Q 1284 -91 818 406 
Q 353 903 353 1747 
Q 353 2603 823 3093 
Q 1294 3584 2113 3584 
Q 2378 3584 2631 3529 
Q 2884 3475 3122 3366 
z
" transform="scale(0.015625)"/>
        <path id="DejaVuSans-68" d="M 3513 2113 
L 3513 0 
L 2938 0 
L 2938 2094 
Q 2938 2591 2744 2837 
Q 2550 3084 2163 3084 
Q 1697 3084 1428 2787 
Q 1159 2491 1159 1978 
L 1159 0 
L 581 0 
L 581 4863 
L 1159 4863 
L 1159 2956 
Q 1366 3272 1645 3428 
Q 1925 3584 2291 3584 
Q 2894 3584 3203 3211 
Q 3513 2838 3513 2113 
z
" transform="scale(0.015625)"/>
        <path id="DejaVuSans-66" d="M 2375 4863 
L 2375 4384 
L 1825 4384 
Q 1516 4384 1395 4259 
Q 1275 4134 1275 3809 
L 1275 3500 
L 2222 3500 
L 2222 3053 
L 1275 3053 
L 1275 0 
L 697 0 
L 697 3053 
L 147 3053 
L 147 3500 
L 697 3500 
L 697 3744 
Q 697 4328 969 4595 
Q 1241 4863 1831 4863 
L 2375 4863 
z
" transform="scale(0.015625)"/>
        <path id="DejaVuSans-65" d="M 3597 1894 
L 3597 1613 
L 953 1613 
Q 991 1019 1311 708 
Q 1631 397 2203 397 
Q 2534 397 2845 478 
Q 3156 559 3463 722 
L 3463 178 
Q 3153 47 2828 -22 
Q 2503 -91 2169 -91 
Q 1331 -91 842 396 
Q 353 884 353 1716 
Q 353 2575 817 3079 
Q 1281 3584 2069 3584 
Q 2775 3584 3186 3129 
Q 3597 2675 3597 1894 
z
M 3022 2063 
Q 3016 2534 2758 2815 
Q 2500 3097 2075 3097 
Q 1594 3097 1305 2825 
Q 1016 2553 972 2059 
L 3022 2063 
z
" transform="scale(0.015625)"/>
        <path id="DejaVuSans-6c" d="M 603 4863 
L 1178 4863 
L 1178 0 
L 603 0 
L 603 4863 
z
" transform="scale(0.015625)"/>
        <path id="DejaVuSans-64" d="M 2906 2969 
L 2906 4863 
L 3481 4863 
L 3481 0 
L 2906 0 
L 2906 525 
Q 2725 213 2448 61 
Q 2172 -91 1784 -91 
Q 1150 -91 751 415 
Q 353 922 353 1747 
Q 353 2572 751 3078 
Q 1150 3584 1784 3584 
Q 2172 3584 2448 3432 
Q 2725 3281 2906 2969 
z
M 947 1747 
Q 947 1113 1208 752 
Q 1469 391 1925 391 
Q 2381 391 2643 752 
Q 2906 1113 2906 1747 
Q 2906 2381 2643 2742 
Q 2381 3103 1925 3103 
Q 1469 3103 1208 2742 
Q 947 2381 947 1747 
z
" transform="scale(0.015625)"/>
        <path id="DejaVuSans-20" transform="scale(0.015625)"/>
        <path id="DejaVuSans-43" d="M 4122 4306 
L 4122 3641 
Q 3803 3938 3442 4084 
Q 3081 4231 2675 4231 
Q 1875 4231 1450 3742 
Q 1025 3253 1025 2328 
Q 1025 1406 1450 917 
Q 1875 428 2675 428 
Q 3081 428 3442 575 
Q 3803 722 4122 1019 
L 4122 359 
Q 3791 134 3420 21 
Q 3050 -91 2638 -91 
Q 1578 -91 968 557 
Q 359 1206 359 2328 
Q 359 3453 968 4101 
Q 1578 4750 2638 4750 
Q 3056 4750 3426 4639 
Q 3797 4528 4122 4306 
z
" transform="scale(0.015625)"/>
        <path id="DejaVuSans-54" d="M -19 4666 
L 3928 4666 
L 3928 4134 
L 2272 4134 
L 2272 0 
L 1638 0 
L 1638 4134 
L -19 4134 
L -19 4666 
z
" transform="scale(0.015625)"/>
       </defs>
       <use xlink:href="#DejaVuSans-4c"/>
       <use xlink:href="#DejaVuSans-69" transform="translate(55.712891 0)"/>
       <use xlink:href="#DejaVuSans-74" transform="translate(83.496094 0)"/>
       <use xlink:href="#DejaVuSans-63" transform="translate(122.705078 0)"/>
       <use xlink:href="#DejaVuSans-68" transform="translate(177.685547 0)"/>
       <use xlink:href="#DejaVuSans-66" transform="translate(241.064453 0)"/>
       <use xlink:href="#DejaVuSans-69" transform="translate(276.269531 0)"/>
       <use xlink:href="#DejaVuSans-65" transform="translate(304.052734 0)"/>
       <use xlink:href="#DejaVuSans-6c" transform="translate(365.576172 0)"/>
       <use xlink:href="#DejaVuSans-64" transform="translate(393.359375 0)"/>
       <use xlink:href="#DejaVuSans-20" transform="translate(456.835938 0)"/>
       <use xlink:href="#DejaVuSans-43" transform="translate(488.623047 0)"/>
       <use xlink:href="#DejaVuSans-54" transform="translate(558.447266 0)"/>
      </g>
     </g>
    </g>
    <g id="xtick_2">
     <g id="line2d_2">
      <g>
       <use xlink:href="#m02a073039f" x="162.615119" y="609.1" style="stroke: #000000; stroke-width: 0.8"/>
      </g>
     </g>
     <g id="text_2">
      <!-- Fulton GA -->
      <g transform="translate(165.374494 664.560938) rotate(-90) scale(0.1 -0.1)">
       <defs>
        <path id="DejaVuSans-46" d="M 628 4666 
L 3309 4666 
L 3309 4134 
L 1259 4134 
L 1259 2759 
L 3109 2759 
L 3109 2228 
L 1259 2228 
L 1259 0 
L 628 0 
L 628 4666 
z
" transform="scale(0.015625)"/>
        <path id="DejaVuSans-75" d="M 544 1381 
L 544 3500 
L 1119 3500 
L 1119 1403 
Q 1119 906 1312 657 
Q 1506 409 1894 409 
Q 2359 409 2629 706 
Q 2900 1003 2900 1516 
L 2900 3500 
L 3475 3500 
L 3475 0 
L 2900 0 
L 2900 538 
Q 2691 219 2414 64 
Q 2138 -91 1772 -91 
Q 1169 -91 856 284 
Q 544 659 544 1381 
z
M 1991 3584 
L 1991 3584 
z
" transform="scale(0.015625)"/>
        <path id="DejaVuSans-6f" d="M 1959 3097 
Q 1497 3097 1228 2736 
Q 959 2375 959 1747 
Q 959 1119 1226 758 
Q 1494 397 1959 397 
Q 2419 397 2687 759 
Q 2956 1122 2956 1747 
Q 2956 2369 2687 2733 
Q 2419 3097 1959 3097 
z
M 1959 3584 
Q 2709 3584 3137 3096 
Q 3566 2609 3566 1747 
Q 3566 888 3137 398 
Q 2709 -91 1959 -91 
Q 1206 -91 779 398 
Q 353 888 353 1747 
Q 353 2609 779 3096 
Q 1206 3584 1959 3584 
z
" transform="scale(0.015625)"/>
        <path id="DejaVuSans-6e" d="M 3513 2113 
L 3513 0 
L 2938 0 
L 2938 2094 
Q 2938 2591 2744 2837 
Q 2550 3084 2163 3084 
Q 1697 3084 1428 2787 
Q 1159 2491 1159 1978 
L 1159 0 
L 581 0 
L 581 3500 
L 1159 3500 
L 1159 2956 
Q 1366 3272 1645 3428 
Q 1925 3584 2291 3584 
Q 2894 3584 3203 3211 
Q 3513 2838 3513 2113 
z
" transform="scale(0.015625)"/>
        <path id="DejaVuSans-47" d="M 3809 666 
L 3809 1919 
L 2778 1919 
L 2778 2438 
L 4434 2438 
L 4434 434 
Q 4069 175 3628 42 
Q 3188 -91 2688 -91 
Q 1594 -91 976 548 
Q 359 1188 359 2328 
Q 359 3472 976 4111 
Q 1594 4750 2688 4750 
Q 3144 4750 3555 4637 
Q 3966 4525 4313 4306 
L 4313 3634 
Q 3963 3931 3569 4081 
Q 3175 4231 2741 4231 
Q 1884 4231 1454 3753 
Q 1025 3275 1025 2328 
Q 1025 1384 1454 906 
Q 1884 428 2741 428 
Q 3075 428 3337 486 
Q 3600 544 3809 666 
z
" transform="scale(0.015625)"/>
        <path id="DejaVuSans-41" d="M 2188 4044 
L 1331 1722 
L 3047 1722 
L 2188 4044 
z
M 1831 4666 
L 2547 4666 
L 4325 0 
L 3669 0 
L 3244 1197 
L 1141 1197 
L 716 0 
L 50 0 
L 1831 4666 
z
" transform="scale(0.015625)"/>
       </defs>
       <use xlink:href="#DejaVuSans-46"/>
       <use xlink:href="#DejaVuSans-75" transform="translate(52.019531 0)"/>
       <use xlink:href="#DejaVuSans-6c" transform="translate(115.398438 0)"/>
       <use xlink:href="#DejaVuSans-74" transform="translate(143.181641 0)"/>
       <use xlink:href="#DejaVuSans-6f" transform="translate(182.390625 0)"/>
       <use xlink:href="#DejaVuSans-6e" transform="translate(243.572266 0)"/>
       <use xlink:href="#DejaVuSans-20" transform="translate(306.951172 0)"/>
       <use xlink:href="#DejaVuSans-47" transform="translate(338.738281 0)"/>
       <use xlink:href="#DejaVuSans-41" transform="translate(416.228516 0)"/>
      </g>
     </g>
    </g>
    <g id="xtick_3">
     <g id="line2d_3">
      <g>
       <use xlink:href="#m02a073039f" x="209.370399" y="609.1" style="stroke: #000000; stroke-width: 0.8"/>
      </g>
     </g>
     <g id="text_3">
      <!-- Will IL -->
      <g transform="translate(212.129774 645.796875) rotate(-90) scale(0.1 -0.1)">
       <defs>
        <path id="DejaVuSans-57" d="M 213 4666 
L 850 4666 
L 1831 722 
L 2809 4666 
L 3519 4666 
L 4500 722 
L 5478 4666 
L 6119 4666 
L 4947 0 
L 4153 0 
L 3169 4050 
L 2175 0 
L 1381 0 
L 213 4666 
z
" transform="scale(0.015625)"/>
        <path id="DejaVuSans-49" d="M 628 4666 
L 1259 4666 
L 1259 0 
L 628 0 
L 628 4666 
z
" transform="scale(0.015625)"/>
       </defs>
       <use xlink:href="#DejaVuSans-57"/>
       <use xlink:href="#DejaVuSans-69" transform="translate(96.626953 0)"/>
       <use xlink:href="#DejaVuSans-6c" transform="translate(124.410156 0)"/>
       <use xlink:href="#DejaVuSans-6c" transform="translate(152.193359 0)"/>
       <use xlink:href="#DejaVuSans-20" transform="translate(179.976562 0)"/>
       <use xlink:href="#DejaVuSans-49" transform="translate(211.763672 0)"/>
       <use xlink:href="#DejaVuSans-4c" transform="translate(241.255859 0)"/>
      </g>
     </g>
    </g>
    <g id="xtick_4">
     <g id="line2d_4">
      <g>
       <use xlink:href="#m02a073039f" x="256.12568" y="609.1" style="stroke: #000000; stroke-width: 0.8"/>
      </g>
     </g>
     <g id="text_4">
      <!-- Sedgwick KS -->
      <g transform="translate(258.885055 679.628125) rotate(-90) scale(0.1 -0.1)">
       <defs>
        <path id="DejaVuSans-53" d="M 3425 4513 
L 3425 3897 
Q 3066 4069 2747 4153 
Q 2428 4238 2131 4238 
Q 1616 4238 1336 4038 
Q 1056 3838 1056 3469 
Q 1056 3159 1242 3001 
Q 1428 2844 1947 2747 
L 2328 2669 
Q 3034 2534 3370 2195 
Q 3706 1856 3706 1288 
Q 3706 609 3251 259 
Q 2797 -91 1919 -91 
Q 1588 -91 1214 -16 
Q 841 59 441 206 
L 441 856 
Q 825 641 1194 531 
Q 1563 422 1919 422 
Q 2459 422 2753 634 
Q 3047 847 3047 1241 
Q 3047 1584 2836 1778 
Q 2625 1972 2144 2069 
L 1759 2144 
Q 1053 2284 737 2584 
Q 422 2884 422 3419 
Q 422 4038 858 4394 
Q 1294 4750 2059 4750 
Q 2388 4750 2728 4690 
Q 3069 4631 3425 4513 
z
" transform="scale(0.015625)"/>
        <path id="DejaVuSans-67" d="M 2906 1791 
Q 2906 2416 2648 2759 
Q 2391 3103 1925 3103 
Q 1463 3103 1205 2759 
Q 947 2416 947 1791 
Q 947 1169 1205 825 
Q 1463 481 1925 481 
Q 2391 481 2648 825 
Q 2906 1169 2906 1791 
z
M 3481 434 
Q 3481 -459 3084 -895 
Q 2688 -1331 1869 -1331 
Q 1566 -1331 1297 -1286 
Q 1028 -1241 775 -1147 
L 775 -588 
Q 1028 -725 1275 -790 
Q 1522 -856 1778 -856 
Q 2344 -856 2625 -561 
Q 2906 -266 2906 331 
L 2906 616 
Q 2728 306 2450 153 
Q 2172 0 1784 0 
Q 1141 0 747 490 
Q 353 981 353 1791 
Q 353 2603 747 3093 
Q 1141 3584 1784 3584 
Q 2172 3584 2450 3431 
Q 2728 3278 2906 2969 
L 2906 3500 
L 3481 3500 
L 3481 434 
z
" transform="scale(0.015625)"/>
        <path id="DejaVuSans-77" d="M 269 3500 
L 844 3500 
L 1563 769 
L 2278 3500 
L 2956 3500 
L 3675 769 
L 4391 3500 
L 4966 3500 
L 4050 0 
L 3372 0 
L 2619 2869 
L 1863 0 
L 1184 0 
L 269 3500 
z
" transform="scale(0.015625)"/>
        <path id="DejaVuSans-6b" d="M 581 4863 
L 1159 4863 
L 1159 1991 
L 2875 3500 
L 3609 3500 
L 1753 1863 
L 3688 0 
L 2938 0 
L 1159 1709 
L 1159 0 
L 581 0 
L 581 4863 
z
" transform="scale(0.015625)"/>
        <path id="DejaVuSans-4b" d="M 628 4666 
L 1259 4666 
L 1259 2694 
L 3353 4666 
L 4166 4666 
L 1850 2491 
L 4331 0 
L 3500 0 
L 1259 2247 
L 1259 0 
L 628 0 
L 628 4666 
z
" transform="scale(0.015625)"/>
       </defs>
       <use xlink:href="#DejaVuSans-53"/>
       <use xlink:href="#DejaVuSans-65" transform="translate(63.476562 0)"/>
       <use xlink:href="#DejaVuSans-64" transform="translate(125 0)"/>
       <use xlink:href="#DejaVuSans-67" transform="translate(188.476562 0)"/>
       <use xlink:href="#DejaVuSans-77" transform="translate(251.953125 0)"/>
       <use xlink:href="#DejaVuSans-69" transform="translate(333.740234 0)"/>
       <use xlink:href="#DejaVuSans-63" transform="translate(361.523438 0)"/>
       <use xlink:href="#DejaVuSans-6b" transform="translate(416.503906 0)"/>
       <use xlink:href="#DejaVuSans-20" transform="translate(474.414062 0)"/>
       <use xlink:href="#DejaVuSans-4b" transform="translate(506.201172 0)"/>
       <use xlink:href="#DejaVuSans-53" transform="translate(571.777344 0)"/>
      </g>
     </g>
    </g>
    <g id="xtick_5">
     <g id="line2d_5">
      <g>
       <use xlink:href="#m02a073039f" x="302.88096" y="609.1" style="stroke: #000000; stroke-width: 0.8"/>
      </g>
     </g>
     <g id="text_5">
      <!-- Seminole FL -->
      <g transform="translate(305.640335 677.009375) rotate(-90) scale(0.1 -0.1)">
       <defs>
        <path id="DejaVuSans-6d" d="M 3328 2828 
Q 3544 3216 3844 3400 
Q 4144 3584 4550 3584 
Q 5097 3584 5394 3201 
Q 5691 2819 5691 2113 
L 5691 0 
L 5113 0 
L 5113 2094 
Q 5113 2597 4934 2840 
Q 4756 3084 4391 3084 
Q 3944 3084 3684 2787 
Q 3425 2491 3425 1978 
L 3425 0 
L 2847 0 
L 2847 2094 
Q 2847 2600 2669 2842 
Q 2491 3084 2119 3084 
Q 1678 3084 1418 2786 
Q 1159 2488 1159 1978 
L 1159 0 
L 581 0 
L 581 3500 
L 1159 3500 
L 1159 2956 
Q 1356 3278 1631 3431 
Q 1906 3584 2284 3584 
Q 2666 3584 2933 3390 
Q 3200 3197 3328 2828 
z
" transform="scale(0.015625)"/>
       </defs>
       <use xlink:href="#DejaVuSans-53"/>
       <use xlink:href="#DejaVuSans-65" transform="translate(63.476562 0)"/>
       <use xlink:href="#DejaVuSans-6d" transform="translate(125 0)"/>
       <use xlink:href="#DejaVuSans-69" transform="translate(222.412109 0)"/>
       <use xlink:href="#DejaVuSans-6e" transform="translate(250.195312 0)"/>
       <use xlink:href="#DejaVuSans-6f" transform="translate(313.574219 0)"/>
       <use xlink:href="#DejaVuSans-6c" transform="translate(374.755859 0)"/>
       <use xlink:href="#DejaVuSans-65" transform="translate(402.539062 0)"/>
       <use xlink:href="#DejaVuSans-20" transform="translate(464.0625 0)"/>
       <use xlink:href="#DejaVuSans-46" transform="translate(495.849609 0)"/>
       <use xlink:href="#DejaVuSans-4c" transform="translate(553.369141 0)"/>
      </g>
     </g>
    </g>
    <g id="xtick_6">
     <g id="line2d_6">
      <g>
       <use xlink:href="#m02a073039f" x="349.63624" y="609.1" style="stroke: #000000; stroke-width: 0.8"/>
      </g>
     </g>
     <g id="text_6">
      <!-- Pinal AZ -->
      <g transform="translate(352.395615 656.795313) rotate(-90) scale(0.1 -0.1)">
       <defs>
        <path id="DejaVuSans-50" d="M 1259 4147 
L 1259 2394 
L 2053 2394 
Q 2494 2394 2734 2622 
Q 2975 2850 2975 3272 
Q 2975 3691 2734 3919 
Q 2494 4147 2053 4147 
L 1259 4147 
z
M 628 4666 
L 2053 4666 
Q 2838 4666 3239 4311 
Q 3641 3956 3641 3272 
Q 3641 2581 3239 2228 
Q 2838 1875 2053 1875 
L 1259 1875 
L 1259 0 
L 628 0 
L 628 4666 
z
" transform="scale(0.015625)"/>
        <path id="DejaVuSans-61" d="M 2194 1759 
Q 1497 1759 1228 1600 
Q 959 1441 959 1056 
Q 959 750 1161 570 
Q 1363 391 1709 391 
Q 2188 391 2477 730 
Q 2766 1069 2766 1631 
L 2766 1759 
L 2194 1759 
z
M 3341 1997 
L 3341 0 
L 2766 0 
L 2766 531 
Q 2569 213 2275 61 
Q 1981 -91 1556 -91 
Q 1019 -91 701 211 
Q 384 513 384 1019 
Q 384 1609 779 1909 
Q 1175 2209 1959 2209 
L 2766 2209 
L 2766 2266 
Q 2766 2663 2505 2880 
Q 2244 3097 1772 3097 
Q 1472 3097 1187 3025 
Q 903 2953 641 2809 
L 641 3341 
Q 956 3463 1253 3523 
Q 1550 3584 1831 3584 
Q 2591 3584 2966 3190 
Q 3341 2797 3341 1997 
z
" transform="scale(0.015625)"/>
        <path id="DejaVuSans-5a" d="M 359 4666 
L 4025 4666 
L 4025 4184 
L 1075 531 
L 4097 531 
L 4097 0 
L 288 0 
L 288 481 
L 3238 4134 
L 359 4134 
L 359 4666 
z
" transform="scale(0.015625)"/>
       </defs>
       <use xlink:href="#DejaVuSans-50"/>
       <use xlink:href="#DejaVuSans-69" transform="translate(58.052734 0)"/>
       <use xlink:href="#DejaVuSans-6e" transform="translate(85.835938 0)"/>
       <use xlink:href="#DejaVuSans-61" transform="translate(149.214844 0)"/>
       <use xlink:href="#DejaVuSans-6c" transform="translate(210.494141 0)"/>
       <use xlink:href="#DejaVuSans-20" transform="translate(238.277344 0)"/>
       <use xlink:href="#DejaVuSans-41" transform="translate(270.064453 0)"/>
       <use xlink:href="#DejaVuSans-5a" transform="translate(338.472656 0)"/>
      </g>
     </g>
    </g>
    <g id="xtick_7">
     <g id="line2d_7">
      <g>
       <use xlink:href="#m02a073039f" x="396.39152" y="609.1" style="stroke: #000000; stroke-width: 0.8"/>
      </g>
     </g>
     <g id="text_7">
      <!-- Forsyth GA -->
      <g transform="translate(399.150895 670.871875) rotate(-90) scale(0.1 -0.1)">
       <defs>
        <path id="DejaVuSans-72" d="M 2631 2963 
Q 2534 3019 2420 3045 
Q 2306 3072 2169 3072 
Q 1681 3072 1420 2755 
Q 1159 2438 1159 1844 
L 1159 0 
L 581 0 
L 581 3500 
L 1159 3500 
L 1159 2956 
Q 1341 3275 1631 3429 
Q 1922 3584 2338 3584 
Q 2397 3584 2469 3576 
Q 2541 3569 2628 3553 
L 2631 2963 
z
" transform="scale(0.015625)"/>
        <path id="DejaVuSans-73" d="M 2834 3397 
L 2834 2853 
Q 2591 2978 2328 3040 
Q 2066 3103 1784 3103 
Q 1356 3103 1142 2972 
Q 928 2841 928 2578 
Q 928 2378 1081 2264 
Q 1234 2150 1697 2047 
L 1894 2003 
Q 2506 1872 2764 1633 
Q 3022 1394 3022 966 
Q 3022 478 2636 193 
Q 2250 -91 1575 -91 
Q 1294 -91 989 -36 
Q 684 19 347 128 
L 347 722 
Q 666 556 975 473 
Q 1284 391 1588 391 
Q 1994 391 2212 530 
Q 2431 669 2431 922 
Q 2431 1156 2273 1281 
Q 2116 1406 1581 1522 
L 1381 1569 
Q 847 1681 609 1914 
Q 372 2147 372 2553 
Q 372 3047 722 3315 
Q 1072 3584 1716 3584 
Q 2034 3584 2315 3537 
Q 2597 3491 2834 3397 
z
" transform="scale(0.015625)"/>
        <path id="DejaVuSans-79" d="M 2059 -325 
Q 1816 -950 1584 -1140 
Q 1353 -1331 966 -1331 
L 506 -1331 
L 506 -850 
L 844 -850 
Q 1081 -850 1212 -737 
Q 1344 -625 1503 -206 
L 1606 56 
L 191 3500 
L 800 3500 
L 1894 763 
L 2988 3500 
L 3597 3500 
L 2059 -325 
z
" transform="scale(0.015625)"/>
       </defs>
       <use xlink:href="#DejaVuSans-46"/>
       <use xlink:href="#DejaVuSans-6f" transform="translate(53.894531 0)"/>
       <use xlink:href="#DejaVuSans-72" transform="translate(115.076172 0)"/>
       <use xlink:href="#DejaVuSans-73" transform="translate(156.189453 0)"/>
       <use xlink:href="#DejaVuSans-79" transform="translate(208.289062 0)"/>
       <use xlink:href="#DejaVuSans-74" transform="translate(267.46875 0)"/>
       <use xlink:href="#DejaVuSans-68" transform="translate(306.677734 0)"/>
       <use xlink:href="#DejaVuSans-20" transform="translate(370.056641 0)"/>
       <use xlink:href="#DejaVuSans-47" transform="translate(401.84375 0)"/>
       <use xlink:href="#DejaVuSans-41" transform="translate(479.333984 0)"/>
      </g>
     </g>
    </g>
    <g id="xtick_8">
     <g id="line2d_8">
      <g>
       <use xlink:href="#m02a073039f" x="443.1468" y="609.1" style="stroke: #000000; stroke-width: 0.8"/>
      </g>
     </g>
     <g id="text_8">
      <!-- Spartanburg SC -->
      <g transform="translate(445.906175 694.901562) rotate(-90) scale(0.1 -0.1)">
       <defs>
        <path id="DejaVuSans-70" d="M 1159 525 
L 1159 -1331 
L 581 -1331 
L 581 3500 
L 1159 3500 
L 1159 2969 
Q 1341 3281 1617 3432 
Q 1894 3584 2278 3584 
Q 2916 3584 3314 3078 
Q 3713 2572 3713 1747 
Q 3713 922 3314 415 
Q 2916 -91 2278 -91 
Q 1894 -91 1617 61 
Q 1341 213 1159 525 
z
M 3116 1747 
Q 3116 2381 2855 2742 
Q 2594 3103 2138 3103 
Q 1681 3103 1420 2742 
Q 1159 2381 1159 1747 
Q 1159 1113 1420 752 
Q 1681 391 2138 391 
Q 2594 391 2855 752 
Q 3116 1113 3116 1747 
z
" transform="scale(0.015625)"/>
        <path id="DejaVuSans-62" d="M 3116 1747 
Q 3116 2381 2855 2742 
Q 2594 3103 2138 3103 
Q 1681 3103 1420 2742 
Q 1159 2381 1159 1747 
Q 1159 1113 1420 752 
Q 1681 391 2138 391 
Q 2594 391 2855 752 
Q 3116 1113 3116 1747 
z
M 1159 2969 
Q 1341 3281 1617 3432 
Q 1894 3584 2278 3584 
Q 2916 3584 3314 3078 
Q 3713 2572 3713 1747 
Q 3713 922 3314 415 
Q 2916 -91 2278 -91 
Q 1894 -91 1617 61 
Q 1341 213 1159 525 
L 1159 0 
L 581 0 
L 581 4863 
L 1159 4863 
L 1159 2969 
z
" transform="scale(0.015625)"/>
       </defs>
       <use xlink:href="#DejaVuSans-53"/>
       <use xlink:href="#DejaVuSans-70" transform="translate(63.476562 0)"/>
       <use xlink:href="#DejaVuSans-61" transform="translate(126.953125 0)"/>
       <use xlink:href="#DejaVuSans-72" transform="translate(188.232422 0)"/>
       <use xlink:href="#DejaVuSans-74" transform="translate(229.345703 0)"/>
       <use xlink:href="#DejaVuSans-61" transform="translate(268.554688 0)"/>
       <use xlink:href="#DejaVuSans-6e" transform="translate(329.833984 0)"/>
       <use xlink:href="#DejaVuSans-62" transform="translate(393.212891 0)"/>
       <use xlink:href="#DejaVuSans-75" transform="translate(456.689453 0)"/>
       <use xlink:href="#DejaVuSans-72" transform="translate(520.068359 0)"/>
       <use xlink:href="#DejaVuSans-67" transform="translate(559.431641 0)"/>
       <use xlink:href="#DejaVuSans-20" transform="translate(622.908203 0)"/>
       <use xlink:href="#DejaVuSans-53" transform="translate(654.695312 0)"/>
       <use xlink:href="#DejaVuSans-43" transform="translate(718.171875 0)"/>
      </g>
     </g>
    </g>
    <g id="xtick_9">
     <g id="line2d_9">
      <g>
       <use xlink:href="#m02a073039f" x="489.90208" y="609.1" style="stroke: #000000; stroke-width: 0.8"/>
      </g>
     </g>
     <g id="text_9">
      <!-- Horry SC -->
      <g transform="translate(492.661455 660.214062) rotate(-90) scale(0.1 -0.1)">
       <defs>
        <path id="DejaVuSans-48" d="M 628 4666 
L 1259 4666 
L 1259 2753 
L 3553 2753 
L 3553 4666 
L 4184 4666 
L 4184 0 
L 3553 0 
L 3553 2222 
L 1259 2222 
L 1259 0 
L 628 0 
L 628 4666 
z
" transform="scale(0.015625)"/>
       </defs>
       <use xlink:href="#DejaVuSans-48"/>
       <use xlink:href="#DejaVuSans-6f" transform="translate(75.195312 0)"/>
       <use xlink:href="#DejaVuSans-72" transform="translate(136.376953 0)"/>
       <use xlink:href="#DejaVuSans-72" transform="translate(175.740234 0)"/>
       <use xlink:href="#DejaVuSans-79" transform="translate(216.853516 0)"/>
       <use xlink:href="#DejaVuSans-20" transform="translate(276.033203 0)"/>
       <use xlink:href="#DejaVuSans-53" transform="translate(307.820312 0)"/>
       <use xlink:href="#DejaVuSans-43" transform="translate(371.296875 0)"/>
      </g>
     </g>
    </g>
    <g id="xtick_10">
     <g id="line2d_10">
      <g>
       <use xlink:href="#m02a073039f" x="536.65736" y="609.1" style="stroke: #000000; stroke-width: 0.8"/>
      </g>
     </g>
     <g id="text_10">
      <!-- Morris NJ -->
      <g transform="translate(539.416735 660.490625) rotate(-90) scale(0.1 -0.1)">
       <defs>
        <path id="DejaVuSans-4d" d="M 628 4666 
L 1569 4666 
L 2759 1491 
L 3956 4666 
L 4897 4666 
L 4897 0 
L 4281 0 
L 4281 4097 
L 3078 897 
L 2444 897 
L 1241 4097 
L 1241 0 
L 628 0 
L 628 4666 
z
" transform="scale(0.015625)"/>
        <path id="DejaVuSans-4e" d="M 628 4666 
L 1478 4666 
L 3547 763 
L 3547 4666 
L 4159 4666 
L 4159 0 
L 3309 0 
L 1241 3903 
L 1241 0 
L 628 0 
L 628 4666 
z
" transform="scale(0.015625)"/>
        <path id="DejaVuSans-4a" d="M 628 4666 
L 1259 4666 
L 1259 325 
Q 1259 -519 939 -900 
Q 619 -1281 -91 -1281 
L -331 -1281 
L -331 -750 
L -134 -750 
Q 284 -750 456 -515 
Q 628 -281 628 325 
L 628 4666 
z
" transform="scale(0.015625)"/>
       </defs>
       <use xlink:href="#DejaVuSans-4d"/>
       <use xlink:href="#DejaVuSans-6f" transform="translate(86.279297 0)"/>
       <use xlink:href="#DejaVuSans-72" transform="translate(147.460938 0)"/>
       <use xlink:href="#DejaVuSans-72" transform="translate(186.824219 0)"/>
       <use xlink:href="#DejaVuSans-69" transform="translate(227.9375 0)"/>
       <use xlink:href="#DejaVuSans-73" transform="translate(255.720703 0)"/>
       <use xlink:href="#DejaVuSans-20" transform="translate(307.820312 0)"/>
       <use xlink:href="#DejaVuSans-4e" transform="translate(339.607422 0)"/>
       <use xlink:href="#DejaVuSans-4a" transform="translate(414.412109 0)"/>
      </g>
     </g>
    </g>
    <g id="xtick_11">
     <g id="line2d_11">
      <g>
       <use xlink:href="#m02a073039f" x="583.41264" y="609.1" style="stroke: #000000; stroke-width: 0.8"/>
      </g>
     </g>
     <g id="text_11">
      <!-- Worcester MA -->
      <g transform="translate(586.172015 685.096875) rotate(-90) scale(0.1 -0.1)">
       <use xlink:href="#DejaVuSans-57"/>
       <use xlink:href="#DejaVuSans-6f" transform="translate(93.001953 0)"/>
       <use xlink:href="#DejaVuSans-72" transform="translate(154.183594 0)"/>
       <use xlink:href="#DejaVuSans-63" transform="translate(193.046875 0)"/>
       <use xlink:href="#DejaVuSans-65" transform="translate(248.027344 0)"/>
       <use xlink:href="#DejaVuSans-73" transform="translate(309.550781 0)"/>
       <use xlink:href="#DejaVuSans-74" transform="translate(361.650391 0)"/>
       <use xlink:href="#DejaVuSans-65" transform="translate(400.859375 0)"/>
       <use xlink:href="#DejaVuSans-72" transform="translate(462.382812 0)"/>
       <use xlink:href="#DejaVuSans-20" transform="translate(503.496094 0)"/>
       <use xlink:href="#DejaVuSans-4d" transform="translate(535.283203 0)"/>
       <use xlink:href="#DejaVuSans-41" transform="translate(621.5625 0)"/>
      </g>
     </g>
    </g>
    <g id="xtick_12">
     <g id="line2d_12">
      <g>
       <use xlink:href="#m02a073039f" x="630.16792" y="609.1" style="stroke: #000000; stroke-width: 0.8"/>
      </g>
     </g>
     <g id="text_12">
      <!-- Sarasota FL -->
      <g transform="translate(632.927295 674.69375) rotate(-90) scale(0.1 -0.1)">
       <use xlink:href="#DejaVuSans-53"/>
       <use xlink:href="#DejaVuSans-61" transform="translate(63.476562 0)"/>
       <use xlink:href="#DejaVuSans-72" transform="translate(124.755859 0)"/>
       <use xlink:href="#DejaVuSans-61" transform="translate(165.869141 0)"/>
       <use xlink:href="#DejaVuSans-73" transform="translate(227.148438 0)"/>
       <use xlink:href="#DejaVuSans-6f" transform="translate(279.248047 0)"/>
       <use xlink:href="#DejaVuSans-74" transform="translate(340.429688 0)"/>
       <use xlink:href="#DejaVuSans-61" transform="translate(379.638672 0)"/>
       <use xlink:href="#DejaVuSans-20" transform="translate(440.917969 0)"/>
       <use xlink:href="#DejaVuSans-46" transform="translate(472.705078 0)"/>
       <use xlink:href="#DejaVuSans-4c" transform="translate(530.224609 0)"/>
      </g>
     </g>
    </g>
    <g id="xtick_13">
     <g id="line2d_13">
      <g>
       <use xlink:href="#m02a073039f" x="676.9232" y="609.1" style="stroke: #000000; stroke-width: 0.8"/>
      </g>
     </g>
     <g id="text_13">
      <!-- Suffolk MA -->
      <g transform="translate(679.682575 669.160938) rotate(-90) scale(0.1 -0.1)">
       <use xlink:href="#DejaVuSans-53"/>
       <use xlink:href="#DejaVuSans-75" transform="translate(63.476562 0)"/>
       <use xlink:href="#DejaVuSans-66" transform="translate(126.855469 0)"/>
       <use xlink:href="#DejaVuSans-66" transform="translate(162.060547 0)"/>
       <use xlink:href="#DejaVuSans-6f" transform="translate(197.265625 0)"/>
       <use xlink:href="#DejaVuSans-6c" transform="translate(258.447266 0)"/>
       <use xlink:href="#DejaVuSans-6b" transform="translate(286.230469 0)"/>
       <use xlink:href="#DejaVuSans-20" transform="translate(344.140625 0)"/>
       <use xlink:href="#DejaVuSans-4d" transform="translate(375.927734 0)"/>
       <use xlink:href="#DejaVuSans-41" transform="translate(462.207031 0)"/>
      </g>
     </g>
    </g>
    <g id="xtick_14">
     <g id="line2d_14">
      <g>
       <use xlink:href="#m02a073039f" x="723.67848" y="609.1" style="stroke: #000000; stroke-width: 0.8"/>
      </g>
     </g>
     <g id="text_14">
      <!-- Weld CO -->
      <g transform="translate(726.437855 658.7125) rotate(-90) scale(0.1 -0.1)">
       <defs>
        <path id="DejaVuSans-4f" d="M 2522 4238 
Q 1834 4238 1429 3725 
Q 1025 3213 1025 2328 
Q 1025 1447 1429 934 
Q 1834 422 2522 422 
Q 3209 422 3611 934 
Q 4013 1447 4013 2328 
Q 4013 3213 3611 3725 
Q 3209 4238 2522 4238 
z
M 2522 4750 
Q 3503 4750 4090 4092 
Q 4678 3434 4678 2328 
Q 4678 1225 4090 567 
Q 3503 -91 2522 -91 
Q 1538 -91 948 565 
Q 359 1222 359 2328 
Q 359 3434 948 4092 
Q 1538 4750 2522 4750 
z
" transform="scale(0.015625)"/>
       </defs>
       <use xlink:href="#DejaVuSans-57"/>
       <use xlink:href="#DejaVuSans-65" transform="translate(93.001953 0)"/>
       <use xlink:href="#DejaVuSans-6c" transform="translate(154.525391 0)"/>
       <use xlink:href="#DejaVuSans-64" transform="translate(182.308594 0)"/>
       <use xlink:href="#DejaVuSans-20" transform="translate(245.785156 0)"/>
       <use xlink:href="#DejaVuSans-43" transform="translate(277.572266 0)"/>
       <use xlink:href="#DejaVuSans-4f" transform="translate(347.396484 0)"/>
      </g>
     </g>
    </g>
    <g id="xtick_15">
     <g id="line2d_15">
      <g>
       <use xlink:href="#m02a073039f" x="770.43376" y="609.1" style="stroke: #000000; stroke-width: 0.8"/>
      </g>
     </g>
     <g id="text_15">
      <!-- Knox TN -->
      <g transform="translate(773.193135 657.4875) rotate(-90) scale(0.1 -0.1)">
       <defs>
        <path id="DejaVuSans-78" d="M 3513 3500 
L 2247 1797 
L 3578 0 
L 2900 0 
L 1881 1375 
L 863 0 
L 184 0 
L 1544 1831 
L 300 3500 
L 978 3500 
L 1906 2253 
L 2834 3500 
L 3513 3500 
z
" transform="scale(0.015625)"/>
       </defs>
       <use xlink:href="#DejaVuSans-4b"/>
       <use xlink:href="#DejaVuSans-6e" transform="translate(65.576172 0)"/>
       <use xlink:href="#DejaVuSans-6f" transform="translate(128.955078 0)"/>
       <use xlink:href="#DejaVuSans-78" transform="translate(187.011719 0)"/>
       <use xlink:href="#DejaVuSans-20" transform="translate(246.191406 0)"/>
       <use xlink:href="#DejaVuSans-54" transform="translate(277.978516 0)"/>
       <use xlink:href="#DejaVuSans-4e" transform="translate(339.0625 0)"/>
      </g>
     </g>
    </g>
    <g id="xtick_16">
     <g id="line2d_16">
      <g>
       <use xlink:href="#m02a073039f" x="817.18904" y="609.1" style="stroke: #000000; stroke-width: 0.8"/>
      </g>
     </g>
     <g id="text_16">
      <!-- Somerset NJ -->
      <g transform="translate(819.948415 677.464062) rotate(-90) scale(0.1 -0.1)">
       <use xlink:href="#DejaVuSans-53"/>
       <use xlink:href="#DejaVuSans-6f" transform="translate(63.476562 0)"/>
       <use xlink:href="#DejaVuSans-6d" transform="translate(124.658203 0)"/>
       <use xlink:href="#DejaVuSans-65" transform="translate(222.070312 0)"/>
       <use xlink:href="#DejaVuSans-72" transform="translate(283.59375 0)"/>
       <use xlink:href="#DejaVuSans-73" transform="translate(324.707031 0)"/>
       <use xlink:href="#DejaVuSans-65" transform="translate(376.806641 0)"/>
       <use xlink:href="#DejaVuSans-74" transform="translate(438.330078 0)"/>
       <use xlink:href="#DejaVuSans-20" transform="translate(477.539062 0)"/>
       <use xlink:href="#DejaVuSans-4e" transform="translate(509.326172 0)"/>
       <use xlink:href="#DejaVuSans-4a" transform="translate(584.130859 0)"/>
      </g>
     </g>
    </g>
    <g id="xtick_17">
     <g id="line2d_17">
      <g>
       <use xlink:href="#m02a073039f" x="863.94432" y="609.1" style="stroke: #000000; stroke-width: 0.8"/>
      </g>
     </g>
     <g id="text_17">
      <!-- Rutherford TN -->
      <g transform="translate(866.703695 686.148438) rotate(-90) scale(0.1 -0.1)">
       <defs>
        <path id="DejaVuSans-52" d="M 2841 2188 
Q 3044 2119 3236 1894 
Q 3428 1669 3622 1275 
L 4263 0 
L 3584 0 
L 2988 1197 
Q 2756 1666 2539 1819 
Q 2322 1972 1947 1972 
L 1259 1972 
L 1259 0 
L 628 0 
L 628 4666 
L 2053 4666 
Q 2853 4666 3247 4331 
Q 3641 3997 3641 3322 
Q 3641 2881 3436 2590 
Q 3231 2300 2841 2188 
z
M 1259 4147 
L 1259 2491 
L 2053 2491 
Q 2509 2491 2742 2702 
Q 2975 2913 2975 3322 
Q 2975 3731 2742 3939 
Q 2509 4147 2053 4147 
L 1259 4147 
z
" transform="scale(0.015625)"/>
       </defs>
       <use xlink:href="#DejaVuSans-52"/>
       <use xlink:href="#DejaVuSans-75" transform="translate(64.982422 0)"/>
       <use xlink:href="#DejaVuSans-74" transform="translate(128.361328 0)"/>
       <use xlink:href="#DejaVuSans-68" transform="translate(167.570312 0)"/>
       <use xlink:href="#DejaVuSans-65" transform="translate(230.949219 0)"/>
       <use xlink:href="#DejaVuSans-72" transform="translate(292.472656 0)"/>
       <use xlink:href="#DejaVuSans-66" transform="translate(333.585938 0)"/>
       <use xlink:href="#DejaVuSans-6f" transform="translate(368.791016 0)"/>
       <use xlink:href="#DejaVuSans-72" transform="translate(429.972656 0)"/>
       <use xlink:href="#DejaVuSans-64" transform="translate(469.335938 0)"/>
       <use xlink:href="#DejaVuSans-20" transform="translate(532.8125 0)"/>
       <use xlink:href="#DejaVuSans-54" transform="translate(564.599609 0)"/>
       <use xlink:href="#DejaVuSans-4e" transform="translate(625.683594 0)"/>
      </g>
     </g>
    </g>
    <g id="xtick_18">
     <g id="line2d_18">
      <g>
       <use xlink:href="#m02a073039f" x="910.699601" y="609.1" style="stroke: #000000; stroke-width: 0.8"/>
      </g>
     </g>
     <g id="text_18">
      <!-- Polk FL -->
      <g transform="translate(913.458976 650.95625) rotate(-90) scale(0.1 -0.1)">
       <use xlink:href="#DejaVuSans-50"/>
       <use xlink:href="#DejaVuSans-6f" transform="translate(56.677734 0)"/>
       <use xlink:href="#DejaVuSans-6c" transform="translate(117.859375 0)"/>
       <use xlink:href="#DejaVuSans-6b" transform="translate(145.642578 0)"/>
       <use xlink:href="#DejaVuSans-20" transform="translate(203.552734 0)"/>
       <use xlink:href="#DejaVuSans-46" transform="translate(235.339844 0)"/>
       <use xlink:href="#DejaVuSans-4c" transform="translate(292.859375 0)"/>
      </g>
     </g>
    </g>
    <g id="xtick_19">
     <g id="line2d_19">
      <g>
       <use xlink:href="#m02a073039f" x="957.454881" y="609.1" style="stroke: #000000; stroke-width: 0.8"/>
      </g>
     </g>
     <g id="text_19">
      <!-- Montgomery AL -->
      <g transform="translate(960.214256 695.085938) rotate(-90) scale(0.1 -0.1)">
       <use xlink:href="#DejaVuSans-4d"/>
       <use xlink:href="#DejaVuSans-6f" transform="translate(86.279297 0)"/>
       <use xlink:href="#DejaVuSans-6e" transform="translate(147.460938 0)"/>
       <use xlink:href="#DejaVuSans-74" transform="translate(210.839844 0)"/>
       <use xlink:href="#DejaVuSans-67" transform="translate(250.048828 0)"/>
       <use xlink:href="#DejaVuSans-6f" transform="translate(313.525391 0)"/>
       <use xlink:href="#DejaVuSans-6d" transform="translate(374.707031 0)"/>
       <use xlink:href="#DejaVuSans-65" transform="translate(472.119141 0)"/>
       <use xlink:href="#DejaVuSans-72" transform="translate(533.642578 0)"/>
       <use xlink:href="#DejaVuSans-79" transform="translate(574.755859 0)"/>
       <use xlink:href="#DejaVuSans-20" transform="translate(633.935547 0)"/>
       <use xlink:href="#DejaVuSans-41" transform="translate(665.722656 0)"/>
       <use xlink:href="#DejaVuSans-4c" transform="translate(734.130859 0)"/>
      </g>
     </g>
    </g>
    <g id="xtick_20">
     <g id="line2d_20">
      <g>
       <use xlink:href="#m02a073039f" x="1004.210161" y="609.1" style="stroke: #000000; stroke-width: 0.8"/>
      </g>
     </g>
     <g id="text_20">
      <!-- Denver CO -->
      <g transform="translate(1006.969536 670.50625) rotate(-90) scale(0.1 -0.1)">
       <defs>
        <path id="DejaVuSans-44" d="M 1259 4147 
L 1259 519 
L 2022 519 
Q 2988 519 3436 956 
Q 3884 1394 3884 2338 
Q 3884 3275 3436 3711 
Q 2988 4147 2022 4147 
L 1259 4147 
z
M 628 4666 
L 1925 4666 
Q 3281 4666 3915 4102 
Q 4550 3538 4550 2338 
Q 4550 1131 3912 565 
Q 3275 0 1925 0 
L 628 0 
L 628 4666 
z
" transform="scale(0.015625)"/>
        <path id="DejaVuSans-76" d="M 191 3500 
L 800 3500 
L 1894 563 
L 2988 3500 
L 3597 3500 
L 2284 0 
L 1503 0 
L 191 3500 
z
" transform="scale(0.015625)"/>
       </defs>
       <use xlink:href="#DejaVuSans-44"/>
       <use xlink:href="#DejaVuSans-65" transform="translate(77.001953 0)"/>
       <use xlink:href="#DejaVuSans-6e" transform="translate(138.525391 0)"/>
       <use xlink:href="#DejaVuSans-76" transform="translate(201.904297 0)"/>
       <use xlink:href="#DejaVuSans-65" transform="translate(261.083984 0)"/>
       <use xlink:href="#DejaVuSans-72" transform="translate(322.607422 0)"/>
       <use xlink:href="#DejaVuSans-20" transform="translate(363.720703 0)"/>
       <use xlink:href="#DejaVuSans-43" transform="translate(395.507812 0)"/>
       <use xlink:href="#DejaVuSans-4f" transform="translate(465.332031 0)"/>
      </g>
     </g>
    </g>
    <g id="text_21">
     <!-- County -->
     <g transform="translate(542.227188 706.684375) scale(0.1 -0.1)">
      <use xlink:href="#DejaVuSans-43"/>
      <use xlink:href="#DejaVuSans-6f" transform="translate(69.824219 0)"/>
      <use xlink:href="#DejaVuSans-75" transform="translate(131.005859 0)"/>
      <use xlink:href="#DejaVuSans-6e" transform="translate(194.384766 0)"/>
      <use xlink:href="#DejaVuSans-74" transform="translate(257.763672 0)"/>
      <use xlink:href="#DejaVuSans-79" transform="translate(296.972656 0)"/>
     </g>
    </g>
   </g>
   <g id="matplotlib.axis_2">
    <g id="ytick_1">
     <g id="line2d_21">
      <defs>
       <path id="mea0f45dea7" d="M 0 0 
L -3.5 0 
" style="stroke: #000000; stroke-width: 0.8"/>
      </defs>
      <g>
       <use xlink:href="#mea0f45dea7" x="50.87" y="609.1" style="stroke: #000000; stroke-width: 0.8"/>
      </g>
     </g>
     <g id="text_22">
      <!-- 0 -->
      <g transform="translate(37.5075 612.899219) scale(0.1 -0.1)">
       <defs>
        <path id="DejaVuSans-30" d="M 2034 4250 
Q 1547 4250 1301 3770 
Q 1056 3291 1056 2328 
Q 1056 1369 1301 889 
Q 1547 409 2034 409 
Q 2525 409 2770 889 
Q 3016 1369 3016 2328 
Q 3016 3291 2770 3770 
Q 2525 4250 2034 4250 
z
M 2034 4750 
Q 2819 4750 3233 4129 
Q 3647 3509 3647 2328 
Q 3647 1150 3233 529 
Q 2819 -91 2034 -91 
Q 1250 -91 836 529 
Q 422 1150 422 2328 
Q 422 3509 836 4129 
Q 1250 4750 2034 4750 
z
" transform="scale(0.015625)"/>
       </defs>
       <use xlink:href="#DejaVuSans-30"/>
      </g>
     </g>
    </g>
    <g id="ytick_2">
     <g id="line2d_22">
      <g>
       <use xlink:href="#mea0f45dea7" x="50.87" y="526.86047" style="stroke: #000000; stroke-width: 0.8"/>
      </g>
     </g>
     <g id="text_23">
      <!-- 20 -->
      <g transform="translate(31.145 530.659689) scale(0.1 -0.1)">
       <defs>
        <path id="DejaVuSans-32" d="M 1228 531 
L 3431 531 
L 3431 0 
L 469 0 
L 469 531 
Q 828 903 1448 1529 
Q 2069 2156 2228 2338 
Q 2531 2678 2651 2914 
Q 2772 3150 2772 3378 
Q 2772 3750 2511 3984 
Q 2250 4219 1831 4219 
Q 1534 4219 1204 4116 
Q 875 4013 500 3803 
L 500 4441 
Q 881 4594 1212 4672 
Q 1544 4750 1819 4750 
Q 2544 4750 2975 4387 
Q 3406 4025 3406 3419 
Q 3406 3131 3298 2873 
Q 3191 2616 2906 2266 
Q 2828 2175 2409 1742 
Q 1991 1309 1228 531 
z
" transform="scale(0.015625)"/>
       </defs>
       <use xlink:href="#DejaVuSans-32"/>
       <use xlink:href="#DejaVuSans-30" transform="translate(63.623047 0)"/>
      </g>
     </g>
    </g>
    <g id="ytick_3">
     <g id="line2d_23">
      <g>
       <use xlink:href="#mea0f45dea7" x="50.87" y="444.62094" style="stroke: #000000; stroke-width: 0.8"/>
      </g>
     </g>
     <g id="text_24">
      <!-- 40 -->
      <g transform="translate(31.145 448.420158) scale(0.1 -0.1)">
       <defs>
        <path id="DejaVuSans-34" d="M 2419 4116 
L 825 1625 
L 2419 1625 
L 2419 4116 
z
M 2253 4666 
L 3047 4666 
L 3047 1625 
L 3713 1625 
L 3713 1100 
L 3047 1100 
L 3047 0 
L 2419 0 
L 2419 1100 
L 313 1100 
L 313 1709 
L 2253 4666 
z
" transform="scale(0.015625)"/>
       </defs>
       <use xlink:href="#DejaVuSans-34"/>
       <use xlink:href="#DejaVuSans-30" transform="translate(63.623047 0)"/>
      </g>
     </g>
    </g>
    <g id="ytick_4">
     <g id="line2d_24">
      <g>
       <use xlink:href="#mea0f45dea7" x="50.87" y="362.38141" style="stroke: #000000; stroke-width: 0.8"/>
      </g>
     </g>
     <g id="text_25">
      <!-- 60 -->
      <g transform="translate(31.145 366.180628) scale(0.1 -0.1)">
       <defs>
        <path id="DejaVuSans-36" d="M 2113 2584 
Q 1688 2584 1439 2293 
Q 1191 2003 1191 1497 
Q 1191 994 1439 701 
Q 1688 409 2113 409 
Q 2538 409 2786 701 
Q 3034 994 3034 1497 
Q 3034 2003 2786 2293 
Q 2538 2584 2113 2584 
z
M 3366 4563 
L 3366 3988 
Q 3128 4100 2886 4159 
Q 2644 4219 2406 4219 
Q 1781 4219 1451 3797 
Q 1122 3375 1075 2522 
Q 1259 2794 1537 2939 
Q 1816 3084 2150 3084 
Q 2853 3084 3261 2657 
Q 3669 2231 3669 1497 
Q 3669 778 3244 343 
Q 2819 -91 2113 -91 
Q 1303 -91 875 529 
Q 447 1150 447 2328 
Q 447 3434 972 4092 
Q 1497 4750 2381 4750 
Q 2619 4750 2861 4703 
Q 3103 4656 3366 4563 
z
" transform="scale(0.015625)"/>
       </defs>
       <use xlink:href="#DejaVuSans-36"/>
       <use xlink:href="#DejaVuSans-30" transform="translate(63.623047 0)"/>
      </g>
     </g>
    </g>
    <g id="ytick_5">
     <g id="line2d_25">
      <g>
       <use xlink:href="#mea0f45dea7" x="50.87" y="280.141879" style="stroke: #000000; stroke-width: 0.8"/>
      </g>
     </g>
     <g id="text_26">
      <!-- 80 -->
      <g transform="translate(31.145 283.941098) scale(0.1 -0.1)">
       <defs>
        <path id="DejaVuSans-38" d="M 2034 2216 
Q 1584 2216 1326 1975 
Q 1069 1734 1069 1313 
Q 1069 891 1326 650 
Q 1584 409 2034 409 
Q 2484 409 2743 651 
Q 3003 894 3003 1313 
Q 3003 1734 2745 1975 
Q 2488 2216 2034 2216 
z
M 1403 2484 
Q 997 2584 770 2862 
Q 544 3141 544 3541 
Q 544 4100 942 4425 
Q 1341 4750 2034 4750 
Q 2731 4750 3128 4425 
Q 3525 4100 3525 3541 
Q 3525 3141 3298 2862 
Q 3072 2584 2669 2484 
Q 3125 2378 3379 2068 
Q 3634 1759 3634 1313 
Q 3634 634 3220 271 
Q 2806 -91 2034 -91 
Q 1263 -91 848 271 
Q 434 634 434 1313 
Q 434 1759 690 2068 
Q 947 2378 1403 2484 
z
M 1172 3481 
Q 1172 3119 1398 2916 
Q 1625 2713 2034 2713 
Q 2441 2713 2670 2916 
Q 2900 3119 2900 3481 
Q 2900 3844 2670 4047 
Q 2441 4250 2034 4250 
Q 1625 4250 1398 4047 
Q 1172 3844 1172 3481 
z
" transform="scale(0.015625)"/>
       </defs>
       <use xlink:href="#DejaVuSans-38"/>
       <use xlink:href="#DejaVuSans-30" transform="translate(63.623047 0)"/>
      </g>
     </g>
    </g>
    <g id="ytick_6">
     <g id="line2d_26">
      <g>
       <use xlink:href="#mea0f45dea7" x="50.87" y="197.902349" style="stroke: #000000; stroke-width: 0.8"/>
      </g>
     </g>
     <g id="text_27">
      <!-- 100 -->
      <g transform="translate(24.7825 201.701568) scale(0.1 -0.1)">
       <defs>
        <path id="DejaVuSans-31" d="M 794 531 
L 1825 531 
L 1825 4091 
L 703 3866 
L 703 4441 
L 1819 4666 
L 2450 4666 
L 2450 531 
L 3481 531 
L 3481 0 
L 794 0 
L 794 531 
z
" transform="scale(0.015625)"/>
       </defs>
       <use xlink:href="#DejaVuSans-31"/>
       <use xlink:href="#DejaVuSans-30" transform="translate(63.623047 0)"/>
       <use xlink:href="#DejaVuSans-30" transform="translate(127.246094 0)"/>
      </g>
     </g>
    </g>
    <g id="ytick_7">
     <g id="line2d_27">
      <g>
       <use xlink:href="#mea0f45dea7" x="50.87" y="115.662819" style="stroke: #000000; stroke-width: 0.8"/>
      </g>
     </g>
     <g id="text_28">
      <!-- 120 -->
      <g transform="translate(24.7825 119.462038) scale(0.1 -0.1)">
       <use xlink:href="#DejaVuSans-31"/>
       <use xlink:href="#DejaVuSans-32" transform="translate(63.623047 0)"/>
       <use xlink:href="#DejaVuSans-30" transform="translate(127.246094 0)"/>
      </g>
     </g>
    </g>
    <g id="text_29">
     <!-- Percentage Change in Household Count -->
     <g transform="translate(18.702812 424.967844) rotate(-90) scale(0.1 -0.1)">
      <use xlink:href="#DejaVuSans-50"/>
      <use xlink:href="#DejaVuSans-65" transform="translate(56.677734 0)"/>
      <use xlink:href="#DejaVuSans-72" transform="translate(118.201172 0)"/>
      <use xlink:href="#DejaVuSans-63" transform="translate(157.064453 0)"/>
      <use xlink:href="#DejaVuSans-65" transform="translate(212.044922 0)"/>
      <use xlink:href="#DejaVuSans-6e" transform="translate(273.568359 0)"/>
      <use xlink:href="#DejaVuSans-74" transform="translate(336.947266 0)"/>
      <use xlink:href="#DejaVuSans-61" transform="translate(376.15625 0)"/>
      <use xlink:href="#DejaVuSans-67" transform="translate(437.435547 0)"/>
      <use xlink:href="#DejaVuSans-65" transform="translate(500.912109 0)"/>
      <use xlink:href="#DejaVuSans-20" transform="translate(562.435547 0)"/>
      <use xlink:href="#DejaVuSans-43" transform="translate(594.222656 0)"/>
      <use xlink:href="#DejaVuSans-68" transform="translate(664.046875 0)"/>
      <use xlink:href="#DejaVuSans-61" transform="translate(727.425781 0)"/>
      <use xlink:href="#DejaVuSans-6e" transform="translate(788.705078 0)"/>
      <use xlink:href="#DejaVuSans-67" transform="translate(852.083984 0)"/>
      <use xlink:href="#DejaVuSans-65" transform="translate(915.560547 0)"/>
      <use xlink:href="#DejaVuSans-20" transform="translate(977.083984 0)"/>
      <use xlink:href="#DejaVuSans-69" transform="translate(1008.871094 0)"/>
      <use xlink:href="#DejaVuSans-6e" transform="translate(1036.654297 0)"/>
      <use xlink:href="#DejaVuSans-20" transform="translate(1100.033203 0)"/>
      <use xlink:href="#DejaVuSans-48" transform="translate(1131.820312 0)"/>
      <use xlink:href="#DejaVuSans-6f" transform="translate(1207.015625 0)"/>
      <use xlink:href="#DejaVuSans-75" transform="translate(1268.197266 0)"/>
      <use xlink:href="#DejaVuSans-73" transform="translate(1331.576172 0)"/>
      <use xlink:href="#DejaVuSans-65" transform="translate(1383.675781 0)"/>
      <use xlink:href="#DejaVuSans-68" transform="translate(1445.199219 0)"/>
      <use xlink:href="#DejaVuSans-6f" transform="translate(1508.578125 0)"/>
      <use xlink:href="#DejaVuSans-6c" transform="translate(1569.759766 0)"/>
      <use xlink:href="#DejaVuSans-64" transform="translate(1597.542969 0)"/>
      <use xlink:href="#DejaVuSans-20" transform="translate(1661.019531 0)"/>
      <use xlink:href="#DejaVuSans-43" transform="translate(1692.806641 0)"/>
      <use xlink:href="#DejaVuSans-6f" transform="translate(1762.630859 0)"/>
      <use xlink:href="#DejaVuSans-75" transform="translate(1823.8125 0)"/>
      <use xlink:href="#DejaVuSans-6e" transform="translate(1887.191406 0)"/>
      <use xlink:href="#DejaVuSans-74" transform="translate(1950.570312 0)"/>
     </g>
    </g>
   </g>
   <g id="patch_23">
    <path d="M 50.87 609.1 
L 50.87 41.856 
" style="fill: none; stroke: #000000; stroke-width: 0.8; stroke-linejoin: miter; stroke-linecap: square"/>
   </g>
   <g id="patch_24">
    <path d="M 1069.2 609.1 
L 1069.2 41.856 
" style="fill: none; stroke: #000000; stroke-width: 0.8; stroke-linejoin: miter; stroke-linecap: square"/>
   </g>
   <g id="patch_25">
    <path d="M 50.87 609.1 
L 1069.2 609.1 
" style="fill: none; stroke: #000000; stroke-width: 0.8; stroke-linejoin: miter; stroke-linecap: square"/>
   </g>
   <g id="patch_26">
    <path d="M 50.87 41.856 
L 1069.2 41.856 
" style="fill: none; stroke: #000000; stroke-width: 0.8; stroke-linejoin: miter; stroke-linecap: square"/>
   </g>
   <g id="text_30">
    <!-- Top 20 Counties with the Highest -->
    <g transform="translate(460.902812 22.418625) scale(0.12 -0.12)">
     <use xlink:href="#DejaVuSans-54"/>
     <use xlink:href="#DejaVuSans-6f" transform="translate(44.083984 0)"/>
     <use xlink:href="#DejaVuSans-70" transform="translate(105.265625 0)"/>
     <use xlink:href="#DejaVuSans-20" transform="translate(168.742188 0)"/>
     <use xlink:href="#DejaVuSans-32" transform="translate(200.529297 0)"/>
     <use xlink:href="#DejaVuSans-30" transform="translate(264.152344 0)"/>
     <use xlink:href="#DejaVuSans-20" transform="translate(327.775391 0)"/>
     <use xlink:href="#DejaVuSans-43" transform="translate(359.5625 0)"/>
     <use xlink:href="#DejaVuSans-6f" transform="translate(429.386719 0)"/>
     <use xlink:href="#DejaVuSans-75" transform="translate(490.568359 0)"/>
     <use xlink:href="#DejaVuSans-6e" transform="translate(553.947266 0)"/>
     <use xlink:href="#DejaVuSans-74" transform="translate(617.326172 0)"/>
     <use xlink:href="#DejaVuSans-69" transform="translate(656.535156 0)"/>
     <use xlink:href="#DejaVuSans-65" transform="translate(684.318359 0)"/>
     <use xlink:href="#DejaVuSans-73" transform="translate(745.841797 0)"/>
     <use xlink:href="#DejaVuSans-20" transform="translate(797.941406 0)"/>
     <use xlink:href="#DejaVuSans-77" transform="translate(829.728516 0)"/>
     <use xlink:href="#DejaVuSans-69" transform="translate(911.515625 0)"/>
     <use xlink:href="#DejaVuSans-74" transform="translate(939.298828 0)"/>
     <use xlink:href="#DejaVuSans-68" transform="translate(978.507812 0)"/>
     <use xlink:href="#DejaVuSans-20" transform="translate(1041.886719 0)"/>
     <use xlink:href="#DejaVuSans-74" transform="translate(1073.673828 0)"/>
     <use xlink:href="#DejaVuSans-68" transform="translate(1112.882812 0)"/>
     <use xlink:href="#DejaVuSans-65" transform="translate(1176.261719 0)"/>
     <use xlink:href="#DejaVuSans-20" transform="translate(1237.785156 0)"/>
     <use xlink:href="#DejaVuSans-48" transform="translate(1269.572266 0)"/>
     <use xlink:href="#DejaVuSans-69" transform="translate(1344.767578 0)"/>
     <use xlink:href="#DejaVuSans-67" transform="translate(1372.550781 0)"/>
     <use xlink:href="#DejaVuSans-68" transform="translate(1436.027344 0)"/>
     <use xlink:href="#DejaVuSans-65" transform="translate(1499.40625 0)"/>
     <use xlink:href="#DejaVuSans-73" transform="translate(1560.929688 0)"/>
     <use xlink:href="#DejaVuSans-74" transform="translate(1613.029297 0)"/>
    </g>
    <!-- Percentage Change in Household Count from 2019 to 2023 -->
    <g transform="translate(382.496875 35.856) scale(0.12 -0.12)">
     <defs>
      <path id="DejaVuSans-39" d="M 703 97 
L 703 672 
Q 941 559 1184 500 
Q 1428 441 1663 441 
Q 2288 441 2617 861 
Q 2947 1281 2994 2138 
Q 2813 1869 2534 1725 
Q 2256 1581 1919 1581 
Q 1219 1581 811 2004 
Q 403 2428 403 3163 
Q 403 3881 828 4315 
Q 1253 4750 1959 4750 
Q 2769 4750 3195 4129 
Q 3622 3509 3622 2328 
Q 3622 1225 3098 567 
Q 2575 -91 1691 -91 
Q 1453 -91 1209 -44 
Q 966 3 703 97 
z
M 1959 2075 
Q 2384 2075 2632 2365 
Q 2881 2656 2881 3163 
Q 2881 3666 2632 3958 
Q 2384 4250 1959 4250 
Q 1534 4250 1286 3958 
Q 1038 3666 1038 3163 
Q 1038 2656 1286 2365 
Q 1534 2075 1959 2075 
z
" transform="scale(0.015625)"/>
      <path id="DejaVuSans-33" d="M 2597 2516 
Q 3050 2419 3304 2112 
Q 3559 1806 3559 1356 
Q 3559 666 3084 287 
Q 2609 -91 1734 -91 
Q 1441 -91 1130 -33 
Q 819 25 488 141 
L 488 750 
Q 750 597 1062 519 
Q 1375 441 1716 441 
Q 2309 441 2620 675 
Q 2931 909 2931 1356 
Q 2931 1769 2642 2001 
Q 2353 2234 1838 2234 
L 1294 2234 
L 1294 2753 
L 1863 2753 
Q 2328 2753 2575 2939 
Q 2822 3125 2822 3475 
Q 2822 3834 2567 4026 
Q 2313 4219 1838 4219 
Q 1578 4219 1281 4162 
Q 984 4106 628 3988 
L 628 4550 
Q 988 4650 1302 4700 
Q 1616 4750 1894 4750 
Q 2613 4750 3031 4423 
Q 3450 4097 3450 3541 
Q 3450 3153 3228 2886 
Q 3006 2619 2597 2516 
z
" transform="scale(0.015625)"/>
     </defs>
     <use xlink:href="#DejaVuSans-50"/>
     <use xlink:href="#DejaVuSans-65" transform="translate(56.677734 0)"/>
     <use xlink:href="#DejaVuSans-72" transform="translate(118.201172 0)"/>
     <use xlink:href="#DejaVuSans-63" transform="translate(157.064453 0)"/>
     <use xlink:href="#DejaVuSans-65" transform="translate(212.044922 0)"/>
     <use xlink:href="#DejaVuSans-6e" transform="translate(273.568359 0)"/>
     <use xlink:href="#DejaVuSans-74" transform="translate(336.947266 0)"/>
     <use xlink:href="#DejaVuSans-61" transform="translate(376.15625 0)"/>
     <use xlink:href="#DejaVuSans-67" transform="translate(437.435547 0)"/>
     <use xlink:href="#DejaVuSans-65" transform="translate(500.912109 0)"/>
     <use xlink:href="#DejaVuSans-20" transform="translate(562.435547 0)"/>
     <use xlink:href="#DejaVuSans-43" transform="translate(594.222656 0)"/>
     <use xlink:href="#DejaVuSans-68" transform="translate(664.046875 0)"/>
     <use xlink:href="#DejaVuSans-61" transform="translate(727.425781 0)"/>
     <use xlink:href="#DejaVuSans-6e" transform="translate(788.705078 0)"/>
     <use xlink:href="#DejaVuSans-67" transform="translate(852.083984 0)"/>
     <use xlink:href="#DejaVuSans-65" transform="translate(915.560547 0)"/>
     <use xlink:href="#DejaVuSans-20" transform="translate(977.083984 0)"/>
     <use xlink:href="#DejaVuSans-69" transform="translate(1008.871094 0)"/>
     <use xlink:href="#DejaVuSans-6e" transform="translate(1036.654297 0)"/>
     <use xlink:href="#DejaVuSans-20" transform="translate(1100.033203 0)"/>
     <use xlink:href="#DejaVuSans-48" transform="translate(1131.820312 0)"/>
     <use xlink:href="#DejaVuSans-6f" transform="translate(1207.015625 0)"/>
     <use xlink:href="#DejaVuSans-75" transform="translate(1268.197266 0)"/>
     <use xlink:href="#DejaVuSans-73" transform="translate(1331.576172 0)"/>
     <use xlink:href="#DejaVuSans-65" transform="translate(1383.675781 0)"/>
     <use xlink:href="#DejaVuSans-68" transform="translate(1445.199219 0)"/>
     <use xlink:href="#DejaVuSans-6f" transform="translate(1508.578125 0)"/>
     <use xlink:href="#DejaVuSans-6c" transform="translate(1569.759766 0)"/>
     <use xlink:href="#DejaVuSans-64" transform="translate(1597.542969 0)"/>
     <use xlink:href="#DejaVuSans-20" transform="translate(1661.019531 0)"/>
     <use xlink:href="#DejaVuSans-43" transform="translate(1692.806641 0)"/>
     <use xlink:href="#DejaVuSans-6f" transform="translate(1762.630859 0)"/>
     <use xlink:href="#DejaVuSans-75" transform="translate(1823.8125 0)"/>
     <use xlink:href="#DejaVuSans-6e" transform="translate(1887.191406 0)"/>
     <use xlink:href="#DejaVuSans-74" transform="translate(1950.570312 0)"/>
     <use xlink:href="#DejaVuSans-20" transform="translate(1989.779297 0)"/>
     <use xlink:href="#DejaVuSans-66" transform="translate(2021.566406 0)"/>
     <use xlink:href="#DejaVuSans-72" transform="translate(2056.771484 0)"/>
     <use xlink:href="#DejaVuSans-6f" transform="translate(2095.634766 0)"/>
     <use xlink:href="#DejaVuSans-6d" transform="translate(2156.816406 0)"/>
     <use xlink:href="#DejaVuSans-20" transform="translate(2254.228516 0)"/>
     <use xlink:href="#DejaVuSans-32" transform="translate(2286.015625 0)"/>
     <use xlink:href="#DejaVuSans-30" transform="translate(2349.638672 0)"/>
     <use xlink:href="#DejaVuSans-31" transform="translate(2413.261719 0)"/>
     <use xlink:href="#DejaVuSans-39" transform="translate(2476.884766 0)"/>
     <use xlink:href="#DejaVuSans-20" transform="translate(2540.507812 0)"/>
     <use xlink:href="#DejaVuSans-74" transform="translate(2572.294922 0)"/>
     <use xlink:href="#DejaVuSans-6f" transform="translate(2611.503906 0)"/>
     <use xlink:href="#DejaVuSans-20" transform="translate(2672.685547 0)"/>
     <use xlink:href="#DejaVuSans-32" transform="translate(2704.472656 0)"/>
     <use xlink:href="#DejaVuSans-30" transform="translate(2768.095703 0)"/>
     <use xlink:href="#DejaVuSans-32" transform="translate(2831.71875 0)"/>
     <use xlink:href="#DejaVuSans-33" transform="translate(2895.341797 0)"/>
    </g>
   </g>
  </g>
 </g>
 <defs>
  <clipPath id="pe315d74589">
   <rect x="50.87" y="41.856" width="1018.33" height="567.244"/>
  </clipPath>
 </defs>
</svg>
